<svg xmlns="http://www.w3.org/2000/svg" viewBox="0 0 153.76 34.97"><defs><style>.e4c20977-a6cd-432b-8ba0-4c9a9a591b63{fill:#231f20;}</style></defs><g id="f863cd2c-9791-4f25-971a-e92169d327c2" data-name="Layer 2"><g id="abb7de27-9b36-492e-a88a-ca25644f88f6" data-name="Layer 1"><path class="e4c20977-a6cd-432b-8ba0-4c9a9a591b63" d="M149.73,16.38h.54c.37,0,.68-.05.68-.49s-.35-.45-.67-.45h-.55ZM149.12,15h1.23c.79,0,1.21.28,1.21,1a.83.83,0,0,1-.86.89l.89,1.44H151l-.86-1.42h-.37v1.42h-.61Zm3.32,1.66a2.2,2.2,0,1,0-4.4,0,2.2,2.2,0,1,0,4.4,0m-5.11,0a2.91,2.91,0,1,1,2.91,2.91,2.91,2.91,0,0,1-2.91-2.91"/><path class="e4c20977-a6cd-432b-8ba0-4c9a9a591b63" d="M11,21v4.75h3.51a3.81,3.81,0,0,0,2.25-.62,2.1,2.1,0,0,0,.86-1.81,1.67,1.67,0,0,0-.37-1.13,2.69,2.69,0,0,0-.91-.72,4.14,4.14,0,0,0-1.16-.37A8.14,8.14,0,0,0,14,21ZM11,9.14v4.3h3.17a3.37,3.37,0,0,0,2-.57,2,2,0,0,0,.79-1.76,1.62,1.62,0,0,0-.84-1.48,4.35,4.35,0,0,0-2.22-.49Zm11.91,7.65a9.36,9.36,0,0,1,2.42,1,8.36,8.36,0,0,1,2.12,1.68,7.66,7.66,0,0,1,1.49,2.34,7.85,7.85,0,0,1,.54,3,9.29,9.29,0,0,1-1.16,4.81,9.44,9.44,0,0,1-3.06,3.16,12.92,12.92,0,0,1-4.35,1.73,23.82,23.82,0,0,1-5,.52H0V0H14.37a34.79,34.79,0,0,1,4.52.32,14.72,14.72,0,0,1,4.42,1.29,8.69,8.69,0,0,1,3.36,2.81A8.16,8.16,0,0,1,28,9.29a7.39,7.39,0,0,1-1.41,4.64,8.41,8.41,0,0,1-3.73,2.72Z"/><polygon class="e4c20977-a6cd-432b-8ba0-4c9a9a591b63" points="130 21.04 129.9 21.04 129.9 34.97 118.49 34.97 118.49 0 129.85 0 129.85 12.89 129.95 12.89 139.28 0 153.12 0 139.98 16 153.76 34.97 139.33 34.97 130 21.04"/><path class="e4c20977-a6cd-432b-8ba0-4c9a9a591b63" d="M43.56,14.77h2.31a9,9,0,0,0,1.3-.1,4.25,4.25,0,0,0,1.32-.42,2.93,2.93,0,0,0,1-.89,2.47,2.47,0,0,0,.42-1.5,2.78,2.78,0,0,0-.35-1.49,2.2,2.2,0,0,0-.88-.81,3.52,3.52,0,0,0-1.18-.35,9.88,9.88,0,0,0-1.17-.07h-2.8ZM32.25,0H47.32a25.25,25.25,0,0,1,5.11.52A12.73,12.73,0,0,1,57,2.35a9.9,9.9,0,0,1,3.23,3.5,11.17,11.17,0,0,1,1.24,5.51A10.23,10.23,0,0,1,59.87,17a10.23,10.23,0,0,1-4.53,3.78L64.21,35H50.71L44,22.47h-.35V35H32.25Z"/><path class="e4c20977-a6cd-432b-8ba0-4c9a9a591b63" d="M77.9,35V15.23a11.06,11.06,0,0,1-5.54,1.52,11.32,11.32,0,0,1-1.43-.09,11.1,11.1,0,0,1-4.44-1.59V35Z"/><polygon class="e4c20977-a6cd-432b-8ba0-4c9a9a591b63" points="103.08 0 103.08 16.14 93.65 0 93.35 0 81.94 0 81.94 34.97 93.11 34.97 93.35 34.97 93.35 19.79 102.49 34.97 114.49 34.97 114.49 34.97 114.49 0 103.08 0"/><path class="e4c20977-a6cd-432b-8ba0-4c9a9a591b63" d="M79,5.34A6.25,6.25,0,0,0,74.8,0H70a6.66,6.66,0,0,0,1.54,12.82,6.36,6.36,0,0,0,.87.06A6.71,6.71,0,0,0,79,5.34"/></g></g></svg>