<svg xmlns="http://www.w3.org/2000/svg" xmlns:xlink="http://www.w3.org/1999/xlink" x="0px" y="0px" viewBox="0 0 286.12 266.55" style="enable-background:new 0 0 286.12 266.55;" xml:space="preserve"> <style type="text/css"> .st0{clip-path:url(#XMLID_00000048463086185935946090000010880411085432511654_);fill:url(#SVGID_1_);} .st1{clip-path:url(#XMLID_00000048463086185935946090000010880411085432511654_);fill:url(#SVGID_00000176028332109278041800000013790308904434464176_);} .st2{clip-path:url(#XMLID_00000048463086185935946090000010880411085432511654_);fill:url(#SVGID_00000181050071810014295340000010015422760859376030_);} .st3{clip-path:url(#XMLID_00000048463086185935946090000010880411085432511654_);fill:url(#SVGID_00000047738312130874429160000017598260853554307716_);} .st4{fill:#003043;} .st5{clip-path:url(#XMLID_00000160903043946365435790000003009987719377412481_);} .st6{fill:url(#SVGID_00000158719230072552207150000001121319134180001691_);} .st7{clip-path:url(#XMLID_00000094590864125075008350000002448615784565879705_);} .st8{fill:url(#SVGID_00000007405009962448365080000004483262399361453711_);} .st9{fill:url(#XMLID_00000021815430325325580490000010266067046586403968_);} .st10{fill:#767776;} .st11{fill:#616261;} .st12{fill:#4A5E67;} .st13{fill:#778795;} .st14{fill:url(#SVGID_00000023987273343880293290000017656281020986258827_);} .st15{fill:url(#SVGID_00000067221873020965350270000002185050183858750596_);} .st16{fill:url(#SVGID_00000075164780829111521350000001908525874917745537_);} .st17{fill:url(#SVGID_00000109009084410711978400000018306495252777676715_);} .st18{fill:#FFFFFF;} .st19{fill:#3B454C;} .st20{fill:#9EA6AA;} .st21{fill:#888F94;} .st22{fill:#3A444A;} .st23{fill:#A5B5BC;} .st24{opacity:0.8;fill:url(#SVGID_00000137103619095383986350000008469443969352036998_);} </style> <g id="Layer_3"> </g> <g id="Layer_1"> <g id="XMLID_9329_"> <path id="XMLID_9330_" d="M142.37,9.78c-31.97,0-60.93,6.1-81.92,16.51v210.98c21,11.32,49.95,18.32,81.92,18.32 c31.79,0,60.59-6.92,81.55-18.13V26.11C202.96,15.8,174.16,9.78,142.37,9.78z"></path> </g> <g> <defs> <path id="XMLID_9328_" d="M142.37,6.35c-31.97,0-60.93,6.27-81.92,16.97v216.85c21,11.64,49.95,18.83,81.92,18.83 c31.79,0,60.59-7.11,81.55-18.63V23.14C202.96,12.55,174.16,6.35,142.37,6.35z"></path> </defs> <clipPath id="XMLID_00000065065122296701991540000015826025357047089834_"> <use xlink:href="#XMLID_9328_" style="overflow:visible;"></use> </clipPath> <linearGradient id="SVGID_1_" gradientUnits="userSpaceOnUse" x1="121.8311" y1="261.1362" x2="121.8311" y2="6.254"> <stop offset="2.531091e-03" style="stop-color:#5C707A"></stop> <stop offset="0.1983" style="stop-color:#E9EFF3"></stop> <stop offset="0.2691" style="stop-color:#A0A9B6"></stop> <stop offset="0.2897" style="stop-color:#8C98A6"></stop> <stop offset="0.3893" style="stop-color:#E9EFF3"></stop> <stop offset="0.5169" style="stop-color:#A0A9B6"></stop> <stop offset="0.5541" style="stop-color:#8C98A6"></stop> <stop offset="0.6335" style="stop-color:#EFF4F8"></stop> <stop offset="0.7672" style="stop-color:#E9EFF3"></stop> <stop offset="0.8177" style="stop-color:#A0A9B6"></stop> <stop offset="0.8324" style="stop-color:#8C98A6"></stop> <stop offset="0.9113" style="stop-color:#D4D9DD"></stop> <stop offset="1" style="stop-color:#9BAFBA"></stop> </linearGradient> <rect x="107.33" y="-13.71" style="clip-path:url(#XMLID_00000065065122296701991540000015826025357047089834_);fill:url(#SVGID_1_);" width="29.01" height="289.63"></rect> <linearGradient id="SVGID_00000180357764698482250180000010047186477748892546_" gradientUnits="userSpaceOnUse" x1="163.4381" y1="261.1362" x2="163.4381" y2="6.254"> <stop offset="2.531091e-03" style="stop-color:#5C707A"></stop> <stop offset="0.1983" style="stop-color:#E9EFF3"></stop> <stop offset="0.2691" style="stop-color:#A0A9B6"></stop> <stop offset="0.2897" style="stop-color:#8C98A6"></stop> <stop offset="0.3893" style="stop-color:#E9EFF3"></stop> <stop offset="0.5169" style="stop-color:#A0A9B6"></stop> <stop offset="0.5541" style="stop-color:#8C98A6"></stop> <stop offset="0.6335" style="stop-color:#EFF4F8"></stop> <stop offset="0.7672" style="stop-color:#E9EFF3"></stop> <stop offset="0.8177" style="stop-color:#A0A9B6"></stop> <stop offset="0.8324" style="stop-color:#8C98A6"></stop> <stop offset="0.9113" style="stop-color:#D4D9DD"></stop> <stop offset="1" style="stop-color:#9BAFBA"></stop> </linearGradient> <rect x="148.93" y="-13.71" style="clip-path:url(#XMLID_00000065065122296701991540000015826025357047089834_);fill:url(#SVGID_00000180357764698482250180000010047186477748892546_);" width="29.01" height="289.63"></rect> <linearGradient id="SVGID_00000016070979446335538730000005596840778476322982_" gradientUnits="userSpaceOnUse" x1="185.1523" y1="261.1361" x2="185.1523" y2="6.2533"> <stop offset="2.531091e-03" style="stop-color:#5C707A"></stop> <stop offset="0.1983" style="stop-color:#E9EFF3"></stop> <stop offset="0.2691" style="stop-color:#A0A9B6"></stop> <stop offset="0.2897" style="stop-color:#8C98A6"></stop> <stop offset="0.3893" style="stop-color:#E9EFF3"></stop> <stop offset="0.5169" style="stop-color:#A0A9B6"></stop> <stop offset="0.5541" style="stop-color:#8C98A6"></stop> <stop offset="0.6335" style="stop-color:#EFF4F8"></stop> <stop offset="0.7672" style="stop-color:#E9EFF3"></stop> <stop offset="0.8177" style="stop-color:#A0A9B6"></stop> <stop offset="0.8324" style="stop-color:#8C98A6"></stop> <stop offset="0.9113" style="stop-color:#D4D9DD"></stop> <stop offset="1" style="stop-color:#9BAFBA"></stop> </linearGradient> <rect x="182.75" y="-13.71" style="clip-path:url(#XMLID_00000065065122296701991540000015826025357047089834_);fill:url(#SVGID_00000016070979446335538730000005596840778476322982_);" width="4.81" height="289.63"></rect> <linearGradient id="SVGID_00000120549703067639289110000013716777200914575503_" gradientUnits="userSpaceOnUse" x1="100.117" y1="261.1361" x2="100.117" y2="6.2533"> <stop offset="2.531091e-03" style="stop-color:#5C707A"></stop> <stop offset="0.1983" style="stop-color:#E9EFF3"></stop> <stop offset="0.2691" style="stop-color:#A0A9B6"></stop> <stop offset="0.2897" style="stop-color:#8C98A6"></stop> <stop offset="0.3893" style="stop-color:#E9EFF3"></stop> <stop offset="0.5169" style="stop-color:#A0A9B6"></stop> <stop offset="0.5541" style="stop-color:#8C98A6"></stop> <stop offset="0.6335" style="stop-color:#EFF4F8"></stop> <stop offset="0.7672" style="stop-color:#E9EFF3"></stop> <stop offset="0.8177" style="stop-color:#A0A9B6"></stop> <stop offset="0.8324" style="stop-color:#8C98A6"></stop> <stop offset="0.9113" style="stop-color:#D4D9DD"></stop> <stop offset="1" style="stop-color:#9BAFBA"></stop> </linearGradient> <rect x="97.71" y="-13.71" style="clip-path:url(#XMLID_00000065065122296701991540000015826025357047089834_);fill:url(#SVGID_00000120549703067639289110000013716777200914575503_);" width="4.81" height="289.63"></rect> </g> <g> <ellipse id="XMLID_9326_" class="st4" cx="142.41" cy="109.21" rx="138.54" ry="75.01"></ellipse> <g id="XMLID_8024_"> <defs> <ellipse id="XMLID_8025_" cx="142.41" cy="98.62" rx="109.44" ry="56.14"></ellipse> </defs> <use xlink:href="#XMLID_8025_" style="overflow:visible;"></use> <clipPath id="XMLID_00000093891484844669743950000003882873962767265717_"> <use xlink:href="#XMLID_8025_" style="overflow:visible;"></use> </clipPath> <g id="XMLID_8026_" style="clip-path:url(#XMLID_00000093891484844669743950000003882873962767265717_);"> <radialGradient id="SVGID_00000047763322724722863480000006088393053810002853_" cx="144.7275" cy="108.8756" r="109.3444" gradientTransform="matrix(1 0 0 0.6591 0 37.115)" gradientUnits="userSpaceOnUse"> <stop offset="0.3844" style="stop-color:#D4D5D5"></stop> <stop offset="0.4537" style="stop-color:#CDCECE"></stop> <stop offset="0.5617" style="stop-color:#BBBDBD"></stop> <stop offset="0.6948" style="stop-color:#9EA0A0"></stop> <stop offset="0.8466" style="stop-color:#757777"></stop> <stop offset="0.8794" style="stop-color:#6A6C6C"></stop> <stop offset="1" style="stop-color:#393A39"></stop> </radialGradient> <path style="fill:url(#SVGID_00000047763322724722863480000006088393053810002853_);" d="M249.97,38.02l1.72-1.24l0.36-1.01 l-0.87-5.62l-0.67-1.01l-4.71-2.81h-1.02l-3.88,2.81l-2.34-1.41l-2.33-1.41h-1.02l-1.95,1.41l-1.96,1.41l0,0l-3.4-2.06 l-1.24-0.75h0h-1.02l-3.95,2.81l-2.3-1.41l-2.3-1.41h0h-1.02l-1.99,1.41l-2,1.41l-4.56-2.81h-1.02h0l-4.02,2.81l-2.27-1.41 l-2.26-1.41h-1.02h0l-2.03,1.41l-2.03,1.41l-4.49-2.81h-1.02l-4.09,2.81l-4.46-2.81h-1.02l-2.06,1.41l-2.07,1.41l-4.42-2.81 h-1.02l-4.17,2.81l-4.38-2.81h-1.02l-2.42,1.63l-1.78,1.19l-2.18-1.41l-2.17-1.41h0h-1.02l-2.44,1.63l-1.8,1.19l-1.51-0.98 l-2.8-1.83h0h-1.02h0l-1.77,1.17l-1.09,0.72l-1.41,0.93l-2.14-1.41l-2.13-1.41h-1.02h0l-2.15,1.41l-2.16,1.41l-4.24-2.82h-1.02 l-4.35,2.82l-2.11-1.41l-2.1-1.41h-1.02l-2.19,1.41l-2.19,1.41l-4.17-2.82h-1.02l-4.42,2.82l-2.07-1.41l-2.06-1.41h-1.02 l-2.22,1.41l-2.23,1.41l-2.6-1.79l-1.5-1.03h0h-1.02h0l-4.49,2.82l-2.03-1.41l-2.03-1.41h0h-1.02l-2.26,1.41l-2.27,1.41 l-4.02-2.82h-1.02h0l-4.56,2.82l-2-1.41l-1.99-1.41h-1.02l-2.29,1.41l-2.3,1.41l-3.95-2.82h-1.02l-4.63,2.82l-1.96-1.41 l-1.95-1.41l-0.65,1.01l3.92,2.82l-0.72,5.64l-4.7,2.82l-0.65,1.01l-0.75,5.64l0.39,1.01l4.03,2.82l-0.72,5.64l-4.81,2.82 l-0.67,1.01l-0.75,5.64l0.4,1.01l4.14,2.82l-0.72,5.64l-4.92,2.83l-0.68,1.01l-0.75,5.64l0.41,1.01l4.24,2.82l-0.72,5.64 l-5.03,2.83l-0.69,1.01l-0.75,5.64l0.43,1.01l4.35,2.82l-0.72,5.64l-5.13,2.83l-0.71,1.01l-0.75,5.64l0.44,1.01l4.46,2.81 l-0.72,5.64l-5.24,2.83l-0.72,1.01l-0.75,5.64l0.45,1.01l4.57,2.81l-0.72,5.64l-5.35,2.83l-0.73,1.01l-0.75,5.64l0.47,1.01 l4.67,2.81l-0.72,5.64l-5.46,2.83l-0.74,1.01l-0.75,5.64l0.48,1.01l5.36,3.14l6.16-3.17l5.4,3.14l6.12-3.17l5.44,3.14l6.08-3.17 l5.48,3.14l6.04-3.17l0.79,0.45l4.12,2.35l0.02,0.01l-0.48,6.31l6.19,3.48l6.68-3.51l0.39-6.31l3.75-2l1.56-0.83l0.8,0.45 l2.6,1.46l1.6,0.9l-0.32,6.31l6.28,3.47l6.59-3.51l0.23-6.31l3.15-1.7l2.09-1.13l5.68,3.14l5.84-3.17l5.72,3.14l5.8-3.17 l5.76,3.14l5.76-3.16l5.14,2.78l0.03,0.02l0.08,6.3l6.5,3.47l6.37-3.5l-0.17-6.3l1.32-0.74l3.74-2.09l2.76,1.47l2.49,1.33 l0.24,6.3l6.59,3.47l6.28-3.5l-0.33-6.3l1.31-0.74l3.69-2.09l5.96,3.14l5.55-3.16l6,3.13l5.51-3.16l6.04,3.13l5.47-3.16 l6.08,3.13l5.43-3.16l0.87,0.45l1.73,0.89l2.86,1.46l0.72,6.29l6.86,3.47l6.01-3.5l-0.81-6.29l4.78-2.82l0.88,0.45l4.65,2.35 l0.88,6.29l6.95,3.47l5.92-3.5l-0.97-6.29l-0.77-1.01l-5.57-2.8l-0.83-5.62l4.67-2.82l0.45-1.01l-0.87-5.62l-0.76-1.01 l-5.46-2.8l-0.83-5.62l4.56-2.82l0.44-1.01l-0.87-5.62l-0.75-1.01l-5.35-2.8l-0.83-5.62l4.46-2.82l0.43-1.01l-0.87-5.62 l-0.73-1.01l-5.24-2.8l-0.83-5.62l4.35-2.82l0.41-1.01l-0.87-5.62l-0.72-1.01l-5.14-2.8l-0.83-5.62l4.24-2.81l0.4-1.01 l-0.87-5.62l-0.71-1.01l-5.03-2.8l-0.83-5.62l4.13-2.81l0.39-1.01l-0.87-5.62l-0.69-1.01l-4.92-2.81l-0.83-5.62l4.03-2.81 l0.38-1.01l-0.87-5.62l-0.68-1.01l-4.81-2.81l-0.83-5.62L249.97,38.02z M246.73,39.6l0.83,5.62l-3.99,2.81l-4.78-2.81 l-0.76-5.62l3.95-2.81L246.73,39.6z M243.96,177.39l-4.81,2.82l-5.46-2.8l-0.62-5.62l1.04-0.61l0.96-0.57l2.78-1.65l5.43,2.8 L243.96,177.39z M232.35,170.78l-5.39-2.8l-0.58-5.62l4.74-2.82l5.36,2.8l0.65,5.62L232.35,170.78z M186.69,170.88l-5.25-2.8 l-0.29-5.63l4.89-2.82l5.21,2.8l0.36,5.63L186.69,170.88z M158.39,180.4l-5.21-2.8l-0.11-5.63l5.03-2.83l5.18,2.8l0.18,5.63 L158.39,180.4z M117.82,158.76l-5.1,2.83l-4.96-2.81l0.17-5.63l5.07-2.83l4.93,2.81L117.82,158.76z M89.18,180.56l-4.99-2.81 l0.32-5.64l5.25-2.83l4.96,2.81l-0.25,5.63L89.18,180.56z M61.12,171.16l-4.85-2.81l0.5-5.64l5.28-2.83l4.82,2.81l-0.43,5.64 L61.12,171.16z M35.65,149.46l0.64-5.64l5.25-2.83l4.64,2.81l-0.57,5.64l-5.28,2.83L35.65,149.46z M51.73,46.29l4.1,2.82 l-0.57,5.64l-4.74,2.82l-4.13-2.82l0.64-5.64L51.73,46.29z M84.72,38.06l1.99-1.24l4.17,2.82l-0.32,5.64L86,48.09l-4.2-2.82 l0.39-5.64l1.3-0.81L84.72,38.06z M100.86,46.28l4.28,2.81l-0.22,5.63l-4.56,2.82l-4.31-2.81l0.28-5.64L100.86,46.28z M106.89,30.17l4.39-2.82l4.21,2.82l-0.14,5.63l-4.42,2.82l-4.24-2.82L106.89,30.17z M159.07,39.62l0.18,5.63l-4.31,2.82 l-4.46-2.81l-0.11-5.63l4.28-2.82L159.07,39.62z M161.88,38.44l2.47-1.64l4.46,2.81l0.25,5.63l-4.27,2.81l-4.49-2.81l-0.19-5.63 l1.18-0.78L161.88,38.44z M169.85,39.62l4.2-2.82l4.5,2.81l0.32,5.63l-4.24,2.81l-4.53-2.81L169.85,39.62z M181.33,38.44 l2.43-1.64l4.53,2.81l0.39,5.63l-4.2,2.81l-4.56-2.81l-0.33-5.63L181.33,38.44z M193.88,49.06l0.43,5.63l-4.24,2.81l-4.64-2.81 l-0.37-5.63l2.11-1.41l2.1-1.41L193.88,49.06z M230.53,38.03l1.75-1.24l0,0h0l4.71,2.81l0.75,5.62l-4.02,2.81l-4.74-2.81 l-0.69-5.62l1.15-0.81L230.53,38.03z M223.73,142.47l-5.21-2.8l-0.55-5.62l4.6-2.82l5.18,2.8l0.61,5.62L223.73,142.47z M212.68,142.49l-5.17-2.8l-0.47-5.62l4.64-2.82l5.14,2.8l0.54,5.62l-3.68,2.22L212.68,142.49z M185.59,151.98l-5.14-2.8 l-0.29-5.63l4.78-2.82l5.11,2.8l0.36,5.63L185.59,151.98z M141.54,158.71l-0.04-5.63l4.96-2.82l5.03,2.8l0.11,5.63l-4.99,2.82 L141.54,158.71z M46.87,142.79l-4.63-2.81l0.6-5.64l5.17-2.83l4.6,2.81l-0.54,5.64l-4.1,2.23L46.87,142.79z M49.69,65.23 l4.21,2.82l-0.57,5.64l-4.85,2.82l-4.24-2.82l0.64-5.64L49.69,65.23z M69.82,65.22l4.28,2.82l-0.43,5.64l-4.78,2.82l-4.31-2.82 l0.5-5.64L69.82,65.22z M89.96,65.21l4.35,2.82l-0.29,5.63l-4.7,2.82l-4.38-2.81l0.35-5.63L89.96,65.21z M100.02,65.2l4.39,2.81 l-0.22,5.63l-4.67,2.82l-4.42-2.81l0.28-5.63L100.02,65.2z M110.68,46.27l4.32,2.81l-0.14,5.63l-4.52,2.82l-4.35-2.81l0.21-5.63 L110.68,46.27z M125.69,68l4.53-2.82l4.5,2.81l0,5.63l-4.56,2.82l-4.53-2.81L125.69,68z M135.77,49.08l4.39-2.82l4.42,2.81 l0.07,5.63l-4.42,2.82l-4.46-2.81L135.77,49.08z M169.65,58.52l0.25,5.63l-4.38,2.82l-4.6-2.81l-0.19-5.63l4.35-2.82 L169.65,58.52z M170.72,58.51l4.31-2.82l4.6,2.81l0.32,5.63l-4.35,2.82l-4.64-2.81L170.72,58.51z M179.46,46.25l4.57,2.81 l0.36,5.63l-4.27,2.81l-4.6-2.81l-0.29-5.63L179.46,46.25z M195.33,67.95l0.43,5.62l-4.34,2.82l-4.74-2.81l-0.37-5.62l4.31-2.82 L195.33,67.95z M220.82,65.12l4.82,2.81l0.65,5.62l-4.24,2.82l-4.85-2.81l-0.58-5.62L220.82,65.12z M234.78,142.45l-5.25-2.8 l-0.62-5.62l4.56-2.82l5.21,2.8l0.68,5.62L234.78,142.45z M184.49,133.09l-5.03-2.81l-0.29-5.63l4.67-2.82l5,2.81l0.36,5.63 L184.49,133.09z M168.46,142.57l-5.03-2.81l-0.19-5.63l4.78-2.82l5,2.81l0.25,5.63L168.46,142.57z M39.94,111.58l0.64-5.64 l5.03-2.83l4.42,2.81l-0.57,5.64l-5.06,2.83L39.94,111.58z M47.65,84.17l4.32,2.81l-0.57,5.64l-4.95,2.82l-2.18-1.41l-2.17-1.41 L42.73,87L47.65,84.17z M70.44,64.21l0.46-5.64l4.67-2.82l4.24,2.82l-0.4,5.64l-4.7,2.82l-3.13-2.06L70.44,64.21z M110.09,65.19 l4.42,2.81l-0.14,5.63l-4.63,2.82l-4.46-2.81l0.21-5.63L110.09,65.19z M125.48,86.91l4.64-2.82l4.6,2.81l0,5.63l-4.67,2.82 l-2.32-1.41l-2.31-1.41L125.48,86.91z M135.79,67.99l4.49-2.82l4.53,2.81l0.07,5.63l-4.52,2.82l-4.56-2.81L135.79,67.99z M160.42,65.16l4.6,2.81l0.21,5.63l-4.45,2.82l-4.64-2.81L156,67.98L160.42,65.16z M171.34,84.05l2.37,1.4l2.38,1.4l0.29,5.63 l-4.52,2.82l-2.39-1.4l-2.39-1.4l-0.22-5.63L171.34,84.05z M171.59,77.42l4.42-2.82l4.71,2.81l0.32,5.63l-4.45,2.82l-4.74-2.81 L171.59,77.42z M180.55,65.14l4.67,2.81l0.36,5.63l-4.38,2.82l-4.71-2.81l-0.29-5.63L180.55,65.14z M196.77,86.84l0.43,5.63 l-2.22,1.41l-2.23,1.41l-4.85-2.81l-0.37-5.63l4.42-2.82L196.77,86.84z M235.74,67.92l0.72,5.62l-4.2,2.82l-4.89-2.81 l-0.65-5.62l4.17-2.81L235.74,67.92z M241.27,111.3l-4.42,2.82l-5.1-2.8l-0.65-5.62l4.39-2.82l5.07,2.81L241.27,111.3z M220.52,105.7l4.42-2.82l5.03,2.81l0.65,5.62l-4.45,2.82l-5.07-2.8L220.52,105.7z M230.42,104.68l-2.52-1.4l-2.51-1.4 l-0.62-5.62l4.35-2.82l5,2.81l0.68,5.62L230.42,104.68z M227.46,120.76l-0.62-5.62l4.46-2.82l5.11,2.8l0.68,5.62l-4.49,2.82 L227.46,120.76z M238.86,92.42l-2.15,1.41l-2.16,1.41l-4.99-2.81l-0.65-5.62l4.28-2.82l4.96,2.81L238.86,92.42z M231.83,77.36 l0.68,5.62l-4.27,2.82l-4.92-2.81l-0.62-5.62l4.24-2.82L231.83,77.36z M227.8,86.81l0.65,5.62l-4.34,2.82l-2.48-1.4l-2.48-1.4 l-0.58-5.62l4.31-2.82L227.8,86.81z M223.66,96.25l0.61,5.62l-2.2,1.41l-2.21,1.41l-4.99-2.81l-0.55-5.62l4.38-2.82 L223.66,96.25z M218.03,92.44l-2.19,1.41l-2.19,1.41l-2.47-1.4l-2.46-1.4l-0.51-5.62l4.35-2.82l4.89,2.81L218.03,92.44z M213.19,96.27l0.54,5.62l-1.19,0.76l-3.26,2.06l-2.48-1.4l-2.47-1.4l-0.47-5.62l4.42-2.82L213.19,96.27z M207.62,92.45 l-3.82,2.44l-0.59,0.38l-2.45-1.4l-2.44-1.4l-0.44-5.63l4.39-2.82l4.85,2.81L207.62,92.45z M204.29,115.17l0.47,5.62l-4.6,2.82 l-5.03-2.8l-0.4-5.63l2.29-1.41l2.28-1.41L204.29,115.17z M183.4,114.19l-4.92-2.81l-0.29-5.63l4.56-2.82l4.89,2.81l0.36,5.63 L183.4,114.19z M167.73,123.66l-4.92-2.81l-0.19-5.63l4.67-2.82l2.44,1.4l2.45,1.4l0.25,5.63L167.73,123.66z M156.91,123.68 l-4.89-2.81l-0.11-5.63l4.71-2.82l4.86,2.81l0.18,5.63L156.91,123.68z M141.25,120.89l-0.04-5.63l4.74-2.82l4.82,2.81l0.11,5.63 l-4.78,2.82L141.25,120.89z M134.68,104.45l-4.11-2.45l0.03-5.63l4.67-2.82l4.68,2.81l0.04,5.63l-0.9,0.54l-3.46,2.08l-0.34,0.2 L134.68,104.45z M135.82,86.9l4.6-2.82l4.64,2.81l0.07,5.63l-2.31,1.41l-2.32,1.41l-4.67-2.81L135.82,86.9z M150.73,84.07 l4.67,2.81l0.14,5.63l-4.6,2.82l-2.36-1.4l-2.35-1.4l-0.08-5.63L150.73,84.07z M160.27,77.43l0.18,5.63l-4.52,2.82l-4.67-2.81 l-0.11-5.63l4.49-2.82L160.27,77.43z M172.45,96.31l4.53-2.82l4.82,2.81l0.32,5.63l-2.61,1.61l-0.42,0.26l-1.53,0.95l-4.85-2.81 L172.45,96.31z M181.65,84.04l4.78,2.81l0.36,5.63l-3.89,2.44l-0.6,0.38l-4.82-2.81l-0.29-5.63L181.65,84.04z M171.59,101.94 l-4.6,2.82l-2.79-1.62l-2.03-1.18l-0.19-5.63l4.56-2.82l4.78,2.81L171.59,101.94z M165.96,92.5l-2.28,1.41l-2.28,1.41 l-4.74-2.81l-0.15-5.63l4.53-2.82l4.71,2.81L165.96,92.5z M156.42,104.78l-4.78-2.81l-0.11-5.63l4.6-2.82l4.75,2.81l0.18,5.63 l-2.65,1.61l-1.28,0.78L156.42,104.78z M150.41,96.34l0.11,5.63l-4.67,2.82l-2.75-1.63l-0.39-0.23l-1.6-0.95l-0.04-5.63 l4.64-2.82L150.41,96.34z M135.85,111.44l-0.01-5.63l4.71-2.82l4.75,2.81l0.07,5.63l-4.74,2.82L135.85,111.44z M146.51,111.43 l-0.08-5.63l4.67-2.82l4.78,2.81l0.14,5.63l-4.7,2.82L146.51,111.43z M157.16,111.41l-0.15-5.63l4.64-2.82l4.82,2.81l0.21,5.63 l-4.67,2.82L157.16,111.41z M167.82,111.4l-0.22-5.63l2.96-1.81l1.64-1.01l4.85,2.81l0.29,5.63l-4.63,2.82L167.82,111.4z M173.58,120.84l-0.26-5.63l2.32-1.41l2.31-1.41l4.93,2.81l0.32,5.63l-4.67,2.82L173.58,120.84z M183.25,101.93l-0.33-5.63 l4.49-2.82l4.86,2.81l0.39,5.63l-4.52,2.82l-2.45-1.4L183.25,101.93z M188.76,105.74l2.78-1.73l1.75-1.09l4.93,2.81l0.43,5.63 l-4.56,2.82l-4.96-2.81L188.76,105.74z M202.73,96.28l0.47,5.62l-2.24,1.41l-2.25,1.41l-4.92-2.81l-0.4-5.63l4.46-2.82 L202.73,96.28z M191.34,83.02l-4.42,2.82l-4.78-2.81l-0.33-5.63l4.38-2.82l4.75,2.81L191.34,83.02z M170.75,83.04l-4.49,2.82 l-4.71-2.81l-0.19-5.63l4.46-2.82l4.68,2.81L170.75,83.04z M155.06,73.61l-4.49,2.82l-4.6-2.81l-0.08-5.63l4.46-2.82l4.57,2.81 L155.06,73.61z M150.05,77.43l0.11,5.63l-4.56,2.82l-4.63-2.81l-0.04-5.63l4.53-2.82L150.05,77.43z M139.83,77.44l0.04,5.63 l-4.6,2.82l-4.6-2.81l0.03-5.63l4.56-2.82L139.83,77.44z M129.48,96.36l-0.04,5.63l-3.47,2.07l-1.27,0.76l-1.45-0.87l-3.22-1.94 l0.1-5.63l4.71-2.82L129.48,96.36z M87.63,96.41l-0.32,5.64l-2.31,1.34l-2.57,1.49l-4.53-2.81l0.39-5.64l4.85-2.82L87.63,96.41z M77.16,96.42l-0.4,5.64l-4.92,2.83l-2.25-1.41l-2.24-1.41l0.46-5.64l4.89-2.82L77.16,96.42z M73.34,92.6l0.42-5.64l4.82-2.82 L83,86.96l-0.36,5.64L80.22,94l-2.43,1.41L73.34,92.6z M78.49,77.5l-0.4,5.64l-4.81,2.82l-4.38-2.81l0.46-5.64l4.78-2.82 L78.49,77.5z M71.21,105.9l-0.43,5.64l-4.99,2.82l-4.53-2.81l0.5-5.64l4.96-2.83L71.21,105.9z M65.81,121.01l0.46-5.64 l4.99-2.82l4.57,2.81l-0.4,5.64l-5.03,2.83L65.81,121.01z M71.91,111.53l0.42-5.64l4.92-2.83l4.53,2.81l-0.36,5.64l-4.95,2.82 L71.91,111.53z M76.59,120.99l0.39-5.64l4.96-2.82l4.6,2.81l-0.32,5.64l-4.99,2.82L76.59,120.99z M82.57,111.52l0.35-5.64 l2.86-1.65l2.03-1.17l4.57,2.81l-0.29,5.64l-4.92,2.82L82.57,111.52z M87.68,115.34l4.92-2.82l2.32,1.41l2.32,1.4l-0.25,5.63 l-4.96,2.82l-4.67-2.81L87.68,115.34z M93.23,111.5l0.28-5.64l4.85-2.82l4.6,2.81l-0.22,5.63l-4.88,2.82L93.23,111.5z M109.5,84.11l4.53,2.81l-0.14,5.63l-4.74,2.82l-4.56-2.81l0.21-5.63L109.5,84.11z M108.56,96.39l-0.18,5.63l-2.28,1.34 l-2.54,1.49l-4.6-2.81l0.24-5.63l4.78-2.82L108.56,96.39z M98.14,120.96l0.24-5.63l2.45-1.41l2.44-1.41l4.68,2.81l-0.18,5.63 l-4.92,2.82L98.14,120.96z M103.88,111.49l0.21-5.63l2.41-1.41l2.4-1.41l3.6,2.18l1.04,0.63l-0.14,5.63l-4.85,2.82 L103.88,111.49z M108.92,120.94l0.17-5.63l4.85-2.82l2.35,1.4l2.36,1.4l-0.11,5.63l-4.88,2.82L108.92,120.94z M114.54,111.47 l0.14-5.63l4.78-2.82l4.67,2.81l-0.07,5.63l-4.81,2.82L114.54,111.47z M124.3,92.55l-2.35,1.41l-2.36,1.41l-4.6-2.81l0.14-5.63 l4.67-2.82l4.57,2.81L124.3,92.55z M119.02,96.38l-0.11,5.63l-4.78,2.82l-0.59-0.36l-4.04-2.45l0.17-5.63l4.74-2.82 L119.02,96.38z M109.16,77.47l-0.18,5.63l-4.7,2.82l-4.49-2.81l0.24-5.63l4.67-2.82L109.16,77.47z M99.19,84.12l4.5,2.81 l-0.22,5.63l-2.38,1.41l-2.39,1.41l-4.53-2.81l0.28-5.64L99.19,84.12z M98.09,96.4l-0.25,5.63l-4.85,2.82l-2.29-1.41l-2.28-1.41 l0.32-5.64l4.81-2.82L98.09,96.4z M93.05,92.58l-4.81,2.82l-4.49-2.81l0.35-5.64l4.78-2.82l4.46,2.81L93.05,92.58z M88.39,83.12 l-4.78,2.82l-4.42-2.81l0.39-5.64l4.74-2.82l4.39,2.81L88.39,83.12z M84.21,68.03l-0.36,5.63l-4.74,2.82l-4.35-2.82l0.42-5.64 l4.71-2.82L84.21,68.03z M72.66,86.97l-0.43,5.64l-4.88,2.82l-2.21-1.41l-2.21-1.41l0.5-5.64l4.85-2.82L72.66,86.97z M66.7,96.44l-0.47,5.64l-2.47,1.41l-2.48,1.41l-4.46-2.81l0.53-5.64l4.92-2.82L66.7,96.44z M61.81,92.61l-2.46,1.41l-2.46,1.41 l-4.38-2.81l0.57-5.64l4.89-2.82l4.35,2.81L61.81,92.61z M56.24,96.45l-0.54,5.64l-1.33,0.76l-3.66,2.07l-2.21-1.41l-2.21-1.41 l0.6-5.64l4.96-2.82L56.24,96.45z M44.86,115.4l5.07-2.83l4.5,2.81l-0.54,5.64l-5.1,2.83l-4.53-2.81L44.86,115.4z M50.6,111.56 l0.57-5.64l5-2.83l4.46,2.81l-0.5,5.64l-5.03,2.83L50.6,111.56z M55.57,115.38l5.03-2.83l4.53,2.81l-0.47,5.64l-5.06,2.83 l-4.56-2.81L55.57,115.38z M60.09,124.84l5.07-2.83l4.6,2.81l-0.43,5.64l-5.1,2.83l-4.64-2.81L60.09,124.84z M64.27,139.94 l0.46-5.64l5.1-2.83l4.68,2.81l-0.4,5.64l-5.14,2.83L64.27,139.94z M70.49,130.46l0.42-5.64l5.03-2.83l4.64,2.81l-0.36,5.64 l-5.06,2.83L70.49,130.46z M75.29,139.92l0.39-5.64l5.07-2.83l4.71,2.81l-0.32,5.63l-5.1,2.83L75.29,139.92z M81.39,130.44 l0.35-5.64l5-2.82l4.67,2.81l-0.29,5.64l-5.03,2.83L81.39,130.44z M86.62,134.26l5.03-2.83l4.75,2.81l-0.25,5.63l-5.06,2.83 l-4.78-2.81L86.62,134.26z M92.29,130.43l0.28-5.64l4.96-2.82l4.71,2.81l-0.22,5.63l-4.99,2.83L92.29,130.43z M97.32,139.88 l0.24-5.63l4.99-2.83l4.78,2.81l-0.18,5.63l-5.03,2.83L97.32,139.88z M103.18,130.41l0.21-5.63l4.92-2.82l4.75,2.81l-0.14,5.63 l-4.95,2.83L103.18,130.41z M114.22,124.76l4.89-2.82l4.78,2.81l-0.07,5.63l-4.92,2.83l-4.82-2.81L114.22,124.76z M119.7,120.92 l0.1-5.63l2.41-1.41l2.4-1.41l4.75,2.81l-0.04,5.63l-4.85,2.82L119.7,120.92z M125.19,111.46l0.06-5.63L130,103l4.71,2.81 l0,5.63l-4.78,2.82L125.19,111.46z M130.5,115.28l4.78-2.82l4.78,2.81l0.04,5.63l-4.81,2.82l-4.81-2.81L130.5,115.28z M135.87,130.35l-0.01-5.63l4.82-2.82l4.85,2.81l0.07,5.63l-4.85,2.82L135.87,130.35z M141.35,134.17l4.85-2.82l4.93,2.81 l0.11,5.63l-4.88,2.82l-4.96-2.81L141.35,134.17z M146.69,124.71l4.78-2.82l4.89,2.81l0.14,5.63l-4.81,2.82l-4.92-2.81 L146.69,124.71z M157.41,142.59l-4.99-2.81l-0.11-5.63l4.81-2.82l4.96,2.81l0.18,5.63L157.41,142.59z M157.67,130.32l-0.15-5.63 l4.74-2.82l4.93,2.81l0.21,5.63l-4.77,2.82L157.67,130.32z M168.57,130.3l-0.22-5.63l4.71-2.82l4.96,2.81l0.29,5.63l-4.74,2.82 L168.57,130.3z M174.45,139.74l-0.26-5.63l4.74-2.82l5.03,2.81l0.32,5.63l-4.78,2.82L174.45,139.74z M184.36,120.83l-0.33-5.63 l4.6-2.82l2.48,1.4l2.49,1.4l0.39,5.63l-4.63,2.82L184.36,120.83z M189.99,124.64l4.64-2.82l5.03,2.8l0.43,5.63l-4.67,2.82 l-5.07-2.81L189.99,124.64z M199.79,111.36l-0.44-5.63l4.49-2.82l4.96,2.81l0.5,5.62l-4.52,2.82L199.79,111.36z M205.44,115.17 l4.53-2.82l5.03,2.8l0.54,5.62l-4.56,2.82l-5.07-2.8L205.44,115.17z M210.44,111.34l-0.51-5.62l4.46-2.82l5,2.81l0.57,5.62 l-4.49,2.82L210.44,111.34z M216.14,115.15l4.49-2.82l5.07,2.8l0.61,5.62l-4.52,2.82l-5.1-2.8L216.14,115.15z M222.47,124.59 l4.53-2.82l5.14,2.8l0.65,5.62l-4.56,2.82l-5.17-2.8L222.47,124.59z M239.16,133l-5.21-2.8l-0.65-5.62l4.49-2.82l5.18,2.8 l0.72,5.62L239.16,133z M238.24,120.74l-0.69-5.62l4.42-2.82l5.14,2.8l0.75,5.62l-4.45,2.82L238.24,120.74z M235.93,101.86 l-0.69-5.62l4.31-2.82l5.03,2.8l0.75,5.62l-2.17,1.41l-2.18,1.41L235.93,101.86z M233.61,82.98l-0.69-5.62l4.2-2.82l4.93,2.81 l0.75,5.62l-4.24,2.81L233.61,82.98z M231.3,64.1l-0.69-5.62l4.1-2.81l4.82,2.81l0.75,5.62l-4.13,2.81L231.3,64.1z M233.33,49.04l0.72,5.62l-4.09,2.81l-4.78-2.81l-0.65-5.62l4.06-2.81L233.33,49.04z M229.54,58.48l0.68,5.62l-4.17,2.81 l-3.53-2.06l-1.29-0.75l-0.62-5.62l4.13-2.81L229.54,58.48z M221.61,77.37l0.61,5.62l-4.31,2.82L213.02,83l-0.55-5.62l4.28-2.82 L221.61,77.37z M216.11,73.56l-4.27,2.82l-4.82-2.81l-0.51-5.62l4.24-2.82l4.78,2.81L216.11,73.56z M211.39,77.38l0.54,5.62 l-4.35,2.82l-4.85-2.81l-0.47-5.62l4.31-2.82L211.39,77.38z M205.93,73.56l-4.31,2.82l-4.78-2.81l-0.44-5.62l4.28-2.82 l4.75,2.81L205.93,73.56z M201.16,77.39l0.47,5.62l-4.38,2.82l-4.81-2.81l-0.4-5.63l4.35-2.82L201.16,77.39z M190.01,64.13 l-4.31,2.82l-4.67-2.81l-0.33-5.63l4.28-2.82l4.64,2.81L190.01,64.13z M175.12,67.96l0.29,5.63L171,76.41l-4.67-2.81l-0.22-5.63 l4.39-2.82L175.12,67.96z M162.05,47.66l2.25,1.41l0.21,5.63l-4.34,2.82l-4.53-2.81l-0.15-5.63l4.31-2.82L162.05,47.66z M159.67,58.52l0.18,5.63l-4.42,2.82l-3.34-2.06l-1.22-0.75l-0.11-5.63l4.38-2.82L159.67,58.52z M149.98,46.26l4.46,2.81 l0.14,5.63l-4.38,2.82l-4.49-2.81l-0.08-5.63L149.98,46.26z M149.69,58.53l0.11,5.63l-4.45,2.82l-4.53-2.81l-0.04-5.63 l4.42-2.82L149.69,58.53z M139.71,58.53l0.04,5.63l-4.49,2.82l-4.49-2.81l0.03-5.63l4.46-2.82L139.71,58.53z M129.6,77.45 l-0.04,5.63l-4.63,2.82l-4.56-2.81l0.1-5.63l4.6-2.82L129.6,77.45z M124.54,73.63l-4.6,2.82l-4.49-2.81l0.14-5.63l4.56-2.82 l4.46,2.81L124.54,73.63z M119.38,77.46l-0.11,5.63l-4.67,2.82l-4.53-2.81l0.17-5.63l4.64-2.82L119.38,77.46z M109.76,58.55 l-0.18,5.63l-4.6,2.82l-4.38-2.81l0.24-5.63l4.56-2.82L109.76,58.55z M98.94,77.48l-0.25,5.63l-4.74,2.82l-4.46-2.81l0.32-5.64 l4.71-2.82L98.94,77.48z M89.48,64.2l-4.67,2.82L80.5,64.2l0.39-5.64l4.64-2.82l4.28,2.81L89.48,64.2z M85.41,49.1l-0.36,5.64 l-4.63,2.82l-4.24-2.82l0.42-5.64l4.6-2.82L85.41,49.1z M80.75,45.27l-4.6,2.82l-4.17-2.82l0.46-5.64l4.56-2.82l4.14,2.82 L80.75,45.27z M68.27,77.5l-0.47,5.64l-4.85,2.82l-4.35-2.81l0.53-5.64l4.81-2.82L68.27,77.5z M63.5,73.68l-4.81,2.82 l-4.28-2.82l0.57-5.64l4.78-2.82L64,68.04L63.5,73.68z M58.05,77.51l-0.54,5.64l-4.88,2.82l-4.31-2.81l0.6-5.64l4.85-2.82 L58.05,77.51z M47.82,77.52l-0.61,5.64l-4.92,2.82l-4.28-2.82l0.67-5.64l4.89-2.82L47.82,77.52z M45.77,96.46l-0.61,5.64 l-2.51,1.41l-2.52,1.41l-4.38-2.81l0.67-5.64l4.99-2.82L45.77,96.46z M39.26,112.59l4.46,2.81l-0.61,5.64l-5.14,2.83l-4.49-2.81 l0.67-5.64L39.26,112.59z M41.67,134.34l-0.61,5.64l-5.24,2.83l-4.6-2.81l0.67-5.64l5.21-2.83L41.67,134.34z M37.8,130.52 l0.64-5.64l5.14-2.83l4.53,2.81l-0.57,5.64l-5.17,2.83L37.8,130.52z M48.7,130.5l0.57-5.64l5.1-2.83l4.57,2.81l-0.5,5.64 l-5.13,2.83L48.7,130.5z M53.78,134.32l5.14-2.83l4.64,2.81l-0.47,5.64l-5.17,2.83l-4.67-2.81L53.78,134.32z M58.43,143.78 l5.17-2.83l4.71,2.81l-0.43,5.64l-5.21,2.83l-4.74-2.81L58.43,143.78z M62.73,158.87l0.46-5.64l5.21-2.83l4.78,2.81l-0.4,5.64 l-5.24,2.83L62.73,158.87z M69.07,149.39l0.42-5.64l5.14-2.83l4.75,2.81l-0.36,5.64l-5.17,2.83L69.07,149.39z M73.99,158.85 l0.39-5.64l5.17-2.83l4.82,2.81l-0.32,5.64l-5.21,2.83L73.99,158.85z M80.21,149.37l0.35-5.64l5.1-2.83l4.78,2.81l-0.29,5.64 l-5.13,2.83L80.21,149.37z M85.56,153.19l5.14-2.83l4.86,2.81l-0.25,5.63l-5.17,2.83l-4.89-2.81L85.56,153.19z M91.34,149.35 l0.28-5.64l5.07-2.83l4.82,2.81l-0.22,5.63l-5.1,2.83L91.34,149.35z M96.5,158.8l0.24-5.63l5.1-2.83l4.89,2.81l-0.18,5.63 l-5.14,2.83L96.5,158.8z M102.48,149.33l0.21-5.63l5.03-2.83l4.85,2.81l-0.14,5.63l-5.06,2.83L102.48,149.33z M108.34,139.86 l0.17-5.63l4.96-2.83l4.82,2.81l-0.11,5.63l-4.99,2.83L108.34,139.86z M119.46,134.21l4.92-2.82l4.86,2.81l-0.04,5.63 l-4.96,2.83l-4.89-2.81L119.46,134.21z M125.04,124.74l4.85-2.82l4.82,2.81l0,5.63l-4.88,2.82l-4.85-2.81L125.04,124.74z M130.41,134.19l4.89-2.82l3.58,2.06l1.31,0.75l0.04,5.63l-4.92,2.82l-4.92-2.81L130.41,134.19z M135.9,149.27l-0.01-5.63 l4.92-2.82l4.96,2.81l0.07,5.63l-4.95,2.82L135.9,149.27z M147.04,149.25l-0.08-5.63l4.89-2.82l5,2.81l0.14,5.63l-4.92,2.82 L147.04,149.25z M157.9,161.49l-5.1-2.8l-0.11-5.63l4.92-2.82l5.07,2.8l0.18,5.63L157.9,161.49z M158.18,149.22l-0.15-5.63 l4.85-2.82l5.03,2.81l0.21,5.63l-4.88,2.82L158.18,149.22z M169.2,161.47l-5.14-2.8l-0.19-5.63l4.89-2.82l5.11,2.8l0.25,5.63 L169.2,161.47z M169.31,149.2l-0.22-5.63l4.82-2.82l5.07,2.81l0.29,5.63l-4.85,2.82L169.31,149.2z M175.32,158.64l-0.26-5.63 l4.85-2.82l5.14,2.8l0.32,5.63l-4.88,2.82L175.32,158.64z M185.47,139.72l-0.33-5.63l4.71-2.82l5.07,2.81l0.39,5.62l-4.74,2.82 L185.47,139.72z M191.22,143.53l4.74-2.82l5.14,2.8l0.43,5.63l-4.77,2.82l-5.17-2.8L191.22,143.53z M196.48,139.7l-0.4-5.62 l4.67-2.82l5.11,2.8l0.47,5.62l-4.7,2.82L196.48,139.7z M201.26,130.25l-0.44-5.63l4.6-2.82l5.07,2.8l0.5,5.62l-4.63,2.82 l-3.74-2.05L201.26,130.25z M217.29,133.03l-3.26-1.78l-1.88-1.03l-0.51-5.62l4.56-2.82l5.11,2.8l0.57,5.62L217.29,133.03z M224.42,143.47l4.64-2.82l5.25,2.8l0.65,5.62l-4.67,2.82l-5.28-2.8L224.42,143.47z M231.61,158.53l-0.62-5.62l4.67-2.82 l5.32,2.8l0.68,5.62l-4.7,2.82L231.61,158.53z M236.14,149.07l-0.65-5.62l4.6-2.82l5.28,2.8l0.72,5.62l-4.63,2.82L236.14,149.07 z M240.56,139.62l-0.69-5.62l4.53-2.82l5.25,2.8l0.75,5.62l-4.56,2.82L240.56,139.62z M244.85,130.17l-0.73-5.62l4.46-2.82 l5.21,2.8l0.79,5.62l-4.49,2.82L244.85,130.17z M242.41,111.3l-0.73-5.62l4.35-2.82l5.11,2.8l0.79,5.62l-4.38,2.82L242.41,111.3 z M242.49,93.82l-2.51-1.4l-0.73-5.62l4.24-2.81l5,2.81l0.79,5.62l-4.27,2.82L242.49,93.82z M237.54,73.54l-0.72-5.62l4.13-2.81 l4.89,2.81l0.79,5.62l-4.16,2.81L237.54,73.54z M235.11,54.66l-0.73-5.62l4.03-2.81l4.78,2.81l0.79,5.62l-4.06,2.81 L235.11,54.66z M231.64,35.78l-3.99,2.81l-4.67-2.81l-0.65-5.62l3.95-2.81l4.64,2.81L231.64,35.78z M227.25,39.6l0.68,5.62 l-4.06,2.81l-4.71-2.81l-0.62-5.62l4.02-2.81L227.25,39.6z M223.47,49.04l0.65,5.62l-4.13,2.81l-4.74-2.81l-0.58-5.62l4.1-2.81 L223.47,49.04z M219.56,58.49l0.61,5.62l-4.2,2.82l-4.78-2.81l-0.55-5.62l4.17-2.81L219.56,58.49z M214.18,54.67l-4.16,2.81 l-4.71-2.81l-0.51-5.62l4.13-2.81l4.67,2.81L214.18,54.67z M209.58,58.49l0.54,5.62l-4.24,2.82l-4.74-2.81l-0.47-5.62l4.2-2.81 L209.58,58.49z M204.25,54.68l-4.2,2.81l-4.67-2.81l-0.44-5.63l4.17-2.81l4.64,2.81L204.25,54.68z M199.6,58.5l0.47,5.62 l-4.27,2.82l-4.71-2.81l-0.4-5.63l4.24-2.81L199.6,58.5z M183.18,35.79l-4.16,2.81l-4.49-2.81l-0.29-5.63l4.13-2.81l4.46,2.81 L183.18,35.79z M174.16,49.06l0.29,5.63l-4.31,2.82l-4.56-2.81l-0.22-5.63l2.14-1.41l2.13-1.41L174.16,49.06z M154.1,35.8 l-4.27,2.82l-4.38-2.81l-0.08-5.63l4.24-2.82l4.35,2.82L154.1,35.8z M149.33,39.62l0.11,5.63l-4.35,2.82l-4.42-2.81l-0.04-5.63 l4.31-2.82L149.33,39.62z M139.59,39.62l0.04,5.63l-4.38,2.82l-4.38-2.81l0.03-5.63l4.35-2.82L139.59,39.62z M125.91,49.08 l4.42-2.82l4.39,2.81l0,5.63l-4.45,2.82l-4.42-2.81L125.91,49.08z M129.73,58.54l-0.04,5.63l-4.52,2.82l-4.46-2.81l0.1-5.63 l4.49-2.82L129.73,58.54z M124.78,54.72l-4.49,2.82l-4.38-2.81l0.14-5.63l2.23-1.41l2.22-1.41l4.35,2.81L124.78,54.72z M119.75,58.54l-0.11,5.63L115.08,67l-4.42-2.81l0.17-5.63l4.53-2.82L119.75,58.54z M104.16,38.06l1.96-1.24l4.24,2.82 l-0.18,5.63l-4.49,2.82l-4.28-2.81l0.24-5.63L104.16,38.06z M99.78,58.55l-0.25,5.63l-4.63,2.82l-4.35-2.82l0.32-5.64l4.6-2.82 L99.78,58.55z M94.99,54.73l-4.6,2.82l-4.28-2.81l0.35-5.64l4.56-2.82l2.12,1.41l2.13,1.41L94.99,54.73z M86.26,35.81 l-4.52,2.82l-4.13-2.82l0.42-5.64l4.49-2.82l4.1,2.82L86.26,35.81z M75.55,49.1l-0.43,5.64l-4.67,2.82l-4.21-2.82l0.5-5.64 l4.64-2.82L75.55,49.1z M69.84,58.57l-0.47,5.64l-4.74,2.82l-4.24-2.82l0.53-5.64l4.71-2.82L69.84,58.57z M65.19,54.75 l-4.7,2.82l-4.17-2.82l0.57-5.64l4.67-2.82l4.14,2.82L65.19,54.75z M59.86,58.58l-0.54,5.64l-4.78,2.82l-4.2-2.82l0.6-5.64 l4.74-2.82L59.86,58.58z M49.87,58.58l-0.61,5.64l-4.81,2.82l-4.17-2.82l0.67-5.64l4.78-2.82L49.87,58.58z M45.32,54.76 l-4.78,2.82l-4.1-2.82l0.71-5.64l4.74-2.82l4.06,2.82L45.32,54.76z M43.8,68.06l-0.65,5.64l-4.88,2.82l-4.21-2.82l0.71-5.64 l4.85-2.82L43.8,68.06z M41.63,87l-0.65,5.64l-2.49,1.41l-2.5,1.41l-4.31-2.81l0.71-5.64l4.96-2.82L41.63,87z M39.45,105.94 l-0.65,5.64l-5.1,2.83l-4.42-2.81l0.71-5.64l5.07-2.83L39.45,105.94z M37.28,124.88l-0.65,5.64l-5.21,2.83l-4.53-2.81l0.71-5.64 l5.17-2.83L37.28,124.88z M35.11,143.82l-0.65,5.64l-5.31,2.83l-4.64-2.81l0.71-5.64l5.28-2.83L35.11,143.82z M29.63,153.3 l5.32-2.83l4.68,2.81l-0.61,5.64l-5.35,2.83l-4.71-2.81L29.63,153.3z M40.81,153.28l5.28-2.83l4.71,2.81l-0.54,5.64l-5.31,2.83 l-4.74-2.81L40.81,153.28z M46.79,149.44l0.57-5.64l5.21-2.83l4.67,2.81l-0.5,5.64l-5.24,2.83L46.79,149.44z M52,153.26 l5.25-2.83l4.75,2.81l-0.47,5.64l-5.28,2.83l-4.78-2.81L52,153.26z M61.19,177.8l0.46-5.64l5.32-2.83l4.89,2.81l-0.4,5.64 l-5.35,2.83L61.19,177.8z M67.65,168.32l0.42-5.64l5.25-2.83l4.85,2.81l-0.36,5.64l-5.28,2.83L67.65,168.32z M72.69,177.78 l0.39-5.64l5.28-2.83l4.93,2.81l-0.32,5.64l-5.31,2.83L72.69,177.78z M83.95,171.11l-4.92-2.81l0.35-5.64l5.21-2.83l4.89,2.81 l-0.29,5.64L83.95,171.11z M90.4,168.28l0.28-5.64l5.17-2.83l4.93,2.81l-0.22,5.63l-5.21,2.83L90.4,168.28z M95.69,177.73 l0.24-5.63l5.21-2.83l5,2.81l-0.18,5.63l-5.24,2.83L95.69,177.73z M101.78,168.25l0.21-5.63l5.14-2.83l4.96,2.81l-0.14,5.63 l-5.17,2.83L101.78,168.25z M113.62,149.31l0.14-5.63l1.83-1.03l3.16-1.79l4.89,2.81l-0.07,5.63l-5.03,2.83L113.62,149.31z M119.12,153.12l5.03-2.83l4.96,2.81l-0.04,5.63l-5.06,2.83l-4.99-2.81L119.12,153.12z M124.76,149.29l0.06-5.63l4.96-2.83 l4.93,2.81l0,5.63l-4.99,2.82L124.76,149.29z M130.31,153.1l4.99-2.82l5,2.81l0.04,5.63l-5.03,2.83l-5.03-2.8L130.31,153.1z M135.92,168.18l-0.01-5.63l5.03-2.83l5.07,2.8l0.07,5.63l-5.06,2.83L135.92,168.18z M141.64,171.99l1.74-0.97l1.09-0.61 l2.23-1.25l5.14,2.8l0.11,5.63l-5.1,2.83l-5.17-2.8L141.64,171.99z M147.22,162.52l5-2.82l5.11,2.8l0.14,5.63l-5.03,2.83 l-5.14-2.8L147.22,162.52z M158.68,168.13l-0.15-5.63l4.96-2.82l5.14,2.8l0.21,5.63l-4.99,2.83L158.68,168.13z M169.93,180.37 l-5.24-2.8l-0.19-5.63l1.72-0.97l1.08-0.61l2.2-1.25l5.21,2.8l0.25,5.63L169.93,180.37z M170.06,168.1l-0.22-5.63l4.92-2.82 l5.18,2.8l0.29,5.63l-4.95,2.83L170.06,168.1z M175.93,171.91l4.96-2.83l5.25,2.8l0.32,5.63l-4.99,2.82l-5.28-2.8L175.93,171.91 z M186.58,158.62l-0.33-5.63l4.81-2.82l5.18,2.8l0.39,5.63l-4.85,2.82L186.58,158.62z M192.45,162.43l4.85-2.82l5.25,2.8 l0.43,5.63l-4.88,2.82l-5.28-2.8L192.45,162.43z M197.84,158.6l-0.4-5.63l4.78-2.82l5.21,2.8l0.47,5.62l-4.81,2.82L197.84,158.6 z M202.73,149.14l-0.44-5.63l4.71-2.82l5.18,2.8l0.5,5.62l-4.74,2.82L202.73,149.14z M208.62,152.95l4.74-2.82l5.25,2.8 l0.54,5.62l-4.78,2.82l-5.28-2.8L208.62,152.95z M213.87,149.12l-0.51-5.62l4.67-2.82l5.21,2.8l0.57,5.62l-4.7,2.82 L213.87,149.12z M219.81,152.93l4.71-2.82l5.29,2.8l0.61,5.62l-4.74,2.82l-5.32-2.8L219.81,152.93z M238.34,167.96l-0.65-5.62 l4.71-2.82l5.39,2.8l0.72,5.62l-4.74,2.82L238.34,167.96z M242.87,158.5l-0.69-5.62l4.64-2.82l5.36,2.8l0.75,5.62l-4.67,2.82 L242.87,158.5z M247.28,149.05l-0.73-5.62l4.56-2.82l5.32,2.8l0.79,5.62l-4.6,2.82L247.28,149.05z M253.37,152.86l4.6-2.82 l5.39,2.8l0.83,5.62l-4.63,2.82l-5.42-2.8L253.37,152.86z M251.57,139.6l-0.76-5.62l4.49-2.82l5.29,2.8l0.83,5.62l-4.52,2.82 L251.57,139.6z M249.02,120.73l-0.76-5.62l4.38-2.82l5.18,2.8l0.83,5.62l-4.42,2.82L249.02,120.73z M249.01,103.25l-2.55-1.4 l-0.76-5.62l4.28-2.82l5.07,2.8l0.83,5.62l-4.31,2.82L249.01,103.25z M243.91,82.97l-0.76-5.62l4.17-2.81l4.96,2.81l0.83,5.62 l-4.2,2.81L243.91,82.97z M241.35,64.1l-0.76-5.62l4.06-2.81l4.86,2.81l0.83,5.62l-4.09,2.81L241.35,64.1z M235.86,27.35 l4.67,2.81l0.79,5.62l-3.95,2.81l-4.71-2.81l-0.72-5.62L235.86,27.35z M212.71,30.16l3.99-2.81l4.6,2.81l0.65,5.62l-4.02,2.81 l-4.64-2.81L212.71,30.16z M212.87,36.79l4.64,2.81l0.61,5.62l-4.09,2.81l-4.67-2.81l-0.55-5.62L212.87,36.79z M211.68,30.16 l0.57,5.62l-4.06,2.81l-3.28-2l-1.32-0.81l-0.51-5.62l4.03-2.81L211.68,30.16z M207.77,39.61l0.54,5.62l-4.13,2.81l-4.63-2.81 l-0.47-5.62l4.1-2.81L207.77,39.61z M202.06,30.16l0.5,5.62l-4.09,2.81l-4.56-2.81l-0.44-5.62l4.06-2.81L202.06,30.16z M193.46,36.8l4.57,2.81l0.47,5.62l-4.17,2.81l-4.6-2.81l-0.4-5.63L193.46,36.8z M183.85,30.17l4.1-2.81l4.5,2.81l0.43,5.62 l-4.13,2.81l-4.53-2.81L183.85,30.17z M164.61,30.17l4.17-2.81l3.49,2.22l0.94,0.59l0.29,5.63l-4.2,2.82l-4.46-2.81 L164.61,30.17z M159.19,27.35l4.39,2.81l0.21,5.63l-4.24,2.82l-4.42-2.81l-0.15-5.63L159.19,27.35z M140.02,27.35l4.32,2.82 l0.07,5.63l-4.31,2.82l-4.35-2.82l-0.01-5.63L140.02,27.35z M126.13,30.17l4.31-2.82l4.28,2.82l0,5.63l-4.34,2.82l-4.31-2.82 L126.13,30.17z M125.53,36.81l4.32,2.82l-0.04,5.63l-4.42,2.82l-4.35-2.81l0.1-5.63L125.53,36.81z M125.1,30.17l-0.07,5.63 l-4.38,2.82l-4.28-2.82l0.14-5.63l4.35-2.82L125.1,30.17z M120.11,39.63L120,45.26l-4.45,2.82l-4.31-2.81l0.17-5.63l4.42-2.82 L120.11,39.63z M97.27,30.17l4.42-2.82l3.05,2.06l1.12,0.76l-0.22,5.63l-4.45,2.82l-4.21-2.82L97.27,30.17z M100.63,39.63 l-0.25,5.63l-4.52,2.82l-4.24-2.82l0.32-5.64l4.49-2.82L100.63,39.63z M92.1,27.35l4.14,2.82l-0.29,5.63l-4.49,2.82l-4.17-2.82 l0.35-5.63L92.1,27.35z M68.41,30.17l4.53-2.82L77,30.17l-0.43,5.64l-4.56,2.82l-4.1-2.82L68.41,30.17z M67.3,36.82l4.1,2.82 l-0.47,5.64l-4.63,2.82l-4.13-2.82l0.53-5.64L67.3,36.82z M67.38,30.17l-0.5,5.64l-4.6,2.82l-2.89-2.01l-1.17-0.81l0.57-5.64 l4.56-2.82L67.38,30.17z M61.67,39.64l-0.54,5.64l-4.67,2.82l-4.1-2.82l0.6-5.64l4.64-2.82L61.67,39.64z M49.17,30.17l4.6-2.82 l3.99,2.82l-0.57,5.64l-4.63,2.82l-4.03-2.82L49.17,30.17z M47.9,36.82l4.03,2.82l-0.61,5.64l-4.7,2.82l-4.06-2.82l0.67-5.64 L47.9,36.82z M39.55,30.18l4.64-2.82l3.96,2.82l-0.65,5.64l-4.67,2.82l-3.99-2.82L39.55,30.18z M32.74,45.29l0.75-5.64 l4.71-2.82l3.99,2.82l-0.68,5.64l-4.74,2.82L32.74,45.29z M30.23,64.23l0.75-5.64l4.81-2.82l4.1,2.82l-0.68,5.64l-4.85,2.82 L30.23,64.23z M27.72,83.18l0.75-5.64l4.92-2.83l4.21,2.82l-0.68,5.64L31.96,86L27.72,83.18z M27.38,103.53l-2.17-1.41 l0.75-5.64l5.03-2.83l4.32,2.81l-0.68,5.64l-5.06,2.83L27.38,103.53z M22.71,121.07l0.75-5.64l5.14-2.83l4.42,2.81l-0.68,5.64 l-5.17,2.83L22.71,121.07z M20.2,140.02l0.75-5.64l5.25-2.83l4.53,2.81L30.04,140l-5.28,2.83L20.2,140.02z M17.69,158.96 l0.75-5.64l5.35-2.83l4.64,2.81l-0.68,5.64l-5.39,2.83L17.69,158.96z M25.46,177.89l-5.49,2.83l-4.78-2.81l0.75-5.64l5.46-2.83 l4.75,2.81L25.46,177.89z M22.13,168.42l0.71-5.64l5.39-2.83l4.71,2.81l-0.65,5.64l-5.42,2.83L22.13,168.42z M36.96,177.86 l-5.46,2.83l-4.81-2.81l0.67-5.64l5.42-2.83l4.78,2.81L36.96,177.86z M33.51,168.4l0.64-5.64l5.35-2.83l4.75,2.81l-0.57,5.64 l-5.39,2.83L33.51,168.4z M38.19,177.86l0.6-5.64l5.39-2.83l4.82,2.81l-0.54,5.64l-5.42,2.83L38.19,177.86z M44.89,168.37 l0.57-5.64l5.32-2.83l4.78,2.81l-0.5,5.64l-5.35,2.83L44.89,168.37z M49.69,177.83l0.53-5.64l5.35-2.83l4.86,2.81l-0.47,5.64 l-5.39,2.83L49.69,177.83z M71.22,190.06l-4.99-2.81l0.42-5.64l5.35-2.83l4.96,2.81l-0.36,5.64L71.22,190.06z M94.53,190 l-5.07-2.8l0.28-5.63l4.28-2.29l1.01-0.54l5.03,2.8l-0.22,5.63L94.53,190z M117.46,177.68l-5.21,2.83l-5.07-2.8l0.17-5.63 l5.17-2.83l5.03,2.81L117.46,177.68z M113.16,168.23l0.14-5.63l5.1-2.83l5,2.81l-0.07,5.63l-5.13,2.83L113.16,168.23z M118.69,177.67l0.1-5.63l5.14-2.83l5.07,2.81l-0.04,5.63l-5.17,2.83L118.69,177.67z M124.54,168.2l0.06-5.63l5.07-2.83 l5.03,2.8l0,5.63l-5.1,2.83L124.54,168.2z M130.19,177.65l0.03-5.63l5.1-2.83l5.11,2.8l0.04,5.63l-5.14,2.83L130.19,177.65z M152.81,189.86l-5.25-2.8l-0.08-5.63l5.1-2.83l4.34,2.33l0.87,0.47l0.01,0l0.14,5.63L152.81,189.86z M176.13,189.81l-5.32-2.8 l-0.22-5.63l5.03-2.83l4.4,2.33l0.46,0.24l0.43,0.23l0.29,5.63L176.13,189.81z M187.69,177.52l-0.33-5.63l4.92-2.82l5.29,2.8 l0.39,5.63l-4.96,2.82L187.69,177.52z M199.19,177.49l-0.4-5.63l4.89-2.82l5.32,2.8l0.47,5.62l-4.92,2.82L199.19,177.49z M204.2,168.03l-0.44-5.63l4.82-2.82l5.28,2.8l0.5,5.62l-4.85,2.82L204.2,168.03z M210.69,177.46l-0.47-5.62l4.85-2.82l5.36,2.8 l0.54,5.62l-4.88,2.82L210.69,177.46z M215.58,168l-0.51-5.62l4.78-2.82l5.32,2.8l0.57,5.62l-4.81,2.82L215.58,168z M222.19,177.44l-0.55-5.62l4.81-2.82l5.39,2.8l0.61,5.62l-4.85,2.82L222.19,177.44z M246.07,189.64l-5.53-2.8l-0.65-5.62 l4.82-2.82l5.5,2.8l0.72,5.62L246.07,189.64z M255.46,177.36l-4.78,2.82l-5.5-2.8l-0.69-5.62l4.74-2.82l5.47,2.8L255.46,177.36z M249.72,167.93l-0.73-5.62l4.67-2.82l5.43,2.8l0.79,5.62l-4.7,2.82L249.72,167.93z M256.69,177.36l-0.76-5.62l1.97-1.18 l2.74-1.64l5.5,2.8l0.83,5.62l-4.74,2.82L256.69,177.36z M273.29,181.14l0.86,5.62l-4.77,2.82l-5.61-2.8l-0.8-5.62l2.38-1.41 l2.37-1.41L273.29,181.14z M270.4,162.27l0.86,5.62l-4.67,2.82l-5.5-2.8l-0.8-5.62l4.64-2.82L270.4,162.27z M267.51,143.39 l0.86,5.62l-4.56,2.82l-5.39-2.8l-0.8-5.62l4.53-2.82L267.51,143.39z M264.62,124.52l0.86,5.62l-4.45,2.82l-5.28-2.8l-0.8-5.62 l4.42-2.82L264.62,124.52z M261.73,105.65l0.86,5.62l-4.34,2.82l-5.17-2.8l-0.8-5.62l4.31-2.82L261.73,105.65z M258.83,86.78 l0.86,5.62l-2.11,1.41l-2.12,1.41l-5.07-2.8l-0.8-5.62l4.21-2.81L258.83,86.78z M255.94,67.91l0.86,5.62l-4.13,2.81l-4.96-2.81 l-0.8-5.62l4.1-2.81L255.94,67.91z M253.05,49.03l0.86,5.62l-4.02,2.81l-4.85-2.81l-0.8-5.62l3.99-2.81L253.05,49.03z M247.11,38.59l-4.74-2.81l-0.8-5.62l3.88-2.81l4.71,2.81l0.86,5.62L247.11,38.59z"></path> </g> </g> <g id="XMLID_505_"> <defs> <path id="XMLID_506_" d="M179.15,149.57c4.85-2.27,12.83-7.14,16.39-11.33c11.33,1.93,21.77-0.05,25.99-0.86 c3.44-1.85,6.63-3.81,9.56-5.88c1.22-2.24-2.28-1.46-4.45-2.42c1.21-2.59,2.41-13.74,2.68-18.91l-5.91,3.84 c-2.08,0-4.52,0.68-6.06,1.57c-2.66,1.28-2.8,1.89-7.84,2.82c-0.69-5.31-4.12,2.47-7.79-0.88c2.28-0.51-4.57-19.26,7.46-20.58 c4.97-0.55,9.16,0.96,13.61,2l8.66,2c1.45-5.06,3.56-20.32,4.6-20.32c0,0,15.7,19.6,15.71,19.77c0.04-0.59,0.09-1.18,0.09-1.77 c0-31-49-56.14-109.44-56.14S32.97,67.62,32.97,98.62c0,31,49,56.14,109.44,56.14C159.53,154.76,164.72,153.16,179.15,149.57z M144.92,76.04c0.16-1.12,2.92-4.65,11.57-7.23c9.29-2.77,18.79-3.62,28.69-3.62c25.53,0,53.15,13.18,63.34,26.25 c-0.42-0.33-0.89-0.64-1.45-0.89c-2.75-1.23-11.39-4.11-32.1-4.11c-17.35,0-32.5,2.71-41.85,7.43 c-7.58-2.58-14.83-7.26-20.47-10.98C147.01,79.18,144.85,76.52,144.92,76.04z M105.01,137.08c-14.55,0-33.25,0.56-48.78-8.38 c-0.42-0.24-0.87-0.49-1.34-0.75c-3.47-1.91-9.17-4.84-12.78-11.73c-2.19-4.2-3.86-9.18-3.86-13.5 c0-13.57,10.25-28.86,29.65-38.81c16.22-8.32,39.17-11.79,61.51-13.55c-12.34,3.12-27.08,11.93-33.55,20.04 c-39.03,0.83-48.83,13.67-50.5,29.38c-0.45,4.29,3.09,14.25,6.13,17.63c7.16,7.96,14.17,11.76,25.79,11.76 c16.43,0,19.9-1.2,24.95-3.35c1.39-4.26,2-6.26,2.46-9.02c0.03-0.17,1.29-11.37,1.39-11.55c0.4-0.71,20.94,6.63,22.51,7.27 l0.83,0.33c8.26,3.35,22.08,8.94,22.08,13.2c0,3.73-16.32,11.01-46.24,11.04H105.01z M104.67,99.64 c-5.12,1.29-11.22,2.3-14.86,2.3c-6.13,0-9.28-1.23-10.18-2.38c-0.15-0.19-0.51-0.65-0.19-1.98c1.24-5.15,7.38-8.97,15.53-9.99 C96.74,92.21,100.35,96.23,104.67,99.64z"></path> </defs> <clipPath id="XMLID_00000029760988469885746180000000209745118281783184_"> <use xlink:href="#XMLID_506_" style="overflow:visible;"></use> </clipPath> <g id="XMLID_511_" style="clip-path:url(#XMLID_00000029760988469885746180000000209745118281783184_);"> <radialGradient id="SVGID_00000016058637950569467920000002255813572554203322_" cx="144.7274" cy="108.8756" r="109.3444" gradientTransform="matrix(1 0 0 0.6591 0 37.115)" gradientUnits="userSpaceOnUse"> <stop offset="0.3944" style="stop-color:#818383"></stop> <stop offset="0.8619" style="stop-color:#000000"></stop> </radialGradient> <path style="fill:url(#SVGID_00000016058637950569467920000002255813572554203322_);" d="M249.97,38.02l1.72-1.24l0.36-1.01 l-0.87-5.62l-0.67-1.01l-4.71-2.81h-1.02l-3.88,2.81l-2.34-1.41l-2.33-1.41h-1.02l-1.95,1.41l-1.96,1.41l0,0l-3.4-2.06 l-1.24-0.75h0h-1.02l-3.95,2.81l-2.3-1.41l-2.3-1.41h0h-1.02l-1.99,1.41l-2,1.41l-4.56-2.81h-1.02h0l-4.02,2.81l-2.27-1.41 l-2.26-1.41h-1.02h0l-2.03,1.41l-2.03,1.41l-4.49-2.81h-1.02l-4.09,2.81l-4.46-2.81h-1.02l-2.06,1.41l-2.07,1.41l-4.42-2.81 h-1.02l-4.17,2.81l-4.38-2.81h-1.02l-2.42,1.63l-1.78,1.19l-2.18-1.41l-2.17-1.41h0h-1.02l-2.44,1.63l-1.8,1.19l-1.51-0.98 l-2.8-1.83h0h-1.02h0l-1.77,1.17l-1.09,0.72l-1.41,0.93l-2.14-1.41l-2.13-1.41h-1.02h0l-2.15,1.41l-2.16,1.41l-4.24-2.82h-1.02 l-4.35,2.82l-2.11-1.41l-2.1-1.41h-1.02l-2.19,1.41l-2.19,1.41l-4.17-2.82h-1.02l-4.42,2.82l-2.07-1.41l-2.06-1.41h-1.02 l-2.22,1.41l-2.23,1.41l-2.6-1.79l-1.5-1.03h0h-1.02h0l-4.49,2.82l-2.03-1.41l-2.03-1.41h0h-1.02l-2.26,1.41l-2.27,1.41 l-4.02-2.82h-1.02h0l-4.56,2.82l-2-1.41l-1.99-1.41h-1.02l-2.29,1.41l-2.3,1.41l-3.95-2.82h-1.02l-4.63,2.82l-1.96-1.41 l-1.95-1.41l-0.65,1.01l3.92,2.82l-0.72,5.64l-4.7,2.82l-0.65,1.01l-0.75,5.64l0.39,1.01l4.03,2.82l-0.72,5.64l-4.81,2.82 l-0.67,1.01l-0.75,5.64l0.4,1.01l4.14,2.82l-0.72,5.64l-4.92,2.83l-0.68,1.01l-0.75,5.64l0.41,1.01l4.24,2.82l-0.72,5.64 l-5.03,2.83l-0.69,1.01l-0.75,5.64l0.43,1.01l4.35,2.82l-0.72,5.64l-5.13,2.83l-0.71,1.01l-0.75,5.64l0.44,1.01l4.46,2.81 l-0.72,5.64l-5.24,2.83l-0.72,1.01l-0.75,5.64l0.45,1.01l4.57,2.81l-0.72,5.64l-5.35,2.83l-0.73,1.01l-0.75,5.64l0.47,1.01 l4.67,2.81l-0.72,5.64l-5.46,2.83l-0.74,1.01l-0.75,5.64l0.48,1.01l5.36,3.14l6.16-3.17l5.4,3.14l6.12-3.17l5.44,3.14l6.08-3.17 l5.48,3.14l6.04-3.17l0.79,0.45l4.12,2.35l0.02,0.01l-0.48,6.31l6.19,3.48l6.68-3.51l0.39-6.31l3.75-2l1.56-0.83l0.8,0.45 l2.6,1.46l1.6,0.9l-0.32,6.31l6.28,3.47l6.59-3.51l0.23-6.31l3.15-1.7l2.09-1.13l5.68,3.14l5.84-3.17l5.72,3.14l5.8-3.17 l5.76,3.14l5.76-3.16l5.14,2.78l0.03,0.02l0.08,6.3l6.5,3.47l6.37-3.5l-0.17-6.3l1.32-0.74l3.74-2.09l2.76,1.47l2.49,1.33 l0.24,6.3l6.59,3.47l6.28-3.5l-0.33-6.3l1.31-0.74l3.69-2.09l5.96,3.14l5.55-3.16l6,3.13l5.51-3.16l6.04,3.13l5.47-3.16 l6.08,3.13l5.43-3.16l0.87,0.45l1.73,0.89l2.86,1.46l0.72,6.29l6.86,3.47l6.01-3.5l-0.81-6.29l4.78-2.82l0.88,0.45l4.65,2.35 l0.88,6.29l6.95,3.47l5.92-3.5l-0.97-6.29l-0.77-1.01l-5.57-2.8l-0.83-5.62l4.67-2.82l0.45-1.01l-0.87-5.62l-0.76-1.01 l-5.46-2.8l-0.83-5.62l4.56-2.82l0.44-1.01l-0.87-5.62l-0.75-1.01l-5.35-2.8l-0.83-5.62l4.46-2.82l0.43-1.01l-0.87-5.62 l-0.73-1.01l-5.24-2.8l-0.83-5.62l4.35-2.82l0.41-1.01l-0.87-5.62l-0.72-1.01l-5.14-2.8l-0.83-5.62l4.24-2.81l0.4-1.01 l-0.87-5.62l-0.71-1.01l-5.03-2.8l-0.83-5.62l4.13-2.81l0.39-1.01l-0.87-5.62l-0.69-1.01l-4.92-2.81l-0.83-5.62l4.03-2.81 l0.38-1.01l-0.87-5.62l-0.68-1.01l-4.81-2.81l-0.83-5.62L249.97,38.02z M246.73,39.6l0.83,5.62l-3.99,2.81l-4.78-2.81 l-0.76-5.62l3.95-2.81L246.73,39.6z M243.96,177.39l-4.81,2.82l-5.46-2.8l-0.62-5.62l1.04-0.61l0.96-0.57l2.78-1.65l5.43,2.8 L243.96,177.39z M232.35,170.78l-5.39-2.8l-0.58-5.62l4.74-2.82l5.36,2.8l0.65,5.62L232.35,170.78z M186.69,170.88l-5.25-2.8 l-0.29-5.63l4.89-2.82l5.21,2.8l0.36,5.63L186.69,170.88z M158.39,180.4l-5.21-2.8l-0.11-5.63l5.03-2.83l5.18,2.8l0.18,5.63 L158.39,180.4z M117.82,158.76l-5.1,2.83l-4.96-2.81l0.17-5.63l5.07-2.83l4.93,2.81L117.82,158.76z M89.18,180.56l-4.99-2.81 l0.32-5.64l5.25-2.83l4.96,2.81l-0.25,5.63L89.18,180.56z M61.12,171.16l-4.85-2.81l0.5-5.64l5.28-2.83l4.82,2.81l-0.43,5.64 L61.12,171.16z M35.65,149.46l0.64-5.64l5.25-2.83l4.64,2.81l-0.57,5.64l-5.28,2.83L35.65,149.46z M51.73,46.29l4.1,2.82 l-0.57,5.64l-4.74,2.82l-4.13-2.82l0.64-5.64L51.73,46.29z M84.72,38.06l1.99-1.24l4.17,2.82l-0.32,5.64L86,48.09l-4.2-2.82 l0.39-5.64l1.3-0.81L84.72,38.06z M100.86,46.28l4.28,2.81l-0.22,5.63l-4.56,2.82l-4.31-2.81l0.28-5.64L100.86,46.28z M106.89,30.17l4.39-2.82l4.21,2.82l-0.14,5.63l-4.42,2.82l-4.24-2.82L106.89,30.17z M159.07,39.62l0.18,5.63l-4.31,2.82 l-4.46-2.81l-0.11-5.63l4.28-2.82L159.07,39.62z M161.88,38.44l2.47-1.64l4.46,2.81l0.25,5.63l-4.27,2.81l-4.49-2.81l-0.19-5.63 l1.18-0.78L161.88,38.44z M169.85,39.62l4.2-2.82l4.5,2.81l0.32,5.63l-4.24,2.81l-4.53-2.81L169.85,39.62z M181.33,38.44 l2.43-1.64l4.53,2.81l0.39,5.63l-4.2,2.81l-4.56-2.81l-0.33-5.63L181.33,38.44z M193.88,49.06l0.43,5.63l-4.24,2.81l-4.64-2.81 l-0.37-5.63l2.11-1.41l2.1-1.41L193.88,49.06z M230.53,38.03l1.75-1.24l0,0h0l4.71,2.81l0.75,5.62l-4.02,2.81l-4.74-2.81 l-0.69-5.62l1.15-0.81L230.53,38.03z M223.73,142.47l-5.21-2.8l-0.55-5.62l4.6-2.82l5.18,2.8l0.61,5.62L223.73,142.47z M212.68,142.49l-5.17-2.8l-0.47-5.62l4.64-2.82l5.14,2.8l0.54,5.62l-3.68,2.22L212.68,142.49z M185.59,151.98l-5.14-2.8 l-0.29-5.63l4.78-2.82l5.11,2.8l0.36,5.63L185.59,151.98z M141.54,158.71l-0.04-5.63l4.96-2.82l5.03,2.8l0.11,5.63l-4.99,2.82 L141.54,158.71z M46.87,142.79l-4.63-2.81l0.6-5.64l5.17-2.83l4.6,2.81l-0.54,5.64l-4.1,2.23L46.87,142.79z M49.69,65.23 l4.21,2.82l-0.57,5.64l-4.85,2.82l-4.24-2.82l0.64-5.64L49.69,65.23z M69.82,65.22l4.28,2.82l-0.43,5.64l-4.78,2.82l-4.31-2.82 l0.5-5.64L69.82,65.22z M89.96,65.21l4.35,2.82l-0.29,5.63l-4.7,2.82l-4.38-2.81l0.35-5.63L89.96,65.21z M100.02,65.2l4.39,2.81 l-0.22,5.63l-4.67,2.82l-4.42-2.81l0.28-5.63L100.02,65.2z M110.68,46.27l4.32,2.81l-0.14,5.63l-4.52,2.82l-4.35-2.81l0.21-5.63 L110.68,46.27z M125.69,68l4.53-2.82l4.5,2.81l0,5.63l-4.56,2.82l-4.53-2.81L125.69,68z M135.77,49.08l4.39-2.82l4.42,2.81 l0.07,5.63l-4.42,2.82l-4.46-2.81L135.77,49.08z M169.65,58.52l0.25,5.63l-4.38,2.82l-4.6-2.81l-0.19-5.63l4.35-2.82 L169.65,58.52z M170.72,58.51l4.31-2.82l4.6,2.81l0.32,5.63l-4.35,2.82l-4.64-2.81L170.72,58.51z M179.46,46.25l4.57,2.81 l0.36,5.63l-4.27,2.81l-4.6-2.81l-0.29-5.63L179.46,46.25z M195.33,67.95l0.43,5.62l-4.34,2.82l-4.74-2.81l-0.37-5.62l4.31-2.82 L195.33,67.95z M220.82,65.12l4.82,2.81l0.65,5.62l-4.24,2.82l-4.85-2.81l-0.58-5.62L220.82,65.12z M234.78,142.45l-5.25-2.8 l-0.62-5.62l4.56-2.82l5.21,2.8l0.68,5.62L234.78,142.45z M184.49,133.09l-5.03-2.81l-0.29-5.63l4.67-2.82l5,2.81l0.36,5.63 L184.49,133.09z M168.46,142.57l-5.03-2.81l-0.19-5.63l4.78-2.82l5,2.81l0.25,5.63L168.46,142.57z M39.94,111.58l0.64-5.64 l5.03-2.83l4.42,2.81l-0.57,5.64l-5.06,2.83L39.94,111.58z M47.65,84.17l4.32,2.81l-0.57,5.64l-4.95,2.82l-2.18-1.41l-2.17-1.41 L42.73,87L47.65,84.17z M70.44,64.21l0.46-5.64l4.67-2.82l4.24,2.82l-0.4,5.64l-4.7,2.82l-3.13-2.06L70.44,64.21z M110.09,65.19 l4.42,2.81l-0.14,5.63l-4.63,2.82l-4.46-2.81l0.21-5.63L110.09,65.19z M125.48,86.91l4.64-2.82l4.6,2.81l0,5.63l-4.67,2.82 l-2.32-1.41l-2.31-1.41L125.48,86.91z M135.79,67.99l4.49-2.82l4.53,2.81l0.07,5.63l-4.52,2.82l-4.56-2.81L135.79,67.99z M160.42,65.16l4.6,2.81l0.21,5.63l-4.45,2.82l-4.64-2.81L156,67.98L160.42,65.16z M171.34,84.05l2.37,1.4l2.38,1.4l0.29,5.63 l-4.52,2.82l-2.39-1.4l-2.39-1.4l-0.22-5.63L171.34,84.05z M171.59,77.42l4.42-2.82l4.71,2.81l0.32,5.63l-4.45,2.82l-4.74-2.81 L171.59,77.42z M180.55,65.14l4.67,2.81l0.36,5.63l-4.38,2.82l-4.71-2.81l-0.29-5.63L180.55,65.14z M196.77,86.84l0.43,5.63 l-2.22,1.41l-2.23,1.41l-4.85-2.81l-0.37-5.63l4.42-2.82L196.77,86.84z M235.74,67.92l0.72,5.62l-4.2,2.82l-4.89-2.81 l-0.65-5.62l4.17-2.81L235.74,67.92z M241.27,111.3l-4.42,2.82l-5.1-2.8l-0.65-5.62l4.39-2.82l5.07,2.81L241.27,111.3z M220.52,105.7l4.42-2.82l5.03,2.81l0.65,5.62l-4.45,2.82l-5.07-2.8L220.52,105.7z M230.42,104.68l-2.52-1.4l-2.51-1.4 l-0.62-5.62l4.35-2.82l5,2.81l0.68,5.62L230.42,104.68z M227.46,120.76l-0.62-5.62l4.46-2.82l5.11,2.8l0.68,5.62l-4.49,2.82 L227.46,120.76z M238.86,92.42l-2.15,1.41l-2.16,1.41l-4.99-2.81l-0.65-5.62l4.28-2.82l4.96,2.81L238.86,92.42z M231.83,77.36 l0.68,5.62l-4.27,2.82l-4.92-2.81l-0.62-5.62l4.24-2.82L231.83,77.36z M227.8,86.81l0.65,5.62l-4.34,2.82l-2.48-1.4l-2.48-1.4 l-0.58-5.62l4.31-2.82L227.8,86.81z M223.66,96.25l0.61,5.62l-2.2,1.41l-2.21,1.41l-4.99-2.81l-0.55-5.62l4.38-2.82 L223.66,96.25z M218.03,92.44l-2.19,1.41l-2.19,1.41l-2.47-1.4l-2.46-1.4l-0.51-5.62l4.35-2.82l4.89,2.81L218.03,92.44z M213.19,96.27l0.54,5.62l-1.19,0.76l-3.26,2.06l-2.48-1.4l-2.47-1.4l-0.47-5.62l4.42-2.82L213.19,96.27z M207.62,92.45 l-3.82,2.44l-0.59,0.38l-2.45-1.4l-2.44-1.4l-0.44-5.63l4.39-2.82l4.85,2.81L207.62,92.45z M204.29,115.17l0.47,5.62l-4.6,2.82 l-5.03-2.8l-0.4-5.63l2.29-1.41l2.28-1.41L204.29,115.17z M183.4,114.19l-4.92-2.81l-0.29-5.63l4.56-2.82l4.89,2.81l0.36,5.63 L183.4,114.19z M167.73,123.66l-4.92-2.81l-0.19-5.63l4.67-2.82l2.44,1.4l2.45,1.4l0.25,5.63L167.73,123.66z M156.91,123.68 l-4.89-2.81l-0.11-5.63l4.71-2.82l4.86,2.81l0.18,5.63L156.91,123.68z M141.25,120.89l-0.04-5.63l4.74-2.82l4.82,2.81l0.11,5.63 l-4.78,2.82L141.25,120.89z M134.68,104.45l-4.11-2.45l0.03-5.63l4.67-2.82l4.68,2.81l0.04,5.63l-0.9,0.54l-3.46,2.08l-0.34,0.2 L134.68,104.45z M135.82,86.9l4.6-2.82l4.64,2.81l0.07,5.63l-2.31,1.41l-2.32,1.41l-4.67-2.81L135.82,86.9z M150.73,84.07 l4.67,2.81l0.14,5.63l-4.6,2.82l-2.36-1.4l-2.35-1.4l-0.08-5.63L150.73,84.07z M160.27,77.43l0.18,5.63l-4.52,2.82l-4.67-2.81 l-0.11-5.63l4.49-2.82L160.27,77.43z M172.45,96.31l4.53-2.82l4.82,2.81l0.32,5.63l-2.61,1.61l-0.42,0.26l-1.53,0.95l-4.85-2.81 L172.45,96.31z M181.65,84.04l4.78,2.81l0.36,5.63l-3.89,2.44l-0.6,0.38l-4.82-2.81l-0.29-5.63L181.65,84.04z M171.59,101.94 l-4.6,2.82l-2.79-1.62l-2.03-1.18l-0.19-5.63l4.56-2.82l4.78,2.81L171.59,101.94z M165.96,92.5l-2.28,1.41l-2.28,1.41 l-4.74-2.81l-0.15-5.63l4.53-2.82l4.71,2.81L165.96,92.5z M156.42,104.78l-4.78-2.81l-0.11-5.63l4.6-2.82l4.75,2.81l0.18,5.63 l-2.65,1.61l-1.28,0.78L156.42,104.78z M150.41,96.34l0.11,5.63l-4.67,2.82l-2.75-1.63l-0.39-0.23l-1.6-0.95l-0.04-5.63 l4.64-2.82L150.41,96.34z M135.85,111.44l-0.01-5.63l4.71-2.82l4.75,2.81l0.07,5.63l-4.74,2.82L135.85,111.44z M146.51,111.43 l-0.08-5.63l4.67-2.82l4.78,2.81l0.14,5.63l-4.7,2.82L146.51,111.43z M157.16,111.41l-0.15-5.63l4.64-2.82l4.82,2.81l0.21,5.63 l-4.67,2.82L157.16,111.41z M167.82,111.4l-0.22-5.63l2.96-1.81l1.64-1.01l4.85,2.81l0.29,5.63l-4.63,2.82L167.82,111.4z M173.58,120.84l-0.26-5.63l2.32-1.41l2.31-1.41l4.93,2.81l0.32,5.63l-4.67,2.82L173.58,120.84z M183.25,101.93l-0.33-5.63 l4.49-2.82l4.86,2.81l0.39,5.63l-4.52,2.82l-2.45-1.4L183.25,101.93z M188.76,105.74l2.78-1.73l1.75-1.09l4.93,2.81l0.43,5.63 l-4.56,2.82l-4.96-2.81L188.76,105.74z M202.73,96.28l0.47,5.62l-2.24,1.41l-2.25,1.41l-4.92-2.81l-0.4-5.63l4.46-2.82 L202.73,96.28z M191.34,83.02l-4.42,2.82l-4.78-2.81l-0.33-5.63l4.38-2.82l4.75,2.81L191.34,83.02z M170.75,83.04l-4.49,2.82 l-4.71-2.81l-0.19-5.63l4.46-2.82l4.68,2.81L170.75,83.04z M155.06,73.61l-4.49,2.82l-4.6-2.81l-0.08-5.63l4.46-2.82l4.57,2.81 L155.06,73.61z M150.05,77.43l0.11,5.63l-4.56,2.82l-4.63-2.81l-0.04-5.63l4.53-2.82L150.05,77.43z M139.83,77.44l0.04,5.63 l-4.6,2.82l-4.6-2.81l0.03-5.63l4.56-2.82L139.83,77.44z M129.48,96.36l-0.04,5.63l-3.47,2.07l-1.27,0.76l-1.45-0.87l-3.22-1.94 l0.1-5.63l4.71-2.82L129.48,96.36z M87.63,96.41l-0.32,5.64l-2.31,1.34l-2.57,1.49l-4.53-2.81l0.39-5.64l4.85-2.82L87.63,96.41z M77.16,96.42l-0.4,5.64l-4.92,2.83l-2.25-1.41l-2.24-1.41l0.46-5.64l4.89-2.82L77.16,96.42z M73.34,92.6l0.42-5.64l4.82-2.82 L83,86.96l-0.36,5.64L80.22,94l-2.43,1.41L73.34,92.6z M78.49,77.5l-0.4,5.64l-4.81,2.82l-4.38-2.81l0.46-5.64l4.78-2.82 L78.49,77.5z M71.21,105.9l-0.43,5.64l-4.99,2.82l-4.53-2.81l0.5-5.64l4.96-2.83L71.21,105.9z M65.81,121.01l0.46-5.64 l4.99-2.82l4.57,2.81l-0.4,5.64l-5.03,2.83L65.81,121.01z M71.91,111.53l0.42-5.64l4.92-2.83l4.53,2.81l-0.36,5.64l-4.95,2.82 L71.91,111.53z M76.59,120.99l0.39-5.64l4.96-2.82l4.6,2.81l-0.32,5.64l-4.99,2.82L76.59,120.99z M82.57,111.52l0.35-5.64 l2.86-1.65l2.03-1.17l4.57,2.81l-0.29,5.64l-4.92,2.82L82.57,111.52z M87.68,115.34l4.92-2.82l2.32,1.41l2.32,1.4l-0.25,5.63 l-4.96,2.82l-4.67-2.81L87.68,115.34z M93.23,111.5l0.28-5.64l4.85-2.82l4.6,2.81l-0.22,5.63l-4.88,2.82L93.23,111.5z M109.5,84.11l4.53,2.81l-0.14,5.63l-4.74,2.82l-4.56-2.81l0.21-5.63L109.5,84.11z M108.56,96.39l-0.18,5.63l-2.28,1.34 l-2.54,1.49l-4.6-2.81l0.24-5.63l4.78-2.82L108.56,96.39z M98.14,120.96l0.24-5.63l2.45-1.41l2.44-1.41l4.68,2.81l-0.18,5.63 l-4.92,2.82L98.14,120.96z M103.88,111.49l0.21-5.63l2.41-1.41l2.4-1.41l3.6,2.18l1.04,0.63l-0.14,5.63l-4.85,2.82 L103.88,111.49z M108.92,120.94l0.17-5.63l4.85-2.82l2.35,1.4l2.36,1.4l-0.11,5.63l-4.88,2.82L108.92,120.94z M114.54,111.47 l0.14-5.63l4.78-2.82l4.67,2.81l-0.07,5.63l-4.81,2.82L114.54,111.47z M124.3,92.55l-2.35,1.41l-2.36,1.41l-4.6-2.81l0.14-5.63 l4.67-2.82l4.57,2.81L124.3,92.55z M119.02,96.38l-0.11,5.63l-4.78,2.82l-0.59-0.36l-4.04-2.45l0.17-5.63l4.74-2.82 L119.02,96.38z M109.16,77.47l-0.18,5.63l-4.7,2.82l-4.49-2.81l0.24-5.63l4.67-2.82L109.16,77.47z M99.19,84.12l4.5,2.81 l-0.22,5.63l-2.38,1.41l-2.39,1.41l-4.53-2.81l0.28-5.64L99.19,84.12z M98.09,96.4l-0.25,5.63l-4.85,2.82l-2.29-1.41l-2.28-1.41 l0.32-5.64l4.81-2.82L98.09,96.4z M93.05,92.58l-4.81,2.82l-4.49-2.81l0.35-5.64l4.78-2.82l4.46,2.81L93.05,92.58z M88.39,83.12 l-4.78,2.82l-4.42-2.81l0.39-5.64l4.74-2.82l4.39,2.81L88.39,83.12z M84.21,68.03l-0.36,5.63l-4.74,2.82l-4.35-2.82l0.42-5.64 l4.71-2.82L84.21,68.03z M72.66,86.97l-0.43,5.64l-4.88,2.82l-2.21-1.41l-2.21-1.41l0.5-5.64l4.85-2.82L72.66,86.97z M66.7,96.44l-0.47,5.64l-2.47,1.41l-2.48,1.41l-4.46-2.81l0.53-5.64l4.92-2.82L66.7,96.44z M61.81,92.61l-2.46,1.41l-2.46,1.41 l-4.38-2.81l0.57-5.64l4.89-2.82l4.35,2.81L61.81,92.61z M56.24,96.45l-0.54,5.64l-1.33,0.76l-3.66,2.07l-2.21-1.41l-2.21-1.41 l0.6-5.64l4.96-2.82L56.24,96.45z M44.86,115.4l5.07-2.83l4.5,2.81l-0.54,5.64l-5.1,2.83l-4.53-2.81L44.86,115.4z M50.6,111.56 l0.57-5.64l5-2.83l4.46,2.81l-0.5,5.64l-5.03,2.83L50.6,111.56z M55.57,115.38l5.03-2.83l4.53,2.81l-0.47,5.64l-5.06,2.83 l-4.56-2.81L55.57,115.38z M60.09,124.84l5.07-2.83l4.6,2.81l-0.43,5.64l-5.1,2.83l-4.64-2.81L60.09,124.84z M64.27,139.94 l0.46-5.64l5.1-2.83l4.68,2.81l-0.4,5.64l-5.14,2.83L64.27,139.94z M70.49,130.46l0.42-5.64l5.03-2.83l4.64,2.81l-0.36,5.64 l-5.06,2.83L70.49,130.46z M75.29,139.92l0.39-5.64l5.07-2.83l4.71,2.81l-0.32,5.63l-5.1,2.83L75.29,139.92z M81.39,130.44 l0.35-5.64l5-2.82l4.67,2.81l-0.29,5.64l-5.03,2.83L81.39,130.44z M86.62,134.26l5.03-2.83l4.75,2.81l-0.25,5.63l-5.06,2.83 l-4.78-2.81L86.62,134.26z M92.29,130.43l0.28-5.64l4.96-2.82l4.71,2.81l-0.22,5.63l-4.99,2.83L92.29,130.43z M97.32,139.88 l0.24-5.63l4.99-2.83l4.78,2.81l-0.18,5.63l-5.03,2.83L97.32,139.88z M103.18,130.41l0.21-5.63l4.92-2.82l4.75,2.81l-0.14,5.63 l-4.95,2.83L103.18,130.41z M114.22,124.76l4.89-2.82l4.78,2.81l-0.07,5.63l-4.92,2.83l-4.82-2.81L114.22,124.76z M119.7,120.92 l0.1-5.63l2.41-1.41l2.4-1.41l4.75,2.81l-0.04,5.63l-4.85,2.82L119.7,120.92z M125.19,111.46l0.06-5.63L130,103l4.71,2.81 l0,5.63l-4.78,2.82L125.19,111.46z M130.5,115.28l4.78-2.82l4.78,2.81l0.04,5.63l-4.81,2.82l-4.81-2.81L130.5,115.28z M135.87,130.35l-0.01-5.63l4.82-2.82l4.85,2.81l0.07,5.63l-4.85,2.82L135.87,130.35z M141.35,134.17l4.85-2.82l4.93,2.81 l0.11,5.63l-4.88,2.82l-4.96-2.81L141.35,134.17z M146.69,124.71l4.78-2.82l4.89,2.81l0.14,5.63l-4.81,2.82l-4.92-2.81 L146.69,124.71z M157.41,142.59l-4.99-2.81l-0.11-5.63l4.81-2.82l4.96,2.81l0.18,5.63L157.41,142.59z M157.67,130.32l-0.15-5.63 l4.74-2.82l4.93,2.81l0.21,5.63l-4.77,2.82L157.67,130.32z M168.57,130.3l-0.22-5.63l4.71-2.82l4.96,2.81l0.29,5.63l-4.74,2.82 L168.57,130.3z M174.45,139.74l-0.26-5.63l4.74-2.82l5.03,2.81l0.32,5.63l-4.78,2.82L174.45,139.74z M184.36,120.83l-0.33-5.63 l4.6-2.82l2.48,1.4l2.49,1.4l0.39,5.63l-4.63,2.82L184.36,120.83z M189.99,124.64l4.64-2.82l5.03,2.8l0.43,5.63l-4.67,2.82 l-5.07-2.81L189.99,124.64z M199.79,111.36l-0.44-5.63l4.49-2.82l4.96,2.81l0.5,5.62l-4.52,2.82L199.79,111.36z M205.44,115.17 l4.53-2.82l5.03,2.8l0.54,5.62l-4.56,2.82l-5.07-2.8L205.44,115.17z M210.44,111.34l-0.51-5.62l4.46-2.82l5,2.81l0.57,5.62 l-4.49,2.82L210.44,111.34z M216.14,115.15l4.49-2.82l5.07,2.8l0.61,5.62l-4.52,2.82l-5.1-2.8L216.14,115.15z M222.47,124.59 l4.53-2.82l5.14,2.8l0.65,5.62l-4.56,2.82l-5.17-2.8L222.47,124.59z M239.16,133l-5.21-2.8l-0.65-5.62l4.49-2.82l5.18,2.8 l0.72,5.62L239.16,133z M238.24,120.74l-0.69-5.62l4.42-2.82l5.14,2.8l0.75,5.62l-4.45,2.82L238.24,120.74z M235.93,101.86 l-0.69-5.62l4.31-2.82l5.03,2.8l0.75,5.62l-2.17,1.41l-2.18,1.41L235.93,101.86z M233.61,82.98l-0.69-5.62l4.2-2.82l4.93,2.81 l0.75,5.62l-4.24,2.81L233.61,82.98z M231.3,64.1l-0.69-5.62l4.1-2.81l4.82,2.81l0.75,5.62l-4.13,2.81L231.3,64.1z M233.33,49.04l0.72,5.62l-4.09,2.81l-4.78-2.81l-0.65-5.62l4.06-2.81L233.33,49.04z M229.54,58.48l0.68,5.62l-4.17,2.81 l-3.53-2.06l-1.29-0.75l-0.62-5.62l4.13-2.81L229.54,58.48z M221.61,77.37l0.61,5.62l-4.31,2.82L213.02,83l-0.55-5.62l4.28-2.82 L221.61,77.37z M216.11,73.56l-4.27,2.82l-4.82-2.81l-0.51-5.62l4.24-2.82l4.78,2.81L216.11,73.56z M211.39,77.38l0.54,5.62 l-4.35,2.82l-4.85-2.81l-0.47-5.62l4.31-2.82L211.39,77.38z M205.93,73.56l-4.31,2.82l-4.78-2.81l-0.44-5.62l4.28-2.82 l4.75,2.81L205.93,73.56z M201.16,77.39l0.47,5.62l-4.38,2.82l-4.81-2.81l-0.4-5.63l4.35-2.82L201.16,77.39z M190.01,64.13 l-4.31,2.82l-4.67-2.81l-0.33-5.63l4.28-2.82l4.64,2.81L190.01,64.13z M175.12,67.96l0.29,5.63L171,76.41l-4.67-2.81l-0.22-5.63 l4.39-2.82L175.12,67.96z M162.05,47.66l2.25,1.41l0.21,5.63l-4.34,2.82l-4.53-2.81l-0.15-5.63l4.31-2.82L162.05,47.66z M159.67,58.52l0.18,5.63l-4.42,2.82l-3.34-2.06l-1.22-0.75l-0.11-5.63l4.38-2.82L159.67,58.52z M149.98,46.26l4.46,2.81 l0.14,5.63l-4.38,2.82l-4.49-2.81l-0.08-5.63L149.98,46.26z M149.69,58.53l0.11,5.63l-4.45,2.82l-4.53-2.81l-0.04-5.63 l4.42-2.82L149.69,58.53z M139.71,58.53l0.04,5.63l-4.49,2.82l-4.49-2.81l0.03-5.63l4.46-2.82L139.71,58.53z M129.6,77.45 l-0.04,5.63l-4.63,2.82l-4.56-2.81l0.1-5.63l4.6-2.82L129.6,77.45z M124.54,73.63l-4.6,2.82l-4.49-2.81l0.14-5.63l4.56-2.82 l4.46,2.81L124.54,73.63z M119.38,77.46l-0.11,5.63l-4.67,2.82l-4.53-2.81l0.17-5.63l4.64-2.82L119.38,77.46z M109.76,58.55 l-0.18,5.63l-4.6,2.82l-4.38-2.81l0.24-5.63l4.56-2.82L109.76,58.55z M98.94,77.48l-0.25,5.63l-4.74,2.82l-4.46-2.81l0.32-5.64 l4.71-2.82L98.94,77.48z M89.48,64.2l-4.67,2.82L80.5,64.2l0.39-5.64l4.64-2.82l4.28,2.81L89.48,64.2z M85.41,49.1l-0.36,5.64 l-4.63,2.82l-4.24-2.82l0.42-5.64l4.6-2.82L85.41,49.1z M80.75,45.27l-4.6,2.82l-4.17-2.82l0.46-5.64l4.56-2.82l4.14,2.82 L80.75,45.27z M68.27,77.5l-0.47,5.64l-4.85,2.82l-4.35-2.81l0.53-5.64l4.81-2.82L68.27,77.5z M63.5,73.68l-4.81,2.82 l-4.28-2.82l0.57-5.64l4.78-2.82L64,68.04L63.5,73.68z M58.05,77.51l-0.54,5.64l-4.88,2.82l-4.31-2.81l0.6-5.64l4.85-2.82 L58.05,77.51z M47.82,77.52l-0.61,5.64l-4.92,2.82l-4.28-2.82l0.67-5.64l4.89-2.82L47.82,77.52z M45.77,96.46l-0.61,5.64 l-2.51,1.41l-2.52,1.41l-4.38-2.81l0.67-5.64l4.99-2.82L45.77,96.46z M39.26,112.59l4.46,2.81l-0.61,5.64l-5.14,2.83l-4.49-2.81 l0.67-5.64L39.26,112.59z M41.67,134.34l-0.61,5.64l-5.24,2.83l-4.6-2.81l0.67-5.64l5.21-2.83L41.67,134.34z M37.8,130.52 l0.64-5.64l5.14-2.83l4.53,2.81l-0.57,5.64l-5.17,2.83L37.8,130.52z M48.7,130.5l0.57-5.64l5.1-2.83l4.57,2.81l-0.5,5.64 l-5.13,2.83L48.7,130.5z M53.78,134.32l5.14-2.83l4.64,2.81l-0.47,5.64l-5.17,2.83l-4.67-2.81L53.78,134.32z M58.43,143.78 l5.17-2.83l4.71,2.81l-0.43,5.64l-5.21,2.83l-4.74-2.81L58.43,143.78z M62.73,158.87l0.46-5.64l5.21-2.83l4.78,2.81l-0.4,5.64 l-5.24,2.83L62.73,158.87z M69.07,149.39l0.42-5.64l5.14-2.83l4.75,2.81l-0.36,5.64l-5.17,2.83L69.07,149.39z M73.99,158.85 l0.39-5.64l5.17-2.83l4.82,2.81l-0.32,5.64l-5.21,2.83L73.99,158.85z M80.21,149.37l0.35-5.64l5.1-2.83l4.78,2.81l-0.29,5.64 l-5.13,2.83L80.21,149.37z M85.56,153.19l5.14-2.83l4.86,2.81l-0.25,5.63l-5.17,2.83l-4.89-2.81L85.56,153.19z M91.34,149.35 l0.28-5.64l5.07-2.83l4.82,2.81l-0.22,5.63l-5.1,2.83L91.34,149.35z M96.5,158.8l0.24-5.63l5.1-2.83l4.89,2.81l-0.18,5.63 l-5.14,2.83L96.5,158.8z M102.48,149.33l0.21-5.63l5.03-2.83l4.85,2.81l-0.14,5.63l-5.06,2.83L102.48,149.33z M108.34,139.86 l0.17-5.63l4.96-2.83l4.82,2.81l-0.11,5.63l-4.99,2.83L108.34,139.86z M119.46,134.21l4.92-2.82l4.86,2.81l-0.04,5.63 l-4.96,2.83l-4.89-2.81L119.46,134.21z M125.04,124.74l4.85-2.82l4.82,2.81l0,5.63l-4.88,2.82l-4.85-2.81L125.04,124.74z M130.41,134.19l4.89-2.82l3.58,2.06l1.31,0.75l0.04,5.63l-4.92,2.82l-4.92-2.81L130.41,134.19z M135.9,149.27l-0.01-5.63 l4.92-2.82l4.96,2.81l0.07,5.63l-4.95,2.82L135.9,149.27z M147.04,149.25l-0.08-5.63l4.89-2.82l5,2.81l0.14,5.63l-4.92,2.82 L147.04,149.25z M157.9,161.49l-5.1-2.8l-0.11-5.63l4.92-2.82l5.07,2.8l0.18,5.63L157.9,161.49z M158.18,149.22l-0.15-5.63 l4.85-2.82l5.03,2.81l0.21,5.63l-4.88,2.82L158.18,149.22z M169.2,161.47l-5.14-2.8l-0.19-5.63l4.89-2.82l5.11,2.8l0.25,5.63 L169.2,161.47z M169.31,149.2l-0.22-5.63l4.82-2.82l5.07,2.81l0.29,5.63l-4.85,2.82L169.31,149.2z M175.32,158.64l-0.26-5.63 l4.85-2.82l5.14,2.8l0.32,5.63l-4.88,2.82L175.32,158.64z M185.47,139.72l-0.33-5.63l4.71-2.82l5.07,2.81l0.39,5.62l-4.74,2.82 L185.47,139.72z M191.22,143.53l4.74-2.82l5.14,2.8l0.43,5.63l-4.77,2.82l-5.17-2.8L191.22,143.53z M196.48,139.7l-0.4-5.62 l4.67-2.82l5.11,2.8l0.47,5.62l-4.7,2.82L196.48,139.7z M201.26,130.25l-0.44-5.63l4.6-2.82l5.07,2.8l0.5,5.62l-4.63,2.82 l-3.74-2.05L201.26,130.25z M217.29,133.03l-3.26-1.78l-1.88-1.03l-0.51-5.62l4.56-2.82l5.11,2.8l0.57,5.62L217.29,133.03z M224.42,143.47l4.64-2.82l5.25,2.8l0.65,5.62l-4.67,2.82l-5.28-2.8L224.42,143.47z M231.61,158.53l-0.62-5.62l4.67-2.82 l5.32,2.8l0.68,5.62l-4.7,2.82L231.61,158.53z M236.14,149.07l-0.65-5.62l4.6-2.82l5.28,2.8l0.72,5.62l-4.63,2.82L236.14,149.07 z M240.56,139.62l-0.69-5.62l4.53-2.82l5.25,2.8l0.75,5.62l-4.56,2.82L240.56,139.62z M244.85,130.17l-0.73-5.62l4.46-2.82 l5.21,2.8l0.79,5.62l-4.49,2.82L244.85,130.17z M242.41,111.3l-0.73-5.62l4.35-2.82l5.11,2.8l0.79,5.62l-4.38,2.82L242.41,111.3 z M242.49,93.82l-2.51-1.4l-0.73-5.62l4.24-2.81l5,2.81l0.79,5.62l-4.27,2.82L242.49,93.82z M237.54,73.54l-0.72-5.62l4.13-2.81 l4.89,2.81l0.79,5.62l-4.16,2.81L237.54,73.54z M235.11,54.66l-0.73-5.62l4.03-2.81l4.78,2.81l0.79,5.62l-4.06,2.81 L235.11,54.66z M231.64,35.78l-3.99,2.81l-4.67-2.81l-0.65-5.62l3.95-2.81l4.64,2.81L231.64,35.78z M227.25,39.6l0.68,5.62 l-4.06,2.81l-4.71-2.81l-0.62-5.62l4.02-2.81L227.25,39.6z M223.47,49.04l0.65,5.62l-4.13,2.81l-4.74-2.81l-0.58-5.62l4.1-2.81 L223.47,49.04z M219.56,58.49l0.61,5.62l-4.2,2.82l-4.78-2.81l-0.55-5.62l4.17-2.81L219.56,58.49z M214.18,54.67l-4.16,2.81 l-4.71-2.81l-0.51-5.62l4.13-2.81l4.67,2.81L214.18,54.67z M209.58,58.49l0.54,5.62l-4.24,2.82l-4.74-2.81l-0.47-5.62l4.2-2.81 L209.58,58.49z M204.25,54.68l-4.2,2.81l-4.67-2.81l-0.44-5.63l4.17-2.81l4.64,2.81L204.25,54.68z M199.6,58.5l0.47,5.62 l-4.27,2.82l-4.71-2.81l-0.4-5.63l4.24-2.81L199.6,58.5z M183.18,35.79l-4.16,2.81l-4.49-2.81l-0.29-5.63l4.13-2.81l4.46,2.81 L183.18,35.79z M174.16,49.06l0.29,5.63l-4.31,2.82l-4.56-2.81l-0.22-5.63l2.14-1.41l2.13-1.41L174.16,49.06z M154.1,35.8 l-4.27,2.82l-4.38-2.81l-0.08-5.63l4.24-2.82l4.35,2.82L154.1,35.8z M149.33,39.62l0.11,5.63l-4.35,2.82l-4.42-2.81l-0.04-5.63 l4.31-2.82L149.33,39.62z M139.59,39.62l0.04,5.63l-4.38,2.82l-4.38-2.81l0.03-5.63l4.35-2.82L139.59,39.62z M125.91,49.08 l4.42-2.82l4.39,2.81l0,5.63l-4.45,2.82l-4.42-2.81L125.91,49.08z M129.73,58.54l-0.04,5.63l-4.52,2.82l-4.46-2.81l0.1-5.63 l4.49-2.82L129.73,58.54z M124.78,54.72l-4.49,2.82l-4.38-2.81l0.14-5.63l2.23-1.41l2.22-1.41l4.35,2.81L124.78,54.72z M119.75,58.54l-0.11,5.63L115.08,67l-4.42-2.81l0.17-5.63l4.53-2.82L119.75,58.54z M104.16,38.06l1.96-1.24l4.24,2.82 l-0.18,5.63l-4.49,2.82l-4.28-2.81l0.24-5.63L104.16,38.06z M99.78,58.55l-0.25,5.63l-4.63,2.82l-4.35-2.82l0.32-5.64l4.6-2.82 L99.78,58.55z M94.99,54.73l-4.6,2.82l-4.28-2.81l0.35-5.64l4.56-2.82l2.12,1.41l2.13,1.41L94.99,54.73z M86.26,35.81 l-4.52,2.82l-4.13-2.82l0.42-5.64l4.49-2.82l4.1,2.82L86.26,35.81z M75.55,49.1l-0.43,5.64l-4.67,2.82l-4.21-2.82l0.5-5.64 l4.64-2.82L75.55,49.1z M69.84,58.57l-0.47,5.64l-4.74,2.82l-4.24-2.82l0.53-5.64l4.71-2.82L69.84,58.57z M65.19,54.75 l-4.7,2.82l-4.17-2.82l0.57-5.64l4.67-2.82l4.14,2.82L65.19,54.75z M59.86,58.58l-0.54,5.64l-4.78,2.82l-4.2-2.82l0.6-5.64 l4.74-2.82L59.86,58.58z M49.87,58.58l-0.61,5.64l-4.81,2.82l-4.17-2.82l0.67-5.64l4.78-2.82L49.87,58.58z M45.32,54.76 l-4.78,2.82l-4.1-2.82l0.71-5.64l4.74-2.82l4.06,2.82L45.32,54.76z M43.8,68.06l-0.65,5.64l-4.88,2.82l-4.21-2.82l0.71-5.64 l4.85-2.82L43.8,68.06z M41.63,87l-0.65,5.64l-2.49,1.41l-2.5,1.41l-4.31-2.81l0.71-5.64l4.96-2.82L41.63,87z M39.45,105.94 l-0.65,5.64l-5.1,2.83l-4.42-2.81l0.71-5.64l5.07-2.83L39.45,105.94z M37.28,124.88l-0.65,5.64l-5.21,2.83l-4.53-2.81l0.71-5.64 l5.17-2.83L37.28,124.88z M35.11,143.82l-0.65,5.64l-5.31,2.83l-4.64-2.81l0.71-5.64l5.28-2.83L35.11,143.82z M29.63,153.3 l5.32-2.83l4.68,2.81l-0.61,5.64l-5.35,2.83l-4.71-2.81L29.63,153.3z M40.81,153.28l5.28-2.83l4.71,2.81l-0.54,5.64l-5.31,2.83 l-4.74-2.81L40.81,153.28z M46.79,149.44l0.57-5.64l5.21-2.83l4.67,2.81l-0.5,5.64l-5.24,2.83L46.79,149.44z M52,153.26 l5.25-2.83l4.75,2.81l-0.47,5.64l-5.28,2.83l-4.78-2.81L52,153.26z M61.19,177.8l0.46-5.64l5.32-2.83l4.89,2.81l-0.4,5.64 l-5.35,2.83L61.19,177.8z M67.65,168.32l0.42-5.64l5.25-2.83l4.85,2.81l-0.36,5.64l-5.28,2.83L67.65,168.32z M72.69,177.78 l0.39-5.64l5.28-2.83l4.93,2.81l-0.32,5.64l-5.31,2.83L72.69,177.78z M83.95,171.11l-4.92-2.81l0.35-5.64l5.21-2.83l4.89,2.81 l-0.29,5.64L83.95,171.11z M90.4,168.28l0.28-5.64l5.17-2.83l4.93,2.81l-0.22,5.63l-5.21,2.83L90.4,168.28z M95.69,177.73 l0.24-5.63l5.21-2.83l5,2.81l-0.18,5.63l-5.24,2.83L95.69,177.73z M101.78,168.25l0.21-5.63l5.14-2.83l4.96,2.81l-0.14,5.63 l-5.17,2.83L101.78,168.25z M113.62,149.31l0.14-5.63l1.83-1.03l3.16-1.79l4.89,2.81l-0.07,5.63l-5.03,2.83L113.62,149.31z M119.12,153.12l5.03-2.83l4.96,2.81l-0.04,5.63l-5.06,2.83l-4.99-2.81L119.12,153.12z M124.76,149.29l0.06-5.63l4.96-2.83 l4.93,2.81l0,5.63l-4.99,2.82L124.76,149.29z M130.31,153.1l4.99-2.82l5,2.81l0.04,5.63l-5.03,2.83l-5.03-2.8L130.31,153.1z M135.92,168.18l-0.01-5.63l5.03-2.83l5.07,2.8l0.07,5.63l-5.06,2.83L135.92,168.18z M141.64,171.99l1.74-0.97l1.09-0.61 l2.23-1.25l5.14,2.8l0.11,5.63l-5.1,2.83l-5.17-2.8L141.64,171.99z M147.22,162.52l5-2.82l5.11,2.8l0.14,5.63l-5.03,2.83 l-5.14-2.8L147.22,162.52z M158.68,168.13l-0.15-5.63l4.96-2.82l5.14,2.8l0.21,5.63l-4.99,2.83L158.68,168.13z M169.93,180.37 l-5.24-2.8l-0.19-5.63l1.72-0.97l1.08-0.61l2.2-1.25l5.21,2.8l0.25,5.63L169.93,180.37z M170.06,168.1l-0.22-5.63l4.92-2.82 l5.18,2.8l0.29,5.63l-4.95,2.83L170.06,168.1z M175.93,171.91l4.96-2.83l5.25,2.8l0.32,5.63l-4.99,2.82l-5.28-2.8L175.93,171.91 z M186.58,158.62l-0.33-5.63l4.81-2.82l5.18,2.8l0.39,5.63l-4.85,2.82L186.58,158.62z M192.45,162.43l4.85-2.82l5.25,2.8 l0.43,5.63l-4.88,2.82l-5.28-2.8L192.45,162.43z M197.84,158.6l-0.4-5.63l4.78-2.82l5.21,2.8l0.47,5.62l-4.81,2.82L197.84,158.6 z M202.73,149.14l-0.44-5.63l4.71-2.82l5.18,2.8l0.5,5.62l-4.74,2.82L202.73,149.14z M208.62,152.95l4.74-2.82l5.25,2.8 l0.54,5.62l-4.78,2.82l-5.28-2.8L208.62,152.95z M213.87,149.12l-0.51-5.62l4.67-2.82l5.21,2.8l0.57,5.62l-4.7,2.82 L213.87,149.12z M219.81,152.93l4.71-2.82l5.29,2.8l0.61,5.62l-4.74,2.82l-5.32-2.8L219.81,152.93z M238.34,167.96l-0.65-5.62 l4.71-2.82l5.39,2.8l0.72,5.62l-4.74,2.82L238.34,167.96z M242.87,158.5l-0.69-5.62l4.64-2.82l5.36,2.8l0.75,5.62l-4.67,2.82 L242.87,158.5z M247.28,149.05l-0.73-5.62l4.56-2.82l5.32,2.8l0.79,5.62l-4.6,2.82L247.28,149.05z M253.37,152.86l4.6-2.82 l5.39,2.8l0.83,5.62l-4.63,2.82l-5.42-2.8L253.37,152.86z M251.57,139.6l-0.76-5.62l4.49-2.82l5.29,2.8l0.82,5.62l-4.52,2.82 L251.57,139.6z M249.02,120.73l-0.76-5.62l4.38-2.82l5.18,2.8l0.83,5.62l-4.42,2.82L249.02,120.73z M249.01,103.25l-2.55-1.4 l-0.76-5.62l4.28-2.82l5.07,2.8l0.83,5.62l-4.31,2.82L249.01,103.25z M243.91,82.97l-0.76-5.62l4.17-2.81l4.96,2.81l0.83,5.62 l-4.2,2.81L243.91,82.97z M241.35,64.1l-0.76-5.62l4.06-2.81l4.86,2.81l0.83,5.62l-4.09,2.81L241.35,64.1z M235.86,27.35 l4.67,2.81l0.79,5.62l-3.95,2.81l-4.71-2.81l-0.72-5.62L235.86,27.35z M212.71,30.16l3.99-2.81l4.6,2.81l0.65,5.62l-4.02,2.81 l-4.64-2.81L212.71,30.16z M212.87,36.79l4.64,2.81l0.61,5.62l-4.09,2.81l-4.67-2.81l-0.55-5.62L212.87,36.79z M211.68,30.16 l0.57,5.62l-4.06,2.81l-3.28-2l-1.32-0.81l-0.51-5.62l4.03-2.81L211.68,30.16z M207.77,39.61l0.54,5.62l-4.13,2.81l-4.63-2.81 l-0.47-5.62l4.1-2.81L207.77,39.61z M202.06,30.16l0.5,5.62l-4.09,2.81l-4.56-2.81l-0.44-5.62l4.06-2.81L202.06,30.16z M193.46,36.8l4.57,2.81l0.47,5.62l-4.17,2.81l-4.6-2.81l-0.4-5.63L193.46,36.8z M183.85,30.17l4.1-2.81l4.5,2.81l0.43,5.62 l-4.13,2.81l-4.53-2.81L183.85,30.17z M164.61,30.17l4.17-2.81l3.49,2.22l0.94,0.59l0.29,5.63l-4.2,2.82l-4.46-2.81 L164.61,30.17z M159.19,27.35l4.39,2.81l0.21,5.63l-4.24,2.82l-4.42-2.81l-0.15-5.63L159.19,27.35z M140.02,27.35l4.32,2.82 l0.07,5.63l-4.31,2.82l-4.35-2.82l-0.01-5.63L140.02,27.35z M126.13,30.17l4.31-2.82l4.28,2.82l0,5.63l-4.34,2.82l-4.31-2.82 L126.13,30.17z M125.53,36.81l4.32,2.82l-0.04,5.63l-4.42,2.82l-4.35-2.81l0.1-5.63L125.53,36.81z M125.1,30.17l-0.07,5.63 l-4.38,2.82l-4.28-2.82l0.14-5.63l4.35-2.82L125.1,30.17z M120.11,39.63L120,45.26l-4.45,2.82l-4.31-2.81l0.17-5.63l4.42-2.82 L120.11,39.63z M97.27,30.17l4.42-2.82l3.05,2.06l1.12,0.76l-0.22,5.63l-4.45,2.82l-4.21-2.82L97.27,30.17z M100.63,39.63 l-0.25,5.63l-4.52,2.82l-4.24-2.82l0.32-5.64l4.49-2.82L100.63,39.63z M92.1,27.35l4.14,2.82l-0.29,5.63l-4.49,2.82l-4.17-2.82 l0.35-5.63L92.1,27.35z M68.41,30.17l4.53-2.82L77,30.17l-0.43,5.64l-4.56,2.82l-4.1-2.82L68.41,30.17z M67.3,36.82l4.1,2.82 l-0.47,5.64l-4.63,2.82l-4.13-2.82l0.53-5.64L67.3,36.82z M67.38,30.17l-0.5,5.64l-4.6,2.82l-2.89-2.01l-1.17-0.81l0.57-5.64 l4.56-2.82L67.38,30.17z M61.67,39.64l-0.54,5.64l-4.67,2.82l-4.1-2.82l0.6-5.64l4.64-2.82L61.67,39.64z M49.17,30.17l4.6-2.82 l3.99,2.82l-0.57,5.64l-4.63,2.82l-4.03-2.82L49.17,30.17z M47.9,36.82l4.03,2.82l-0.61,5.64l-4.7,2.82l-4.06-2.82l0.67-5.64 L47.9,36.82z M39.55,30.18l4.64-2.82l3.96,2.82l-0.65,5.64l-4.67,2.82l-3.99-2.82L39.55,30.18z M32.74,45.29l0.75-5.64 l4.71-2.82l3.99,2.82l-0.68,5.64l-4.74,2.82L32.74,45.29z M30.23,64.23l0.75-5.64l4.81-2.82l4.1,2.82l-0.68,5.64l-4.85,2.82 L30.23,64.23z M27.72,83.18l0.75-5.64l4.92-2.83l4.21,2.82l-0.68,5.64L31.96,86L27.72,83.18z M27.38,103.53l-2.17-1.41 l0.75-5.64l5.03-2.83l4.32,2.81l-0.68,5.64l-5.06,2.83L27.38,103.53z M22.71,121.07l0.75-5.64l5.14-2.83l4.42,2.81l-0.68,5.64 l-5.17,2.83L22.71,121.07z M20.2,140.02l0.75-5.64l5.25-2.83l4.53,2.81L30.04,140l-5.28,2.83L20.2,140.02z M17.69,158.96 l0.75-5.64l5.35-2.83l4.64,2.81l-0.68,5.64l-5.39,2.83L17.69,158.96z M25.46,177.89l-5.49,2.83l-4.78-2.81l0.75-5.64l5.46-2.83 l4.75,2.81L25.46,177.89z M22.13,168.42l0.71-5.64l5.39-2.83l4.71,2.81l-0.65,5.64l-5.42,2.83L22.13,168.42z M36.96,177.86 l-5.46,2.83l-4.81-2.81l0.67-5.64l5.42-2.83l4.78,2.81L36.96,177.86z M33.51,168.4l0.64-5.64l5.35-2.83l4.75,2.81l-0.57,5.64 l-5.39,2.83L33.51,168.4z M38.18,177.86l0.6-5.64l5.39-2.83l4.82,2.81l-0.54,5.64l-5.42,2.83L38.18,177.86z M44.89,168.37 l0.57-5.64l5.32-2.83l4.78,2.81l-0.5,5.64l-5.35,2.83L44.89,168.37z M49.69,177.83l0.53-5.64l5.35-2.83l4.86,2.81l-0.47,5.64 l-5.39,2.83L49.69,177.83z M71.22,190.06l-4.99-2.81l0.42-5.64l5.35-2.83l4.96,2.81l-0.36,5.64L71.22,190.06z M94.53,190 l-5.07-2.8l0.28-5.63l4.28-2.29l1.01-0.54l5.03,2.8l-0.22,5.63L94.53,190z M117.46,177.68l-5.21,2.83l-5.07-2.8l0.17-5.63 l5.17-2.83l5.03,2.81L117.46,177.68z M113.16,168.23l0.14-5.63l5.1-2.83l5,2.81l-0.07,5.63l-5.13,2.83L113.16,168.23z M118.69,177.67l0.1-5.63l5.14-2.83l5.07,2.81l-0.04,5.63l-5.17,2.83L118.69,177.67z M124.54,168.2l0.06-5.63l5.07-2.83 l5.03,2.8l0,5.63l-5.1,2.83L124.54,168.2z M130.19,177.65l0.03-5.63l5.1-2.83l5.11,2.8l0.04,5.63l-5.14,2.83L130.19,177.65z M152.81,189.86l-5.25-2.8l-0.08-5.63l5.1-2.83l4.34,2.33l0.87,0.47l0.01,0l0.14,5.63L152.81,189.86z M176.13,189.81l-5.32-2.8 l-0.22-5.63l5.03-2.83l4.4,2.33l0.46,0.24l0.43,0.23l0.29,5.63L176.13,189.81z M187.69,177.52l-0.33-5.63l4.92-2.82l5.29,2.8 l0.39,5.63l-4.96,2.82L187.69,177.52z M199.19,177.49l-0.4-5.63l4.89-2.82l5.32,2.8l0.47,5.62l-4.92,2.82L199.19,177.49z M204.2,168.03l-0.44-5.63l4.82-2.82l5.28,2.8l0.5,5.62l-4.85,2.82L204.2,168.03z M210.69,177.46l-0.47-5.62l4.85-2.82l5.36,2.8 l0.54,5.62l-4.88,2.82L210.69,177.46z M215.58,168l-0.51-5.62l4.78-2.82l5.32,2.8l0.57,5.62l-4.81,2.82L215.58,168z M222.19,177.44l-0.55-5.62l4.81-2.82l5.39,2.8l0.61,5.62l-4.85,2.82L222.19,177.44z M246.07,189.64l-5.53-2.8l-0.65-5.62 l4.82-2.82l5.5,2.8l0.72,5.62L246.07,189.64z M255.46,177.36l-4.78,2.82l-5.5-2.8l-0.69-5.62l4.74-2.82l5.47,2.8L255.46,177.36z M249.72,167.93l-0.73-5.62l4.67-2.82l5.43,2.8l0.79,5.62l-4.7,2.82L249.72,167.93z M256.69,177.36l-0.76-5.62l1.97-1.18 l2.74-1.64l5.5,2.8l0.83,5.62l-4.74,2.82L256.69,177.36z M273.29,181.14l0.86,5.62l-4.77,2.82l-5.61-2.8l-0.8-5.62l2.38-1.41 l2.37-1.41L273.29,181.14z M270.4,162.27l0.86,5.62l-4.67,2.82l-5.5-2.8l-0.8-5.62l4.64-2.82L270.4,162.27z M267.51,143.39 l0.86,5.62l-4.56,2.82l-5.39-2.8l-0.8-5.62l4.53-2.82L267.51,143.39z M264.62,124.52l0.86,5.62l-4.45,2.82l-5.28-2.8l-0.8-5.62 l4.42-2.82L264.62,124.52z M261.73,105.65l0.86,5.62l-4.34,2.82l-5.17-2.8l-0.8-5.62l4.31-2.82L261.73,105.65z M258.83,86.78 l0.86,5.62l-2.11,1.41l-2.12,1.41l-5.07-2.8l-0.8-5.62l4.21-2.81L258.83,86.78z M255.94,67.91l0.86,5.62l-4.13,2.81l-4.96-2.81 l-0.8-5.62l4.1-2.81L255.94,67.91z M253.05,49.03l0.86,5.62l-4.02,2.81l-4.85-2.81l-0.8-5.62l3.99-2.81L253.05,49.03z M247.11,38.59l-4.74-2.81l-0.8-5.62l3.88-2.81l4.71,2.81l0.86,5.62L247.11,38.59z"></path> </g> </g> <linearGradient id="XMLID_00000179644961827025238300000011124584303976735396_" gradientUnits="userSpaceOnUse" x1="25.1933" y1="159.1722" x2="259.8791" y2="49.7364"> <stop offset="0.0214" style="stop-color:#F1F7FA"></stop> <stop offset="0.1457" style="stop-color:#D4D9DD"></stop> <stop offset="0.1575" style="stop-color:#C3C9D0"></stop> <stop offset="0.1775" style="stop-color:#B2B9C2"></stop> <stop offset="0.203" style="stop-color:#A8B0BB"></stop> <stop offset="0.2513" style="stop-color:#A5ADB9"></stop> <stop offset="0.2738" style="stop-color:#97A3B0"></stop> <stop offset="0.3146" style="stop-color:#758A9A"></stop> <stop offset="0.3511" style="stop-color:#557282"></stop> <stop offset="0.3783" style="stop-color:#597585"></stop> <stop offset="0.403" style="stop-color:#657F8F"></stop> <stop offset="0.4267" style="stop-color:#7A909F"></stop> <stop offset="0.4498" style="stop-color:#9AABB7"></stop> <stop offset="0.4722" style="stop-color:#C9D2DA"></stop> <stop offset="0.4904" style="stop-color:#FFFFFF"></stop> <stop offset="0.6186" style="stop-color:#A8AFBB"></stop> <stop offset="0.6232" style="stop-color:#A5ADB9"></stop> <stop offset="0.8834" style="stop-color:#F1F7FA"></stop> </linearGradient> <path id="XMLID_501_" style="fill:url(#XMLID_00000179644961827025238300000011124584303976735396_);" d="M142.41,32.64 C65.9,32.64,3.87,61.89,3.87,103.32c0,41.43,62.03,75.01,138.54,75.01s138.54-33.59,138.54-75.01 C280.95,61.89,218.92,32.64,142.41,32.64z M142.41,42.49c12.97,0,25.41,1.17,36.96,3.29c-16.82-0.62-81.1-0.8-88.63,28.24 c-4.46,15.77,20.23,26.75,32.01,31.53s25.16,10.03,25.16,16.88c0,8.28-19.18,14.62-46.24,14.65c-16.78,0.02-35.2-1.56-50.85-10.58 c-3.66-2.11-9.51-4.55-14.13-13.37c-2.42-4.63-3.71-9.49-3.71-14.51C32.97,67.62,81.97,42.49,142.41,42.49z M142.41,154.76 c-19.48,0-37.76-2.62-53.6-7.2c33.81,8.5,58.5,4.23,70.15,1.71c11.78-2.55,36.31-9.16,36.31-31.46s-32.97-23.1-51.82-35.51 c-5.25-3.46-16.54-11.9,6.57-18.79c45.96-13.71,97.87,7.35,101.68,32.31c0.09,0.93,0.14,1.86,0.14,2.8 C251.85,129.63,202.85,154.76,142.41,154.76z"></path> <g id="XMLID_492_"> <path id="XMLID_498_" class="st10" d="M101.67,142.5c27.51-0.03,55.26-6.25,55.26-20.07c0-10.34-14.09-16.05-27.72-21.57 l-0.82-0.33c-14.7-5.96-31.63-15.14-28.83-25.04c1.92-7.38,12.65-24.46,71.07-24.46c1.51,0,6.01-0.3,10.22-0.86 c7.78-1.02,9.3-2.08,9.49-3.81c0.4-3.61-6.85-5.34-9.99-5.92c-12.18-2.24-24.95-3.38-37.94-3.38c-30.08,0-58.44,6.05-79.86,17.04 c-22.57,11.58-35,27.39-35,44.51c0,5.96,1.53,11.82,4.55,17.44c2.73,6.03,8.19,9.93,10.25,11.4l0.15,0.1 c18.46,13.23,41.16,14.92,58.88,14.92H101.67z M33.73,115.27c-2.9-5.38-4.37-10.95-4.37-16.64c0-16.42,12.08-31.66,34.02-42.91 c21.17-10.86,49.98-17.58,79.77-17.58c12.89,0,25.54,1.13,37.62,3.35c1.86,0.34,7.99,2.81,7.78,4.69 c-0.2,1.84-14.97,3.06-17.92,3.06c-19.88,0-66.77,2.5-72.81,25.77c-2.54,8.98,7.52,18.13,29.89,27.2l0.83,0.33 c13.07,5.3,26.59,10.77,26.59,19.89c0,12.51-27.71,18.24-53.45,18.26h-0.29c-17.81,0-39.95-1.77-57.83-14.59 C41.63,124.72,36.31,121.02,33.73,115.27z"></path> <path id="XMLID_495_" class="st10" d="M257.06,95.01c-3.47-22.75-36.43-41.25-73.48-41.25c-10.77,0-21.36,1.53-31.5,4.55 c-11.24,3.35-20.48,7.68-21.36,13.61c-1.14,7.72,10.37,12.93,13.35,14.89c7.03,4.63,15.97,7.66,24.63,10.59 c20,6.78,24.75,11.11,24.75,20.4c0,18.03-18.03,22.71-28.43,24.96c-8.32,1.8-21.59,3.94-37.54,3.94 c-11.03,0-21.72-1.05-31.75-3.13c-1.07-0.22-3.83-0.25-4.97-0.25c-12.43,0-16.58,0.71-16.88,1.82 c-0.88,3.27,7.89,6.01,13.18,7.53l0.24,0.07c16.79,4.85,35.85,7.41,55.11,7.41c30.08,0,58.44-6.05,79.86-17.04 c22.57-11.58,35-27.39,35-44.51c0-1.08-0.05-2.19-0.16-3.32C257.09,95.21,257.08,95.11,257.06,95.01z M221.44,141.53 c-21.17,10.86-49.24,16.84-79.03,16.84c-19.1,0-37.98-2.54-54.6-7.34c-1.89-0.55-9-3.03-8.48-4.94 c0.43-1.61,14.13-1.13,16.04-0.74c10.16,2.1,20.94,3.17,32.12,3.17c16.11,0,27.11-2.17,35.52-3.98 c10.86-2.35,30.89-8.13,31.06-26.73c0.1-11.27-8.77-15.87-27.18-22.1c-8.55-2.9-18.58-5.89-25.42-10.39 c-2.71-1.79-11.13-7.06-10.16-13.65c0.76-5.16,7-7.8,17.49-10.93c9.96-2.97,26.02-4.68,36.61-4.68 c36.2,0,66.53,17.32,69.87,39.22c0.01,0.07,0.02,0.13,0.02,0.2c0.1,1.07,0.15,2.13,0.15,3.15 C255.46,115.04,243.38,130.28,221.44,141.53z"></path> <path id="XMLID_493_" class="st11" d="M142.41,38.88c-35.98,0-69.76,5.57-95.1,18.97C22.7,70.87,8.14,87.91,8.14,105.85 s14.56,34.97,39.17,47.99c25.34,13.4,59.12,20.25,95.1,20.25h5.62c-35.7,0-74.79-8.59-99.88-21.85 c-23.99-12.69-37.21-29.16-37.21-46.39s13.21-35.51,37.21-48.2C73.24,44.38,106.71,38.88,142.41,38.88"></path> </g> <path id="XMLID_488_" class="st12" d="M142.41,179.07c-36.58,0-70.92-7.72-96.69-21.74c-25.02-13.62-38.8-31.45-38.8-50.21 s13.78-36.59,38.8-50.21c25.76-14.02,60.1-21.74,96.69-21.74s70.92,7.72,96.69,21.74c25.02,13.62,38.8,31.45,38.8,50.21 s-13.78,36.59-38.8,50.21C213.33,171.35,178.99,179.07,142.41,179.07z M79.32,146.09c-0.45,1.92,6.59,4.95,8.48,5.5 c16.63,4.8,35.51,7.34,54.6,7.34c29.79,0,57.86-5.98,79.03-16.84c21.94-11.25,34.02-26.49,34.02-42.91c0-1.02-0.05-2.08-0.15-3.15 c-0.01-0.07-0.01-0.13-0.02-0.2c-3.34-21.89-35.5-39.71-71.7-39.71c-10.59,0-22.1,1.22-32.06,4.19 c-10.49,3.13-18.86,6.32-19.62,11.48c-0.97,6.58,5.77,10.81,8.49,12.6c6.83,4.5,19.16,8.98,27.71,11.87 c18.4,6.24,25.37,10.28,25.37,21.55c0,19.49-18.39,24.22-29.25,26.56c-8.41,1.82-20.61,3.98-36.72,3.98 C116.31,148.36,79.81,144.02,79.32,146.09z M142.41,39.43c-29.79,0-57.86,5.98-79.03,16.84C41.44,67.53,29.36,82.76,29.36,99.18 c0,5.69,1.47,11.27,4.37,16.64c2.58,5.76,7.9,9.46,9.83,10.84c17.88,12.81,40.02,14.59,57.83,14.59h0.29 c25.74-0.03,53.45-5.75,53.45-18.26c0-9.12-13.52-14.6-26.59-19.89l-0.83-0.33c-22.37-9.07-32.43-18.22-29.89-27.2 c6.04-23.26,52.93-25.77,72.81-25.77c2.94,0,17.71-1.22,17.92-3.06c0.21-1.88-6.66-3.6-8.52-3.95 C167.95,40.56,155.29,39.43,142.41,39.43z"></path> <path id="XMLID_485_" class="st13" d="M100.67,137.28c-17.23,0-39.28-1.63-56.99-14.32l-0.15-0.11c-1.87-1.34-6.84-4.89-9.2-10.15 c-2.82-5.24-4.24-10.62-4.24-16.05c0-15.85,11.8-30.63,33.23-41.62c20.97-10.76,48.8-16.68,78.37-16.68 c12.8,0,25.44,0.36,37.42,2.57c2.86,0.53,7.38,1.95,8.59,2.6c-1.17,0.37-5.28,1.11-7.75,1.44c0.07-0.15,0.12-0.31,0.14-0.48 c0.08-0.75-0.43-1.44-1.17-1.58c-11.95-2.2-24.47-3.32-37.22-3.32c-61.14,0-110.88,25.83-110.88,57.58 c0,5.14,1.31,10.25,3.88,15.18c4.32,8.24,9.59,11.14,13.44,13.26c0.44,0.24,0.86,0.47,1.25,0.7c16.57,9.55,36.12,10.77,51.3,10.77 h0.27c24.86-0.03,47.69-5.68,47.69-16.1c0-7.66-12.83-12.86-25.23-17.88l-0.84-0.34C99,93.21,88.52,83.19,91.41,72.97 c6.4-24.68,58.11-27.35,78.5-27.35c1.21,0,2.42,0.01,3.61,0.02c-1.41,0.11-2.68,0.17-3.61,0.17c-20.22,0-70.14,2.24-76.43,26.48 c-2.77,9.78,9.8,19.89,32.97,29.28l0.83,0.33c12.63,5.12,22.09,10.41,22.09,18.55c0,10.89-23.19,16.79-48.41,16.82H100.67z M220.06,138.27c21.43-10.99,33.23-25.77,33.23-41.62c0-0.97-0.05-1.99-0.15-2.99l-0.02-0.14c-3.24-21.22-34.76-38.48-70.27-38.48 c-10.45,0-21.47,1.36-31.34,4.14c-11.73,3.29-19.38,7.44-19.57,12.02c-0.42,10,25.02,18.3,33.48,21.17 c19.01,6.44,28.16,11.24,28.16,23.47c0,20.01-19.37,24.67-31.07,27.18l-1.13,0.24c-8.47,1.83-18.38,4.02-34.62,4.02 c-4.17,0-11.75-0.38-19.89-0.79c-4.63-0.23-18.13-1.15-25.31-0.86c10.33,3.45,33.54,3.62,45.19,3.62c16.3,0,26.26-2.19,34.78-4.03 c11.42-2.47,32.77-7.6,32.77-28.85c0-13.63-12.68-18.74-28.66-24.16c-8.41-2.85-33.17-10.99-32.27-21 c0.38-4.2,8.69-7.9,18.22-10.41c7.52-1.98,17.27-4.5,27.66-4.5c35.17,0,69.98,17.01,73.17,37.95c0.1,1,0.14,1.99,0.14,2.94 c0,31.75-49.74,57.58-110.88,57.58c-18.9,0-37.43-2.72-53.86-7.47c-0.75-0.22-1.34-0.8-1.14-1.55c0.01-0.04,0.02-0.07,0.03-0.11 c-1.13-0.02-2.17-0.04-3.11-0.04c-0.83,0-1.5,0.01-2.05,0.03c1.06,0.49,1.39,1.11,4.26,1.94l1.56,0.41 c15.37,4.76,35.33,7.24,54.29,7.24C171.26,155.2,199.09,149.03,220.06,138.27z"></path> <linearGradient id="SVGID_00000118398520308501596710000013928140134737142455_" gradientUnits="userSpaceOnUse" x1="27.663" y1="116.8426" x2="110.8289" y2="56.7784"> <stop offset="0.0214" style="stop-color:#F1F7FA"></stop> <stop offset="0.1457" style="stop-color:#D4D9DD"></stop> <stop offset="0.1575" style="stop-color:#C3C9D0"></stop> <stop offset="0.1775" style="stop-color:#B2B9C2"></stop> <stop offset="0.203" style="stop-color:#A8B0BB"></stop> <stop offset="0.2513" style="stop-color:#A5ADB9"></stop> <stop offset="0.2738" style="stop-color:#97A3B0"></stop> <stop offset="0.3146" style="stop-color:#758A9A"></stop> <stop offset="0.3511" style="stop-color:#557282"></stop> <stop offset="0.3783" style="stop-color:#597585"></stop> <stop offset="0.403" style="stop-color:#657F8F"></stop> <stop offset="0.4267" style="stop-color:#7A909F"></stop> <stop offset="0.4498" style="stop-color:#9AABB7"></stop> <stop offset="0.4722" style="stop-color:#C9D2DA"></stop> <stop offset="0.4904" style="stop-color:#FFFFFF"></stop> <stop offset="0.6186" style="stop-color:#A8AFBB"></stop> <stop offset="0.6232" style="stop-color:#A5ADB9"></stop> <stop offset="0.8834" style="stop-color:#F1F7FA"></stop> </linearGradient> <path style="fill:url(#SVGID_00000118398520308501596710000013928140134737142455_);" d="M52.43,92.51 c10.96-24.93,45.48-25.29,45.48-25.29l-1.59-3.12H86.11c-10.78,0-19.53,2.81-26.49,8.19c-6.96,5.5-11.63,12.35-12.98,20.65 c0,0-1.45,7.14,0.3,14.02c0,0,2.04,7.8,7.24,11.56C58.11,121.37,52.43,92.51,52.43,92.51z"></path> <g> <linearGradient id="SVGID_00000178203923157990172740000009656212632568135609_" gradientUnits="userSpaceOnUse" x1="86.1785" y1="83.7905" x2="33.7543" y2="185.1783"> <stop offset="0.0214" style="stop-color:#F1F7FA"></stop> <stop offset="0.1457" style="stop-color:#D4D9DD"></stop> <stop offset="0.1575" style="stop-color:#C3C9D0"></stop> <stop offset="0.1775" style="stop-color:#B2B9C2"></stop> <stop offset="0.203" style="stop-color:#A8B0BB"></stop> <stop offset="0.2513" style="stop-color:#A5ADB9"></stop> <stop offset="0.2738" style="stop-color:#97A3B0"></stop> <stop offset="0.3146" style="stop-color:#758A9A"></stop> <stop offset="0.3511" style="stop-color:#557282"></stop> <stop offset="0.3783" style="stop-color:#597585"></stop> <stop offset="0.403" style="stop-color:#657F8F"></stop> <stop offset="0.4267" style="stop-color:#7A909F"></stop> <stop offset="0.4498" style="stop-color:#9AABB7"></stop> <stop offset="0.4722" style="stop-color:#C9D2DA"></stop> <stop offset="0.4904" style="stop-color:#FFFFFF"></stop> <stop offset="0.6186" style="stop-color:#A8AFBB"></stop> <stop offset="0.6232" style="stop-color:#A5ADB9"></stop> <stop offset="0.8834" style="stop-color:#F1F7FA"></stop> </linearGradient> <path style="fill:url(#SVGID_00000178203923157990172740000009656212632568135609_);" d="M93.11,86.39c0,0-4.49-1.41-9.74-1.53 c-3.11-0.02-5.72,1.12-7.97,3.59c-2.02,2.36-2.02,9.89-2.02,9.96c0.15,3.06,1.43,4.67,2.13,5.54c1.65,2.04,2.6,1.87,4.34,1.95 c7.7,0.04,21.24-3.07,21.24-3.07l0,0l-3.04,20.79c0,0-9.65,3.14-19.95,3c-10.31-0.14-18.52-2.69-23.91-8.08 c-4.27-4.27-6.4-9.54-6.4-15.83c0-1.23,0-2.24,0.22-3.14c0.11-0.79,0.11-1.35,0.22-1.91c1.35-8.31,7.1-17.41,14.06-22.91 c6.96-5.39,14.12-5.94,24.89-5.94l23.37,5.35L93.11,86.39z"></path> </g> <g> <path class="st13" d="M100.31,87.26c0,0-9.11-3.82-16.95-3.69c-2.89,0.05-5.72,1.17-7.97,3.75c-2.02,2.46-3.37,3.85-4.04,7.96 c0,0.47,0,1.06-0.23,1.88c0,0.7,0,1.17,0,1.52c0,2.35,1.39,3.75,2.4,5.62c1.35,2.35,3.55,3.49,7.09,3.53 c15.66,1.12,19.56-4.14,19.56-4.14l-3.15,18.94c0,0-8.99,2.54-18.93,2.79c-9.94,0.24-18.52-2.81-23.91-8.44 c-4.27-4.46-6.4-9.97-6.4-16.53c0-1.29,0-2.35,0.22-3.28c0.11-0.82,0.11-1.41,0.22-1.99c1.35-8.68,5.5-14.63,12.46-20.38 c6.96-5.63,15.71-8.56,26.49-8.56l14.68,1.87L100.31,87.26z"></path> </g> <path class="st4" d="M225.55,112.26l-2.91,18.46c0,0-8.35,3.76-16.97,4.04c-4.42,0.14-11.61-0.9-14.67-2.61l0.45-0.97l18.85-13.72 l14.71-5.79L225.55,112.26z"></path> <g> <linearGradient id="SVGID_00000094591061934786658440000006093816137175748483_" gradientUnits="userSpaceOnUse" x1="231.5886" y1="70.9186" x2="163.0304" y2="134.8363"> <stop offset="0.0214" style="stop-color:#F1F7FA"></stop> <stop offset="0.1457" style="stop-color:#D4D9DD"></stop> <stop offset="0.1575" style="stop-color:#C3C9D0"></stop> <stop offset="0.1775" style="stop-color:#B2B9C2"></stop> <stop offset="0.203" style="stop-color:#A8B0BB"></stop> <stop offset="0.2513" style="stop-color:#A5ADB9"></stop> <stop offset="0.2738" style="stop-color:#97A3B0"></stop> <stop offset="0.3146" style="stop-color:#758A9A"></stop> <stop offset="0.3511" style="stop-color:#557282"></stop> <stop offset="0.3783" style="stop-color:#597585"></stop> <stop offset="0.403" style="stop-color:#657F8F"></stop> <stop offset="0.4267" style="stop-color:#7A909F"></stop> <stop offset="0.4498" style="stop-color:#9AABB7"></stop> <stop offset="0.4722" style="stop-color:#C9D2DA"></stop> <stop offset="0.4904" style="stop-color:#FFFFFF"></stop> <stop offset="0.6186" style="stop-color:#A8AFBB"></stop> <stop offset="0.6232" style="stop-color:#A5ADB9"></stop> <stop offset="0.8834" style="stop-color:#F1F7FA"></stop> </linearGradient> <path style="fill:url(#SVGID_00000094591061934786658440000006093816137175748483_);" d="M225.24,89.09h-18.83 c-3.14,0-5.72,1.12-7.97,3.59c-2.02,2.36-3.37,5.39-4.04,9.32c0,0.45,0,1.01-0.23,1.8c0,0.67,4.14,1.35,4.14,1.69 c0,2.24,0.45,4.15,1.46,5.95c1.35,2.25,3.14,3.41,6.74,3.37c9.67-0.11,18.49-3.13,18.49-3.13l-23.87,19.18 c-10.55,0-18.52-2.69-23.91-8.08c-4.27-4.27-6.4-9.54-6.4-15.83c0-1.23,0-2.24,0.22-3.14c0.11-0.79,0.11-1.35,0.22-1.91 c1.35-8.31,4.34-14.2,11.3-19.7c6.96-5.39,15.67-8.38,25.2-8.7c14.94-0.52,23.96,2.86,23.96,2.86l-1.56,1.14L225.24,89.09z"></path> </g> <g> <path class="st13" d="M205.17,133.9c-6.7,0-10.82-0.48-13.88-2.18c-0.53-0.41-1.05-3.51-2.4-5.44 c-3.46-4.94-14.02-10-14.02-16.29c0-1.23,0-2.24,0.22-3.14c0.11-0.79,0.11-1.35,0.22-1.91c1.35-8.31,5.5-15.15,12.46-20.65 c6.96-5.39,15.71-8.19,26.49-8.19l15.91,1.39l1.56-1.14l-3.06,18.78c0,0-10.29-2.85-18.24-2.98c-3.32-0.05-5.72,1.12-7.97,3.59 c-2.02,2.36-3.43,4.72-4.1,8.65l-0.16,2.46c0,0.67,0.09,3.52,1.1,5.31c1.35,2.25,2.74,3.33,6.74,3.37 c10.01,0.1,18.96-3.87,18.96-3.87l-2.91,18.32C218.69,131.84,210.3,133.88,205.17,133.9z"></path> </g> <linearGradient id="SVGID_00000049214873051849593070000005656222046364787635_" gradientUnits="userSpaceOnUse" x1="133.8112" y1="-5.3238" x2="154.5047" y2="262.7067"> <stop offset="0.1472" style="stop-color:#D4D9DD"></stop> <stop offset="0.2927" style="stop-color:#FFFFFF"></stop> <stop offset="0.3893" style="stop-color:#FFFFFF"></stop> <stop offset="0.4947" style="stop-color:#AFB6C0"></stop> <stop offset="0.509" style="stop-color:#A5ADB9"></stop> <stop offset="0.5966" style="stop-color:#FAF9F8"></stop> <stop offset="0.6011" style="stop-color:#FAF9F8"></stop> <stop offset="0.7644" style="stop-color:#B1BDC5"></stop> <stop offset="0.7739" style="stop-color:#ADB9C2"></stop> </linearGradient> <path style="fill:url(#SVGID_00000049214873051849593070000005656222046364787635_);" d="M239.1,55.84 c-25.76-14.02-60.1-21.74-96.69-21.74s-70.92,7.72-96.69,21.74C20.7,69.45,6.92,87.28,6.92,106.04s13.78,36.59,38.8,50.21 c25.76,14.02,60.1,21.74,96.69,21.74s70.92-7.72,96.69-21.74c25.02-13.62,38.8-31.45,38.8-50.21S264.12,69.45,239.1,55.84z M43.56,125.58c-1.93-1.38-7.24-5.08-9.83-10.84c-2.9-5.38-4.37-10.95-4.37-16.64c0-16.42,12.08-31.66,34.02-42.91 c21.17-10.86,49.24-16.84,79.03-16.84c12.89,0,25.54,1.13,37.62,3.35c1.86,0.34,8.73,2.07,8.52,3.95 c-0.2,1.84-14.97,3.06-17.92,3.06c-16.96,0-55.95,0.78-72.72,18.51c0,0-2.82-1.62-9.04-1.7c-10.39-0.1-19.53,2.81-26.49,8.19 c-6.96,5.5-11.11,12.35-12.46,20.65c-0.11,0.56-0.11,1.12-0.22,1.91c-0.22,0.9-0.22,1.91-0.22,3.14c0,6.29,2.13,11.56,6.4,15.83 c5.39,5.39,13.63,8.45,23.91,8.08s16.73-2.36,16.73-2.36l2.58-16.28c0,0-10.33,2.54-18.08,2.36c-3.05-0.2-5.39-1.12-6.74-3.37 c-1.01-1.8-1.46-3.7-1.46-5.95c0-0.34,0.07-1.03,0.1-1.78c0.06-0.84,0.11-1.18,0.13-1.48c0.67-3.93,2.02-6.96,4.04-9.32 c2.25-2.47,4.78-3.6,7.97-3.59C91.84,81.5,96.8,83.8,96.8,83.8c1.59,3.4,13.2,11.19,29.71,17.88l0.83,0.33 c13.07,5.3,27.79,10.77,27.79,19.89c0,12.51-27.71,18.24-53.45,18.26h-0.29C83.58,140.17,61.44,138.4,43.56,125.58z M221.44,141 c-21.17,10.86-49.24,16.84-79.03,16.84c-19.1,0-37.98-2.54-54.6-7.34c-1.89-0.55-9-2.51-8.48-4.41 c0.43-1.61,36.99,1.19,48.16,1.19c16.11,0,29.51-2.17,37.92-3.98c7.96-1.72,19.32-4.15,24.82-12.99c3.98,1.34,7.86,1.9,13.87,2.01 c7.5,0.14,16.77-3.15,16.77-3.15l2.55-15.15c0,0-9.8,1.96-18.08,2.03c-2.72,0.02-5.39-1.12-6.74-3.37 c-1.01-1.8-1.46-3.7-1.46-5.95c0-0.34,0-0.79,0-1.46l0.23-1.8c0.67-3.93,2.02-6.96,4.04-9.32c2.25-2.47,4.65-3.61,7.97-3.59 c7.98,0.03,18.34,2.98,18.34,2.98l2.47-16.05c0,0-6.86-2.73-16.99-2.98c-10.13-0.25-19.53,2.81-26.49,8.19 c-5.26,4.16-8.91,9.09-10.97,14.83c-1.95-0.78-4.09-1.55-6.44-2.35c-8.55-2.9-20.76-6.28-27.98-10.7 c-2.77-1.69-10.72-6.21-9.75-12.79c0.76-5.16,10.56-9.05,21.05-12.18c9.96-2.97,20.39-4.48,30.98-4.48 c36.19,0,68.36,17.81,71.7,39.71c0.01,0.07,0.02,0.13,0.02,0.2c0.1,1.07,0.15,2.13,0.15,3.15 C255.46,114.52,243.38,129.75,221.44,141z"></path> <path id="XMLID_484_" class="st18" d="M106.11,70.27c1.31,0.1,2.62,0.14,3.93,0.12c0.4-0.01,0.81-0.02,1.17-0.17 c0.51-0.21,0.87-0.67,1.22-1.09c6.3-7.65,15.57-12.16,24.75-15.9c-10.07,0.47-19.91,4.8-27.06,11.91c0.4-0.73-0.35-1.66-1.17-1.75 c-0.82-0.1-1.61,0.34-2.32,0.77c-1.05,0.62-2.13,1.29-2.76,2.33c-0.62,1.05-0.59,2.59,0.4,3.3 C104.79,70.15,105.47,70.22,106.11,70.27z"></path> <path id="XMLID_483_" class="st19" d="M150.42,88.79c0.62,0.74,2.21,1.81,2.83,2.55c-1.33,0.23-2.5-0.29-3.83-0.06 c0.49,2.31-1.65,4.5-3.96,5.02c-2.31,0.52-4.69-0.13-7-0.65c-2.31-0.52-4.82-0.88-6.95,0.14c-0.14,0.86-0.28,1.71-0.42,2.57 c-3.04,0.12-6.08,0.23-9.12,0.35c0.01,0.19-0.68,0.6-0.66,0.79c1.8,0.81,7.93,3.27,7.93,3.27c12.96,5.65,25.25,11.95,25.89,19.15 c0.53,6-8.48,11.76-20.41,14.71c6.95-1.72,13.64-3.6,19.99-7c2.28-1.22,4.56-2.56,6.58-4.18c1.83-1.47,3.72-4.43,3.47-6.85 c-0.19-1.76-1.86-2.24-1.4-4.29c0.07-0.33,9.26-0.06,9.88-0.1c0.83-1.83-0.27-3.27-0.22-5.05c5.44,0.95,1.32-5.55,0.19-7.61 c-0.47-0.86-0.93-1.8-0.56-2.74c0.56-1.42,2.21-0.35,2.71-1.42c-2.13-0.65-3.99-1.49-6.06-2.19 C163.24,93.13,156.98,91.27,150.42,88.79z"></path> <path id="XMLID_482_" class="st20" d="M192.25,44c1.08,0.32,1.23,1.93,0.52,2.81c-0.71,0.87-1.89,1.18-2.98,1.44 c-1.49,0.35-2.98,0.7-4.47,1.05c2.86,0.02,5.71-0.21,8.56-0.44c2.39-0.19,4.95-0.45,6.81-1.98c-0.55-1.16-1.97-1.54-3.23-1.8 C195.73,44.71,193.99,44.35,192.25,44z"></path> <path id="XMLID_481_" class="st21" d="M220.75,47.27c-7.5-2.97-15.3-5.2-23.23-6.65c2.62,0.77,5.25,1.54,7.87,2.31 c1.47,0.43,3.32,1.67,2.59,3.02c-1.76,0.05-3.51,0.1-5.27,0.15c0.88,0.44,1.77,0.89,2.65,1.33c0.89,1.08-0.49,2.59-1.76,3.17 c-1.28,0.58-2.91,1.49-2.61,2.86c0.26,1.21,1.81,1.54,3.04,1.64c7.39,0.6,14.71,2.13,21.72,4.53c1.69,0.58,3.75,2.1,2.91,3.68 c4.89,1.71,9.67,3.78,14.27,6.17c-1.48-3.13-4.3-5.61-7.59-6.68c-1.42-0.46-3.16-0.87-3.67-2.27c-0.21-0.58-0.16-1.26-0.53-1.76 c-0.35-0.48-0.97-0.66-1.55-0.8c-4.53-1.14-9.06-2.28-13.59-3.42c1.26-0.07,2.51-0.13,3.77-0.2c0.66-0.84,0.36-2.25-0.58-2.75 c1.87-0.03,3.74-0.06,5.62-0.08C224.99,49.41,222.7,48.04,220.75,47.27z"></path> <path id="XMLID_480_" class="st22" d="M42.3,134.98c2.05,0.5,4,1.39,5.73,2.6c-0.09-1.07-1.01-1.84-1.7-2.66 c-0.69-0.82-1.17-2.13-0.43-2.9c0.72-0.74,1.95-0.38,2.87,0.08c2.51,1.24,4.83,2.84,6.87,4.75c1.47,1.38,3.25,3.04,5.19,2.5 c-0.05-1.29-0.1-2.59-0.16-3.88c3.13,0.72,6.29,1.28,9.47,1.69c-9.21-2.12-18.35-5.66-26.6-11.57c-1.93-1.38-7.24-5.08-9.83-10.84 c-2.9-5.38-4.37-10.95-4.37-16.64c0-7.99,2.89-15.7,8.36-22.82c-5.68,4.45-10.78,12.36-10.45,26.35 c1.05,8.46,4.15,16.11,9.98,22.34c-1.32-0.07-1.56,1.42-0.29,1.78c-3.13-1.66-6.27-3.31-9.4-4.97c-1.78-0.94-3.73-2.08-4.3-4.01 c0.74,3.07,2.39,5.91,4.68,8.08c-7.26-2.62-13.7-5.28-16.94-17.32c-0.14,6.04,1.62,12.04,6.44,19.12 c7.02,10.31,9.91,12.32,13.77,14.6c5.32,3.14,13.07,4.33,16.86,0.21C45.59,139.9,43.57,137.62,42.3,134.98z"></path> <path id="XMLID_479_" class="st23" d="M260.59,138.6c-3.24,4.15-13.82,14.2-27.54,18.52c19.89-9.22,12.68-11.98,11.73-16.95 C243.28,132.27,253.6,142.26,260.59,138.6z"></path> <path id="XMLID_478_" class="st22" d="M60.8,119.07c4.06,2.08,6.05,3.17,8.46,2.14c-3.38-2.72-8.17-5.03-10.2-9.18 c-0.34-0.71-0.36-2.23-0.86-2.7c-0.31-0.29-1.66-0.49-2.19-0.83c-0.65-0.42-1.04-0.87-1.52-1.42c-0.73-0.83-1.18-1.91-1.99-2.69 c-0.72-0.7-2.63-1.29-2.85-2.03c0.58,4.69,2.05,7.56,4.22,10.76C54.79,114.49,58.59,117.93,60.8,119.07z"></path> <path id="XMLID_477_" class="st21" d="M203.54,131.39c0.85,0.03,1.96,0.29,2.75-0.09c-0.23,0.11-1.96-0.45-2.33-0.55 c-0.85-0.22-1.63-0.48-2.12-1.27c-0.56-0.91-0.6-1.06-1.71-1.13c-1.04-0.06-2.46,0.06-3.45-0.35c-1.53-0.63-2.75-1.86-3.98-2.93 c-1.19-1.02-2.65-1.46-4.14-1.97c-1.45-0.5-3.31-0.55-2.56,1.46c0.53,1.44,1.66,2.96,2.84,3.92 C189.91,129.35,195.69,131.15,203.54,131.39z"></path> <path id="XMLID_476_" class="st21" d="M225.64,77.63c0,0-12.66-3.33-21.53-0.89c6.47,0.95,3.27,4.61,7.32,2.01 c3.78-2.43,12.14,0.44,15.71,5.23C226.62,82.12,230.94,78.54,225.64,77.63z"></path> <linearGradient id="SVGID_00000181806906194250918810000012891839497914704778_" gradientUnits="userSpaceOnUse" x1="59.591" y1="75.6664" x2="109.3429" y2="119.618"> <stop offset="0.1472" style="stop-color:#D4D9DD"></stop> <stop offset="0.2927" style="stop-color:#FFFFFF"></stop> <stop offset="0.3893" style="stop-color:#FFFFFF"></stop> <stop offset="0.4947" style="stop-color:#AFB6C0"></stop> <stop offset="0.509" style="stop-color:#A5ADB9"></stop> <stop offset="0.5966" style="stop-color:#FAF9F8"></stop> <stop offset="0.6011" style="stop-color:#FAF9F8"></stop> <stop offset="0.7644" style="stop-color:#B1BDC5"></stop> <stop offset="0.7739" style="stop-color:#ADB9C2"></stop> </linearGradient> <path style="opacity:0.8;fill:url(#SVGID_00000181806906194250918810000012891839497914704778_);" d="M98.61,67.25 c0,0-1.1-1.22-9.75-1.72s-19.53,2.81-26.49,8.19c-6.96,5.5-11.11,12.35-12.46,20.65c-0.11,0.56-0.11,1.12-0.22,1.91 c-0.22,0.9-0.22,1.91-0.22,3.14c0,6.29,2.13,11.56,6.4,15.83L98.61,67.25z"></path> <path id="XMLID_475_" class="st18" d="M59.2,78.79c-0.55,0.64-1.05,1.28-1.27,2.12c1.46-0.35,2.51-1.33,3.89-1.84 c1.09-0.4,1.52-1.46,2.26-2.23c0.78-0.81,1.86-1.49,2.81-2.1c2.12-1.37,4.44-2.41,6.77-3.36c-1.1,0.45-2.75,0.3-3.95,0.62 c-1.4,0.38-2.75,0.92-4.03,1.6c-1.27,0.68-2.31,1.81-3.56,2.47c-0.52,0.27-0.93,0.21-1.39,0.66c-0.4,0.39-0.61,0.94-0.96,1.37 C59.58,78.35,59.39,78.57,59.2,78.79z"></path> </g> </g> </svg>