<svg xmlns="http://www.w3.org/2000/svg" xmlns:xlink="http://www.w3.org/1999/xlink" viewBox="0 0 100 44">
  <path d="M49.74.75c-.76 1.72-1.64 3.51-2.52 5.23-1.75.12-3.65-.07-5.33 0L44.4.86l.2-.15 5.14.04ZM37.62 24.1l-2.4 4.36h-5.3v-.2l9.64-18.38c1.95-.04 3.59-.07 5.57-.04l-7.5 14.26ZM81.25 9.92c-.57 1.64-1.6 3.17-2.36 4.82-3.01.19-5.8.11-8.65.11-.5.46-.57 1.15-.91 1.72l.15.15h8.15c-.65 1.69-1.6 3.3-2.4 4.93l-8.76.12-.92 1.99.12.15 8.34.04-2.28 4.62c-4.84.12-9.45-.04-14.37-.04l9.83-18.65c4.42 0 9.53-.04 14.06.04Zm-28.08 0c.42 3.06.8 6.23 1.33 9.29 1.9-2.95 3.28-6.27 5.1-9.29l5.42.04-5.9 11.27-3.93 7.23c-1.8.1-3.59.1-5.37 0-.5-2.87-1.11-5.66-1.68-8.56l-.3.3-4.62 8.18c-1.75.15-3.58.08-5.37.08l.04-.3 9.75-18.28 5.53.04Zm34.18-.04c.34 1.42.5 2.87.88 4.28 1.56-1.1 3-3.02 4.57-4.24 2.25 0 4.88-.04 7.2.04L89.3 20.2l1.4 8.37c-1.6.04-3.24.04-4.91 0-.3-1.34-.54-2.67-.88-3.97-1.49 1.07-2.93 2.71-4.46 3.97h-7.28v-.19l10.48-9.86.16-.2c-.42-2.82-1.15-5.61-1.5-8.44h5.04ZM41.78 1.21l-6.1 11.65c-2.7 5.24-5.49 10.28-8.23 15.48l-.57.08-17.15-.12a.96.96 0 0 1-.69-.68c-.07-1.34.88-2.3 1.34-3.4l7.31-13.76c1.18-.85 3.13-.62 4.35-.54 2.9-.08 6.44-.04 9.71-.04C33.62 6.98 35 3.77 36.78.75h5.15l-.16.46ZM29.2 15l-8.08-.04a1.08 1.08 0 0 0-.76.45l-3.7 7.04-.19.68c.16.27.54.16.73.27 2.63 0 5.07.12 7.73-.04 1.49-2.79 2.9-5.58 4.27-8.37Zm59.85 16.36H6.45L3.47 36.8h82.6l2.97-5.42Zm-3.35 6.5H2.97L0 43.3h82.73l2.97-5.42Z"/>
</svg>