<?xml version="1.0" encoding="UTF-8"?>
<svg id="Ebene_2" xmlns="http://www.w3.org/2000/svg" viewBox="0 0 213.87 170.41">
  <defs>
    <style>
      .cls-1 {
        fill: #c6c7c6;
      }

      .cls-2 {
        fill: #156082;
      }
    </style>
  </defs>
  <g id="Bildmarke">
    <path class="cls-2" d="M177.24,0c-7.02,41.63-25.96,80.34-54.54,111.41-4.84-4.78-9.51-9.72-14.02-14.8,19.81-21.68,33.99-47.9,41.29-76.35h-41.29V0h68.56Z"/>
    <path class="cls-1" d="M104,0v20.26h-40.51c5.36,11.3,11.89,22,19.48,31.94h-14.8c14.98,22.23,32.21,42.86,51.42,61.55h-26.49c-18.9-18.36-35.39-39.04-49.08-61.55h15.58c-7.28-9.85-13.54-20.42-18.67-31.54-3-6.52-4.86-13.51-5.49-20.66h68.56Z"/>
  </g>
  <g id="Schriftzug">
    <path class="cls-2" d="M209.53,158.89c-.36-.8-.69-1.43-1.02-1.83-.33-.4-.72-.76-1.22-1.03,1.39-.28,2.54-.99,3.43-2.15.86-1.11,1.32-2.5,1.32-4.17,0-3.02-.92-5.08-2.78-6.25-1.31-.82-3.35-1.26-6.16-1.26h-5.63v27.72h3.29v-12.31h1.95c1.05,0,1.78.16,2.21.38.66.34,1.19,1.12,1.64,2.36l3.53,9.57h3.79l-4.35-11.04ZM203.92,145.7c1.48,0,2.64.4,3.43,1.11.79.72,1.19,1.71,1.19,2.98,0,1.35-.46,2.42-1.32,3.18-.89.79-2.11,1.15-3.66,1.15h-2.8v-8.42"/>
    <polygon class="cls-2" points="179.49 142.21 179.49 169.93 192.38 169.93 192.38 166.44 182.79 166.44 182.79 157.3 191.52 157.3 191.52 153.81 182.79 153.81 182.79 145.7 192.38 145.7 192.38 142.21 179.49 142.21"/>
    <path class="cls-2" d="M157.74,145.67c2.27-2.62,5.21-3.93,8.77-3.93,1.49,0,2.8.16,3.92.41.66.15,1.62.5,2.83.99l-.26,4.01c-.85-.64-1.75-1.12-2.7-1.43-.99-.32-2.18-.48-3.63-.48-2.64,0-4.75,1.03-6.4,3.09-1.65,2.07-2.44,4.65-2.44,7.74s.82,5.84,2.49,7.85c1.66,2,3.74,2.99,6.18,2.99.95,0,1.74-.04,2.37-.18.6-.14,1.06-.22,1.32-.3v-8.42h-4.84v-3.26h8.14v14.42c-.79.31-1.78.63-2.93.85-1.16.22-2.51.38-4.09.38-3.7,0-6.63-1.27-8.84-3.89-2.21-2.62-3.3-6.12-3.3-10.57s1.12-7.67,3.4-10.28"/>
    <polygon class="cls-2" points="137.36 142.21 137.36 169.93 150.26 169.93 150.26 166.44 140.66 166.44 140.66 157.3 149.4 157.3 149.4 153.81 140.66 153.81 140.66 145.7 150.26 145.7 150.26 142.21 137.36 142.21"/>
    <path class="cls-2" d="M124.14,142.21h-3.46l-9.82,27.72h3.42l2.38-6.99h11.27l2.34,6.99h3.56l-9.69-27.72ZM117.72,159.68l4.58-13.74,4.55,13.74h-9.13Z"/>
    <path class="cls-2" d="M99.22,166.79c.39.08.79.12,1.19.12,1.38,0,2.4-.48,3-1.43.49-.8.76-2.14.76-3.97v-19.3h3.3v20.57c0,2.23-.46,4.01-1.35,5.29-1.09,1.58-2.81,2.34-5.12,2.34-1.08,0-1.98-.16-2.67-.48v-3.41c.2.08.5.2.89.28"/>
    <polygon class="cls-2" points="82.08 142.21 82.08 153.81 71.07 153.81 71.07 142.21 67.77 142.21 67.77 169.93 71.07 169.93 71.07 157.3 82.08 157.3 82.08 169.93 85.38 169.93 85.38 142.21 82.08 142.21"/>
    <path class="cls-2" d="M49.68,145.67c2.27-2.62,5.21-3.93,8.77-3.93.99,0,1.92.12,2.71.28.79.16,1.61.47,2.47.91l-.26,3.85c-1.45-1.03-3.03-1.55-4.75-1.55-2.64,0-4.78,1.03-6.4,3.05-1.65,2.07-2.44,4.65-2.44,7.78s.82,5.84,2.49,7.85c1.67,2,3.74,2.99,6.18,2.99.86,0,1.75-.12,2.74-.36.96-.24,1.71-.59,2.28-.99l.2,3.85c-.79.39-1.65.64-2.51.77-.89.14-1.81.22-2.73.22-3.69,0-6.63-1.27-8.84-3.89-2.21-2.62-3.29-6.12-3.29-10.57s1.12-7.66,3.4-10.28"/>
    <rect class="cls-2" x="38.31" y="142.21" width="3.3" height="27.72"/>
    <path class="cls-2" d="M30.03,158.89c-.36-.8-.7-1.43-1.03-1.83-.33-.4-.72-.76-1.22-1.03,1.38-.28,2.54-.99,3.43-2.15.86-1.11,1.32-2.5,1.32-4.17,0-3.02-.92-5.08-2.78-6.25-1.31-.82-3.35-1.26-6.15-1.26h0s-5.64,0-5.64,0v27.72h3.3v-12.31h1.95c1.05,0,1.78.16,2.21.38.65.34,1.19,1.12,1.64,2.36l3.52,9.57h3.79l-4.35-11.04ZM24.06,154.13h-2.8v-8.42h3.16c1.48,0,2.64.4,3.43,1.11.79.72,1.19,1.71,1.19,2.98,0,1.35-.46,2.42-1.32,3.18-.89.79-2.11,1.15-3.66,1.15Z"/>
    <polygon class="cls-2" points="0 142.21 0 169.93 12.89 169.93 12.89 166.44 3.3 166.44 3.3 157.3 12.03 157.3 12.03 153.81 3.3 153.81 3.3 145.7 12.89 145.7 12.89 142.21 0 142.21"/>
  </g>
</svg>