<svg xmlns="http://www.w3.org/2000/svg" xmlns:xlink="http://www.w3.org/1999/xlink" id="Layer_1" x="0px" y="0px" viewBox="0 0 550 127" style="enable-background:new 0 0 550 127;" xml:space="preserve"> <style type="text/css"> .st0{fill:#FFFFFF;} .st1{fill-rule:evenodd;clip-rule:evenodd;fill:#FFFFFF;} </style> <path class="st0" d="M470.63,35.82v28.83h8.74V53.69h18.23v10.96h8.74V35.82h-8.74v10.35h-18.23V35.82H470.63z M465.9,46.2 c0.04-1.97-0.21-5.55-0.9-6.77c-1.9-3.3-4.87-3.62-8.49-3.62h-14.08c-3.04,0-8.17,0.07-10.78,2.65c-2.69,2.72-2.54,6.38-2.54,10.03 v3.3c0,4.44-0.04,7.56,2.65,10.28c2.65,2.61,6.91,2.58,10.46,2.58h14.4c2.44,0,5.77,0,7.95-2.33c2.08-2.11,1.79-7.59,1.79-8.81 h-8.78c-0.07,1.29-0.11,1.97-0.43,2.54c-1,1.72-3.01,1.54-5.52,1.54h-7.52c-2.08,0-4.19,0.29-5.55-1.9 c-0.82-1.29-0.75-9.81-0.18-11.03c1-2.04,3.22-1.79,4.84-1.79h9.63c2.79,0.04,4.19,0.14,4.33,3.33H465.9z M393.93,35.82v28.83h31.73 v-7.06h-22.99v-4.41h21.31v-5.77h-21.31v-4.55h22.46v-7.06H393.93z M390.7,35.82h-33.27v7.06h12.14v21.78h8.74V42.87h12.39V35.82z M302.4,35.82l9.13,28.83h9.89l6.73-18.91l6.84,18.91h9.92l9.31-28.83h-8.52l-6.09,20.95l-7.27-20.95h-8.06l-7.34,20.99l-6.16-20.99 H302.4z M286.35,57.59h-9.81c-1.43,0-4.08,0.29-5.34-1.9c-0.29-0.43-0.43-1.86-0.43-3.51v-3.9c0-1.79,0.14-3.08,0.43-3.51 c1.25-2.15,3.9-1.9,5.34-1.9h9.81c1.43,0,4.08-0.25,5.34,1.9c0.29,0.43,0.43,1.93,0.43,3.51v3.9c0,1.61-0.14,3.08-0.43,3.51 C290.43,57.88,287.78,57.59,286.35,57.59z M274.78,64.65h13.68c2.01,0,7.95-0.11,10.39-2.58c2.33-2.36,2.01-6.7,2.01-9.17v-5.95 c0-2.08,0.29-6.48-2.01-8.63c-2.65-2.54-6.73-2.51-10.17-2.51h-14.11c-3.44,0-7.56-0.11-10.17,2.51c-2.54,2.47-2.36,6.55-2.36,8.63 v5.95c0,1.93,0.04,6.81,2.36,9.17C266.83,64.54,272.1,64.65,274.78,64.65z M230.05,35.82v28.83h28.44v-7.06h-19.7V35.82H230.05z M197.03,35.82v28.83h8.74v-9.92h19.88V48.1h-19.88v-5.23h20.85v-7.06H197.03z"></path> <path class="st1" d="M29.6,47.38c5.65-16.22,21.44-29.52,42.59-35.35c23.95-6.6,50.76-2.52,69.49,10.58h-18.81 c-1.29-0.49-2.62-0.95-3.96-1.37c-7.35-2.31-15.39-3.53-23.44-3.53c-8.04,0-16.09,1.22-23.44,3.53c-7.35,2.31-14.01,5.71-19.43,9.81 c-5.42,4.11-9.6,8.92-12.36,13.97c-0.43,0.78-0.82,1.57-1.18,2.36H29.6z M163.13,54.48c3.9,24.67-16.16,48.43-48.41,55.63 c-35.12,7.84-72.13-6.76-83.82-33.06h9.87c2.76,4.7,6.75,9.18,11.84,13.03c5.42,4.11,12.08,7.51,19.43,9.81 c7.35,2.31,15.39,3.53,23.44,3.53c8.04,0,16.09-1.22,23.44-3.53c7.35-2.31,14.01-5.71,19.43-9.81c5.42-4.11,9.6-8.92,12.36-13.96 c1.38-2.52,2.41-5.1,3.09-7.7c0.68-2.6,1.02-5.22,1.02-7.84c0-2.03-0.2-4.06-0.61-6.09H163.13z"></path> <path class="st1" d="M81.12,53.97H27.9c0.19-1.11,0.43-2.21,0.71-3.3h9.16h2.31h2.31c4.21-11.08,15.26-20.26,30.13-25.05 c14.88-4.79,32.03-4.69,46.78,0.28h44.9c1.69,2.13,3.22,4.33,4.58,6.59H93.16h-0.19l0.01,0.01c-0.36,0.03-0.71,0.16-1.01,0.36 l-7.44,5.21c-0.45,0.31-0.75,0.79-0.85,1.33L81.12,53.97z"></path> <path class="st1" d="M148.75,51.18c7.13,19.85-9.19,40.13-37.14,46.15c-27.95,6.01-57.73-4.35-67.76-23.58h-28 c-0.57-2.18-0.99-4.38-1.28-6.59H78.8l-3.7,21c-0.05,0.3,0.03,0.61,0.22,0.84c0.2,0.23,0.48,0.37,0.79,0.37h6.18 c0.42,0,0.83-0.13,1.18-0.37l7.44-5.21c0.45-0.31,0.75-0.79,0.84-1.33l2.7-15.29c4.21,0,8.42,0,12.63,0c0.42,0,0.83-0.13,1.18-0.37 l7.44-5.32c0.44-0.32,0.75-0.79,0.84-1.33l0.88-4.96c0.05-0.3-0.03-0.61-0.22-0.84c-0.2-0.23-0.48-0.37-0.79-0.37h-11.52h-8.12 l0.92-5.21c0.09-0.49,0.51-0.85,1.01-0.85c20.95,0,41.85-0.02,62.81-0.02c0.37,1.1,0.68,2.2,0.95,3.3h-9.12h-2.29H148.75z"></path> <path class="st0" d="M442.61,85.7V73.49v-0.61h0.61h11.83h0.61v0.61v1.34v0.61h-0.61h-9.65v2.7h9.22h0.61v0.61v1.28v0.61h-0.61 h-9.22v3.11h9.69h0.61v0.61v1.34v0.61h-0.61h-11.87h-0.61V85.7z M431.62,76.03c0.06,0.44,0.06,0.86,0.06,1.22v0.61h-0.61h-1.45 h-0.61l0-0.61l0-0.13v0c0-0.39,0.01-1-0.3-1.31l-0.01-0.02c-0.12-0.13-0.33-0.22-0.57-0.27c-0.3-0.07-0.67-0.08-1.04-0.08h-5.5v0 l-0.22,0h0c-0.84,0-2.1-0.01-2.54,0.42l0,0c-0.44,0.42-0.44,1.33-0.44,2.21l0,0.13h0v2.01h0l0,0.23c0,1.19,0,2.42,0.5,2.92 c0.43,0.39,1.57,0.38,2.29,0.37c0.21,0,0.15,0,0.27,0h5.14h0.05v0c0.92,0,1.71,0,2.15-0.75l0,0c0.13-0.22,0.15-0.85,0.16-1.53h-5.59 h-0.61v-0.61v-1.31v-0.61h0.61h7.88h0.61v0.61v1.17c0,0.33,0,0.23,0,0.25c0.01,1.06,0.03,2.99-1.09,4.13h0 c-0.53,0.55-1.18,0.85-1.88,1.01c-0.65,0.15-1.32,0.18-1.93,0.18h-5.72v0l-0.12,0c-0.92,0-3.13,0.01-4.32-1.18l0,0 c-1.18-1.17-1.18-3.05-1.18-4.25h0v-0.05v-2.65h0l0-0.14c0-1-0.01-2.83,1.13-3.96l0,0l0,0c1.17-1.18,2.88-1.18,4.39-1.18v0h0.06 h5.64c0.52,0,1.32,0.05,2.13,0.28c0.86,0.25,1.71,0.72,2.23,1.56l0,0C431.43,75.11,431.56,75.56,431.62,76.03z M398.28,75.99 l-2.98,5.13h5.95L398.28,75.99z M389.66,85.39l7.03-12.21l0.18-0.31h0.35h2.09h0.35l0.18,0.3l7.22,12.21l0.54,0.92h-1.07h-1.77 h-0.35l-0.18-0.3l-1.41-2.4h-8.95L392.48,86l-0.18,0.3h-0.35h-1.77h-1.05L389.66,85.39z M367.92,74.83v-1.34v-0.61h0.61h13.72h0.61 v0.61v1.34v0.61h-0.61h-5.41V85.7v0.61h-0.61h-1.57h-0.61V85.7V75.44h-5.52h-0.61V74.83z M343.32,85.7V73.49v-0.61h0.61h2.39h0.24 l0.18,0.17l10.03,9.77v-9.33v-0.61h0.61h1.55h0.61v0.61V85.7v0.61h-0.61h-2.41h-0.25l-0.18-0.17l-10-9.73v9.29v0.61h-0.61h-1.57 h-0.61V85.7z M324.89,75.99l-2.98,5.13h5.95L324.89,75.99z M316.27,85.39l7.03-12.21l0.18-0.31h0.35h2.09h0.35l0.18,0.3l7.22,12.21 l0.54,0.92h-1.07h-1.77h-0.35l-0.18-0.3l-1.41-2.4h-8.95L319.09,86l-0.18,0.3h-0.35h-1.77h-1.05L316.27,85.39z M294.92,72.88h1.8 h0.36l0.17,0.32l5.28,9.79l5.4-9.8l0.17-0.32h0.36h1.74h1.03l-0.5,0.9l-6.71,12.21l-0.17,0.32h-0.36h-1.98h-0.36l-0.17-0.32 l-6.6-12.21l-0.48-0.9H294.92z M272.72,75.44v8.31h6.81c0.19,0,0.05,0,0.27,0c0.96,0.01,2.38,0.02,2.95-0.98l0-0.01 c0.27-0.46,0.41-1.79,0.41-3.16c0-1.4-0.14-2.78-0.41-3.24v0c-0.56-0.97-2.23-0.95-3-0.93c-0.16,0-0.15,0.01-0.23,0.01H272.72z M270.54,72.88h9.14c0.85,0,1.87,0.01,2.86,0.26c1.05,0.27,2.03,0.8,2.65,1.86l0,0c0.53,0.91,0.77,2.69,0.76,4.46 c-0.01,1.83-0.28,3.7-0.79,4.61l0,0c-1.26,2.23-4.05,2.23-5.44,2.23v0h-0.08h-9.1h-0.61V85.7V73.49v-0.61H270.54z M253.2,75.99 l-2.98,5.13h5.95L253.2,75.99z M244.59,85.39l7.03-12.21l0.18-0.31h0.35h2.09h0.35l0.18,0.3l7.22,12.21l0.54,0.92h-1.07h-1.77h-0.35 l-0.18-0.3l-1.41-2.4h-8.95L247.41,86l-0.18,0.3h-0.35h-1.77h-1.05L244.59,85.39z"></path> <path class="st1" d="M197.14,77.75h37.58v3.69h-37.58V77.75z M468.44,77.75h37.58v3.69h-37.58V77.75z"></path> </svg>