<?xml version="1.0" encoding="utf-8"?>
<!-- Generator: Adobe Illustrator 23.0.2, SVG Export Plug-In . SVG Version: 6.00 Build 0)  -->
<svg version="1.1" id="Layer_1" xmlns="http://www.w3.org/2000/svg" xmlns:xlink="http://www.w3.org/1999/xlink" x="0px" y="0px"
	 width="2204.1px" height="400px" viewBox="0 0 2204.1 400" style="enable-background:new 0 0 2204.1 400;" xml:space="preserve">
<style type="text/css">
	.st0{fill:#F7941D;}
	.st1{fill:#6E6E73;}
</style>
<g>
	<g>
		<rect x="0.4" y="14" width="25.8" height="163.1"/>
	</g>
	<g>
		<polygon points="260.9,191 89.2,53.7 89.2,177.1 63.5,177.1 63.5,0 235.2,137.4 235.2,14 260.9,14 		"/>
	</g>
	<g>
		<path d="M491.2,108.4H319.5v68.7h-25.8v-82c0-25.3,7.1-45.2,21.3-59.7c14.1-14.3,34.1-21.5,59.9-21.5h116.3v25.8H375.8
			c-9.3,0-17.3,0.8-23.8,2.3c-6.6,1.6-12.1,4.1-16.5,7.5c-4.4,3.5-7.9,7.9-10.3,13.3c-2.4,5.4-4.1,12-4.9,19.7h171.1L491.2,108.4
			L491.2,108.4z"/>
	</g>
	<g>
		<rect x="530.5" y="14" width="25.8" height="163.1"/>
	</g>
	<g>
		<polygon points="791,191 619.3,53.7 619.3,177.1 593.6,177.1 593.6,0 765.3,137.4 765.3,14 791,14 		"/>
	</g>
	<g>
		<rect x="833.3" y="14" width="25.8" height="163.1"/>
	</g>
	<g>
		<path d="M1085.5,39.7h-85.8v137.3h-25.8V39.7c-17.6,0-30.8,2.4-39.5,7.3c-8,4.6-13.5,12.2-16.5,23c-1.1,3.7-2.1,8.8-2.9,15.3
			c-0.8,6.4-1.5,14.4-2,23.8l-25.5-1.5c1.7-31.8,7.8-54.6,18.3-68.4C918.1,22.3,939.3,14,969.2,14h116.3V39.7z"/>
	</g>
	<g>
		<path d="M1291.1,177.1h-197.4v-82c0-25.3,7.1-45.2,21.3-59.7C1129,21.1,1149,14,1174.8,14h116.3v25.8h-115.5
			c-9.3,0-17.2,0.8-23.8,2.3c-6.6,1.6-12.1,4.1-16.6,7.5c-4.4,3.4-7.8,7.9-10.3,13.3c-2.5,5.4-4.1,12-4.9,19.7h171v25.8h-171.7v42.9
			h171.7L1291.1,177.1L1291.1,177.1z"/>
	</g>
	<g>
		<path class="st0" d="M1517.5,199.4l-16.1,20l-92.5-73.8h-68.5v68.7h-25.8v-82c0-25.3,7.1-45.2,21.3-59.7
			c14.2-14.3,34.1-21.5,59.8-21.5h116.3v94.4h-62.2L1517.5,199.4z M1486.4,119.8V76.9h-17.2h-10.3c-3.4,0-7.1-0.1-11-0.2
			c-7.7-0.2-14.1-0.3-19.2-0.3c-5.1-0.1-9-0.1-11.7-0.1c-28.9,0-47.8,2.5-56.5,7.3c-10.3,5.4-16.5,17.5-18.7,36.2
			C1341.9,119.8,1486.4,119.8,1486.4,119.8z"/>
	</g>
	<g>
		<path class="st0" d="M1745.4,51.1v82c0,12.7-1.8,24.1-5.4,34.1c-3.6,10-8.8,18.5-15.8,25.5c-6.9,7-15.4,12.4-25.5,16
			c-10.1,3.6-21.6,5.5-34.4,5.5H1548V51.1h25.8v137.3c5,0,10.7,0,17.1,0.1c6.3,0,13.4,0.2,21.1,0.3c3.8,0.2,7.4,0.2,10.5,0.2h8.8
			h11.8c29.2,0,48.3-2.6,57.3-7.7c10.2-5.7,16.3-18.4,18.3-38.2c0.3-4,0.5-13.6,0.8-28.8c0.2-15.2,0.3-36.3,0.3-63.3L1745.4,51.1
			L1745.4,51.1z"/>
	</g>
	<g>
		<path class="st0" d="M1977.7,214.2h-197.5v-82c0-29.8,8.7-51,26.2-63.7c14.5-10.6,37.5-16.6,69.1-18l-0.2,25.5
			c-26.5,1.6-44.8,6.6-54.9,15.1c-8.5,7.3-13.2,19.5-14.2,36.7c-0.1,5.1-0.2,10.3-0.2,15.4v15.1v30.2h171.7V214.2z"/>
	</g>
	<g>
		<path class="st0" d="M2204.1,214.2h-197.5v-82c0-25.3,7.1-45.2,21.3-59.7c14.2-14.3,34.1-21.5,59.9-21.5h116.3v25.7h-115.5
			c-9.3,0-17.3,0.8-23.8,2.3c-6.6,1.6-12.1,4.1-16.5,7.5c-4.4,3.4-7.9,7.9-10.3,13.3c-2.4,5.4-4.1,12-4.9,19.7h171.1v25.8h-171.7
			v42.9h171.7V214.2z"/>
	</g>
	<g>
		<g>
			<rect y="198" class="st1" width="1291" height="16.5"/>
		</g>
	</g>
	<g>
		<g>
			<rect x="1314.9" y="14" class="st1" width="889.3" height="16.8"/>
		</g>
	</g>
	<g>
		<path d="M712.5,297.3h-81.5V324h77.7c12.2,0,20.4,2.1,24.7,6.2c4.3,4.2,6.4,11.9,6.4,23.2v17.1c0,11.3-2.1,19.1-6.4,23.2
			c-4.3,4.2-12.5,6.3-24.7,6.3h-77c-12.2,0-20.4-2.1-24.7-6.3c-4.3-4.2-6.4-11.9-6.4-23.2v-3.4l25.6-5.3v14.7h88v-28.4h-77.7
			c-12.1,0-20.3-2.1-24.5-6.2s-6.4-11.9-6.4-23.2v-13.8c0-11.3,2.1-19,6.4-23.2s12.4-6.2,24.5-6.2h70.7c11.7,0,19.8,2,24.2,6
			c4.4,4,6.7,11.1,6.7,21.3v2.6l-25.6,6L712.5,297.3L712.5,297.3z"/>
		<path d="M790.7,400V298h109.5v18h-84.4v22.3H865v17.6h-49.1v25.1h85.7V400H790.7z"/>
		<path d="M1026.9,316.7h-67v63.8h67v-21.7l25.1,5.1v12c0,9.3-1.8,15.6-5.5,19c-3.7,3.4-10.8,5.1-21.2,5.1h-63.8
			c-10.3,0-17.3-1.7-21-5.1c-3.7-3.4-5.5-9.7-5.5-19.1V322c0-9.3,1.8-15.6,5.5-19c3.7-3.4,10.7-5.1,21-5.1h63.7
			c10.5,0,17.6,1.7,21.3,5.1c3.7,3.4,5.5,9.7,5.5,19v9.9l-25.1,3.7L1026.9,316.7L1026.9,316.7z"/>
		<path d="M1117.6,298v83h71.1v-83h25.1v77.9c0,9.3-1.9,15.6-5.6,19s-10.8,5.1-21.3,5.1h-67.5c-10.4,0-17.4-1.7-21-5.1
			c-3.7-3.4-5.5-9.7-5.5-19.1V298H1117.6z"/>
		<path d="M1259.1,400V298h91.9c8.4,0,14.5,1.5,18.3,4.6c3.8,3.1,5.7,8.1,5.7,15.1v24c0,6.9-1.9,11.9-5.7,15
			c-3.8,3.1-9.9,4.6-18.3,4.6h-14l48.6,38.6h-35.7l-42.8-38.6h-23.4V400H1259.1z M1340.4,315.5h-56.8v28.3h56.8
			c4.3,0,7.3-0.6,8.9-1.9s2.4-3.4,2.4-6.4v-11.8c0-3-0.8-5.1-2.4-6.4C1347.7,316.1,1344.8,315.5,1340.4,315.5z"/>
		<path d="M1416,400V298h24.7v102H1416z"/>
		<path d="M1547,316.2V400h-24.9v-83.8h-49.3V298h123.5v18.3H1547z"/>
		<path d="M1667.1,400v-45.8l-55.7-56.2h33.6l36.4,38.1l36.9-38.1h29.2l-55.5,55.7V400H1667.1z"/>
	</g>
</g>
</svg>