<svg xmlns="http://www.w3.org/2000/svg" viewBox="0 0 221.44 32.41"><defs><style>.ffc02fe4-d1d9-4c56-af27-ea6cb1122b8c{fill:#231f20;}</style></defs><g id="b0dae7f0-7679-4ab4-8c81-1fafad44562b" data-name="Layer 2"><g id="b1fc1a79-1555-49d4-a2c8-8fb9129b50b8" data-name="Layer 1"><path class="ffc02fe4-d1d9-4c56-af27-ea6cb1122b8c" d="M9.72.57H21.61L14.32,24.24H34.79l-2.37,7.59H0Z"/><path class="ffc02fe4-d1d9-4c56-af27-ea6cb1122b8c" d="M55.12,32.41q-8.26,0-12.91-2.88a9.7,9.7,0,0,1-5-8.06A12.58,12.58,0,0,1,37.34,19a16.08,16.08,0,0,1,.58-2.57L42.77.57h12L49.67,17.09a8.66,8.66,0,0,0-.37,1.48A6.53,6.53,0,0,0,49.23,20a4.16,4.16,0,0,0,1.92,3.35,9,9,0,0,0,5,1.21,9.5,9.5,0,0,0,5.73-1.66,8.5,8.5,0,0,0,1.93-2.07,11.88,11.88,0,0,0,1.38-3.11L70.51.57h12L76.81,19.06a18,18,0,0,1-6.12,9.33A17.88,17.88,0,0,1,64,31.45,37.55,37.55,0,0,1,55.12,32.41Z"/><path class="ffc02fe4-d1d9-4c56-af27-ea6cb1122b8c" d="M87.85.57H99.74L95.83,13.08,114.64.57h13.59l-20,13.37,10.34,17.89H106.32L99.41,19.77l-7.15,4.85-2.18,7.21h-12Z"/><path class="ffc02fe4-d1d9-4c56-af27-ea6cb1122b8c" d="M131.37.57h34.92L164,7.9H140.82l-1.5,4.77H159.2l-2.11,6.79H137.22l-1.55,5H158.6l-2.26,7.37H121.65Z"/><path class="ffc02fe4-d1d9-4c56-af27-ea6cb1122b8c" d="M178,21.83,168.84.57h12.21l5.52,12.8L199.4.57h11.73L190,21.83l-3.14,10H174.93Z"/><path d="M214.08.66l.14-.66h3l-.14.66H216l-.61,2.91h-.79L215.2.66Z"/><path d="M218.69,0,219,2.58h0L220.35,0h1.09l-.75,3.57H220L220.6.73h0l-1.51,2.84h-.6L218.14.73h0l-.54,2.84h-.74L217.6,0Z"/></g></g></svg>