<?xml version="1.0" encoding="utf-8"?>
<!-- Generator: Adobe Illustrator 26.0.3, SVG Export Plug-In . SVG Version: 6.00 Build 0)  -->
<svg version="1.1" id="Layer_1" xmlns="http://www.w3.org/2000/svg" xmlns:xlink="http://www.w3.org/1999/xlink" x="0px" y="0px"
	 viewBox="0 0 440.3 95.6" style="enable-background:new 0 0 440.3 95.6;" xml:space="preserve">
<style type="text/css">
	.st0{fill:#FFF100;}
</style>
<g>
	<path class="st0" d="M36.7,0.6c14.3,0,20.8,1.3,20.8,10.6c0,2.3-0.3,5.3-0.9,8.9l-3.5,23.6c-2.4,16.7-5.5,19.6-25.7,19.6h-3
		l-4.8,31.6H0L14.1,0.6H36.7z M26.6,48.1c0.7,0,1.4,0.1,2,0.1c4.3,0,4.4-1.6,5.1-6.3l3-19.9c0.3-2.2,0.5-3.5,0.5-3.6
		c0-2.3-1.2-2.7-4.1-2.7c-0.5,0-1,0-1.6,0L26.6,48.1z"/>
	<path class="st0" d="M93.9,0.6L92,94.9H73.4l1.4-18.6h-8.2l-4.3,18.6H43.8L70.1,0.6H93.9z M69.8,61h6.4l2.6-36.4h-0.8L69.8,61z"/>
	<path class="st0" d="M148.8,32.6h-19.6l1.9-12.5c0.1-1.2,0.2-1.7,0.2-1.9c0-2-0.8-2.8-2.9-2.8c-2.6,0-3,1.7-3.5,4.6l-8.2,55.2
		c-0.1,0.8-0.1,1.5-0.1,2c0,2,0.7,2.8,2.6,2.8c2.7,0,3.3-1.7,3.7-4.8l3-20.4h19.7l-3.3,21c-1,7.1-1.7,12.1-5.2,15.6
		c-3.8,3.8-10.1,4.2-20.3,4.2c-13.5,0-20.7-1-20.7-9.4c0-2.4,0.2-5.9,0.9-10.3l8.4-56.3c1-7,1.9-11.8,5-15.2
		C114.3,0.1,120.7,0,131,0c13.9,0,20.7,0.6,20.7,10.2c0,2.3-0.3,5.5-0.9,9.3L148.8,32.6z"/>
	<path class="st0" d="M189.8,0.6l-2.3,15.2h-11.8l-2.9,19.6h11.8l-2.3,15.3h-11.7l-4.3,28.8H178l-2.2,15.3h-31.5l14.1-94.3H189.8z"
		/>
	<path class="st0" d="M218.5,0.6l-0.6,47.7h0.8l13.8-47.7h24l-14.2,94.3h-17.7l8.1-54.4h-0.8L217,94.9h-11l1-54.4h-0.7l-8.1,54.4
		h-17.8l14.1-94.3H218.5z"/>
	<path class="st0" d="M295.2,0.6l-1.9,94.3h-18.6l1.4-18.6h-8.2l-4.3,18.6h-18.5l26.3-94.3H295.2z M271.1,61h6.4l2.6-36.4h-0.8
		L271.1,61z"/>
	<path class="st0" d="M328.9,0.6l-5.7,37.9h0.8l12.7-37.9h19.5L339.6,43l4.9,51.9h-19.7l-2.3-45.2h-0.8l-6.7,45.2H296l14.1-94.3
		H328.9z"/>
	<path class="st0" d="M392.2,0.6l-2.3,15.2H378l-2.9,19.6H387l-2.3,15.3h-11.7l-4.3,28.8h11.7l-2.2,15.3h-31.5l14.1-94.3H392.2z"/>
	<path class="st0" d="M419.5,0.6c14.3,0,20.8,1.3,20.8,10.6c0,2.3-0.3,5.2-0.9,8.9l-1.4,9.8c-1.5,10.3-2.7,15.9-12,19.1
		c5.2,1.6,7.2,4.4,7.2,9.6c0,1.6-0.1,3.6-0.5,5.7l-4.5,30.7h-19.6l4.9-32.4c0.1-0.7,0.1-1.4,0.1-2.1c0-2.2-1.3-2.9-4.2-2.9
		c-0.3,0-0.9,0-1.4,0l-5.6,37.4h-19.6l14.1-94.3H419.5z M410.7,40c0.8,0,1.4,0.1,2,0.1c4.2,0,4.4-1.6,5.1-6.3l1.7-11.7
		c0.3-2.2,0.5-3.5,0.5-3.6c0-2.3-1.2-2.7-4.1-2.7c-0.5,0-1,0-1.6,0L410.7,40z"/>
</g>
</svg>