<?xml version="1.0" encoding="utf-8"?>
<!-- Generator: Adobe Illustrator 25.2.3, SVG Export Plug-In . SVG Version: 6.00 Build 0)  -->
<svg version="1.1" id="Layer_1" xmlns="http://www.w3.org/2000/svg" xmlns:xlink="http://www.w3.org/1999/xlink" x="0px" y="0px"
	 viewBox="0 0 841.9 234" style="enable-background:new 0 0 841.9 234;" xml:space="preserve">
<style type="text/css">
	.st0{fill:#FFFFFF;}
	.st1{fill:none;}
	.st2{fill-rule:evenodd;clip-rule:evenodd;fill:#949597;}
	.st3{fill:#C41E1E;}
</style>
<polygon class="st0" points="39.2,98.7 11.1,78.9 9.2,111.1 18.7,134.9 25,147.5 "/>
<g>
	<polygon class="st1" points="13.9,84.7 12.4,110.7 21.6,133.6 24.3,138.9 35.7,99.9 	"/>
	<polygon class="st1" points="61.8,214 65.4,215.3 63.8,211.7 	"/>
	<path class="st0" d="M56.4,215.4l12.3,4.5l0.1,10.1l2.4-3.4l3.8,3.2l-10.3-23.7L56.4,215.4z M61.8,214l2-2.3l1.6,3.6L61.8,214z"/>
	<path class="st0" d="M29.3,153.1l13.5-57L15,79.1L5.5,47.4L10,16.7l24.5-10l32.1,16.9l7.4,9.5l11.3-5.8l18.3,7.9l13.9,28.9
		L135.1,88l18.4,6.3l26.1-1.9l33.9,37.4l-1.7,42.2l7.2,6.6l4.5,35.6l-8.1,12.7l11-11.9l-4.8-37.9l-7-6.4l1.7-42l-35.8-39.5l-27,2
		l-16.8-5.8l-16.9-22.9l-14.3-29.7l-20.6-8.9l-10.4,5.3l-6.2-8l-34-17.8L7.2,14.5L2.3,47.7l5.9,19.8L6,111.7l9.8,24.4l10.1,20.2
		l-6.7,65.5l8.8,7.5l-5.5-8.3L29.3,153.1z M24.3,138.9l-2.7-5.3l-9.2-22.9l1.5-26l21.8,15.2L24.3,138.9z"/>
	<polygon class="st0" points="132.6,218.8 133.9,197.8 147.4,174.3 106.6,185.6 98.3,214.5 108.6,221 105.9,229 112.2,219.7
		101.8,213.2 108.9,188.2 140.7,179.4 130.6,197 129.3,217.1 122.6,221.2 126.9,230.2 127.1,230.2 126.2,222.6 	"/>
	<polygon class="st0" points="189.1,214.3 181.6,202.3 201.6,181 178.7,197.6 170.8,218.7 165.8,228.3 173.2,220.3 179,204.7
		184.9,214.1 177.5,223.2 182.6,230.1 182.7,230.1 181.3,223.9 	"/>
	<polygon points="219,178.6 211.8,172 213.5,129.8 179.6,92.4 153.5,94.3 135.1,88 117.5,64.1 103.6,35.2 85.3,27.3 74,33.1
		66.6,23.6 34.5,6.7 10,16.7 5.5,47.4 15,79.1 42.8,96.1 29.3,153.1 22.5,221 28,229.3 29.1,230.9 68.8,230.9 68.8,230 68.7,219.9
		56.4,215.4 64.7,206.1 75,229.8 75.5,230.9 105.3,230.9 105.9,229 108.6,221 98.3,214.5 106.6,185.6 147.4,174.3 133.9,197.8
		132.6,218.8 126.2,222.6 127.1,230.2 127.2,230.9 164.5,230.9 165.8,228.3 170.8,218.7 178.7,197.6 201.6,181 181.6,202.3
		189.1,214.3 181.3,223.9 182.7,230.1 182.9,230.9 212.8,230.9 215.4,226.9 223.5,214.2 	"/>
</g>
<polygon points="39.2,98.7 11.1,78.9 9.2,111.1 18.7,134.9 25,147.5 "/>
<polygon class="st2" points="152.5,99.5 131.7,92.2 112.6,67.4 98.5,38 101.1,64.1 90.4,59.1 105.2,105.1 115.1,105.1 125.1,131.6
	135,115 131.7,144.8 162.7,121.7 162.7,105.1 169.3,118.4 205.1,128.7 177,97.4 "/>
<polygon class="st0" points="25.2,50.8 40.4,40.5 47.7,39.9 40.4,36.7 24.1,45.4 12.3,39.7 8.7,47.4 14.1,62.5 15.5,57.8 12.8,48.5
	13.9,45.2 "/>
<polygon class="st0" points="24.7,55.3 33.4,51.5 33.4,58.5 37.5,57.6 34.4,61.6 37.5,66 36.6,71 24,68 18.6,74.2 16.4,68.2
	18.7,62.5 16.4,60.8 18,54.6 21.4,53.8 "/>
<polygon points="19.1,59.9 21,60.5 21.6,59 25.1,60.5 28.4,57.9 30.8,61 31.2,54.6 25.1,59.5 19.5,56.6 "/>
<polygon class="st0" points="19.3,77 24.5,69.5 40.8,75.2 26.9,72.8 22.6,76.5 26.2,75.2 33.4,85.5 "/>
<polygon class="st0" points="17.3,52 19.5,51.6 16.7,50.1 "/>
<polygon class="st0" points="30.7,50.2 33.5,49.5 33.6,47.9 "/>
<polygon class="st0" points="13.5,19.5 31.2,12.3 21.1,20.1 27.7,20.3 19,25.2 19,39.1 15.1,34.1 10.9,38.1 "/>
<polygon class="st0" points="42.4,205.7 26.9,216.8 33.4,174.5 44.5,149.1 33,208.2 "/>
<polygon class="st0" points="74.6,79.8 74.6,89.2 68.4,86 65.2,95.4 59,92.3 36.8,149.1 61.9,49.4 83.5,32.7 76.3,64.2 87.2,76 "/>
<polygon class="st0" points="85.3,184.4 90.5,168.1 90.5,134.2 97.7,172 145.5,169.8 "/>
<polygon class="st0" points="13.9,110 13.9,98.7 16.4,110 18.5,106.8 18.5,118.8 21.6,115.7 23.1,134.2 "/>
<polygon class="st0" points="410,181.8 410,172.4 273.6,172.1 "/>
<polygon class="st0" points="705.5,181.8 841.9,172.5 705.5,172.4 "/>
<polygon class="st3" points="545.3,159.7 535.1,173.8 525,159.7 515.3,159.7 515.3,194.4 525.1,194.4 525.1,176.7 532.3,186.5
	538,186.5 545.2,176.7 545.2,194.4 554.9,194.4 554.9,159.7 "/>
<polygon class="st3" points="633,159.7 633,184.6 617.9,184.6 617.9,159.7 608.1,159.7 608.1,190.2 612.3,194.4 638.6,194.4
	642.8,190.2 642.8,159.7 "/>
<path class="st3" d="M573.9,169.5H589v15.1h-15.1V169.5z M568.3,159.7l-4.2,4.2v26.3l4.2,4.2h26.3l4.2-4.2v-26.3l-4.2-4.2H568.3
	L568.3,159.7z"/>
<path class="st3" d="M437.8,169.5h15.1v6.2h-15.1V169.5z M432.2,159.7l-4.2,4.2v30.5h9.8v-8.9h15.1v8.9h9.8v-30.5l-4.2-4.2H432.2z"
	/>
<path class="st3" d="M481.5,169.5h15.1v4.2l-2,2h-13.1V169.5z M471.7,159.7v34.7h9.8v-8.9h13.1l2,2v6.9h9.8v-10.9l-2.9-2.9l2.9-2.9
	v-13.8l-4.2-4.2L471.7,159.7L471.7,159.7z"/>
<path class="st3" d="M661.9,169.5H677v4.2l-2,2h-13.1V169.5z M652.2,159.7v34.7h9.8v-8.9h13l2,2v6.9h9.8v-10.9l-2.9-2.9l2.9-2.9
	v-13.8l-4.2-4.2L652.2,159.7L652.2,159.7z"/>
<rect x="337" y="88.6" class="st0" width="16.2" height="57.6"/>
<polygon class="st0" points="522.7,130 481.4,130 481.4,125.5 517.6,125.5 517.6,109.3 481.4,109.3 481.4,104.9 522.7,104.9
	522.7,88.6 472.2,88.6 465.2,95.6 465.2,139.2 472.1,146.2 522.7,146.2 "/>
<polygon class="st0" points="443,117.4 430.5,128.7 417.9,117.4 417.9,88.6 401.7,88.6 401.7,124.6 425.7,146.2 435.4,146.2
	459.3,124.6 459.3,88.6 443,88.6 "/>
<path class="st0" d="M663.1,88.6l-7,7v50.6h16.2v-14.8h25.1v14.8h16.2V95.6l-7-7H663.1z M697.4,115.2h-25.1v-10.3h25.1V115.2z"/>
<polygon class="st0" points="770.5,146.2 777.5,139.2 777.5,122.6 761.2,122.6 761.2,130 736.1,130 736.1,104.9 761.2,104.9
	761.2,113 777.5,113 777.5,95.6 770.5,88.6 726.9,88.6 719.9,95.6 719.9,139.2 726.9,146.2 "/>
<path class="st0" d="M592.3,88.6v57.6h50.6l7-7v-17.8l-4-4l4-4V95.6l-7-7H592.3z M608.6,109.3v-4.4h25.1v1.8l-2.6,2.6H608.6z
	 M633.7,128.2v1.8h-25.1v-4.4H631L633.7,128.2z"/>
<polygon class="st0" points="416.5,146.2 398.5,130 375.2,130 375.2,88.6 359,88.6 359,139.2 365.9,146.2 "/>
<polygon class="st0" points="280.6,88.6 273.6,95.6 273.6,118.6 280.6,125.5 314.9,125.5 314.9,130 274.3,130 274.3,146.2
	324.2,146.2 331.2,139.2 331.2,116.3 324.2,109.3 289.8,109.3 289.8,104.9 330.3,104.9 330.3,88.6 "/>
<path class="st0" d="M544.7,131.4h21.7l3.4,3.4v11.4H586v-18.1l-4.8-4.8l4.8-4.8v-23l-7-7h-50.6v57.6h16.2L544.7,131.4L544.7,131.4z
	 M569.8,111.8l-3.4,3.4h-21.7v-10.3h25.1L569.8,111.8L569.8,111.8z"/>
<polygon class="st0" points="825.7,88.6 800.6,111.4 800.6,88.6 784.3,88.6 784.3,146.2 800.6,146.2 800.6,123.4 825.7,146.2
	841.9,146.2 841.9,139.4 818.1,117.4 841.9,95.8 841.9,88.6 "/>
</svg>