<svg xmlns="http://www.w3.org/2000/svg" fill="#fff" viewBox="0 0 305.265 45.402"><path d="M71.009 25.06v2.948c.021 3.599-2.003 6.899-5.222 8.51l-12.846 6.526-12.846-6.526a9.53 9.53 0 0 1-5.223-8.508v-2.95H18.447c-.001 1.587.629 3.108 1.751 4.23s2.644 1.752 4.23 1.751h8.76a11.59 11.59 0 0 0 5.981 7.37l13.814 6.991 13.814-7.034a11.43 11.43 0 0 0 5.939-7.37h8.76a5.98 5.98 0 0 0 4.23-1.75c1.122-1.121 1.752-2.643 1.751-4.23l-16.468.042zm2.106-14.91V7.16c.002-1.899-.752-3.722-2.095-5.065S67.854-.002 65.955 0H39.969c-1.899-.002-3.722.752-5.065 2.095a7.15 7.15 0 0 0-2.095 5.065v2.99H0a6 6 0 0 0 5.981 5.981h28.934V7.16a5.08 5.08 0 0 1 5.1-5.054h25.94c2.798.003 5.072 2.256 5.1 5.054v8.971h28.934c1.587.001 3.108-.629 4.23-1.751s1.752-2.644 1.751-4.23zm-4.169 7.455V7.16a3 3 0 0 0-2.99-2.99h-8.972a3 3 0 0 0-2.99 2.99v13.436a3 3 0 0 0 2.99 2.99h4.464v-5.981h-1.474v-7.454h2.99v17.9a1.54 1.54 0 0 1-.8 1.348l-2.148 1.1V25.06h-5.981v15.12l10.866-5.517a7.49 7.49 0 0 0 4.085-6.654v-4.423h21.775c1.587.001 3.108-.629 4.23-1.751s1.752-2.644 1.751-4.23zM45.95 30.451l-2.19-1.1c-.505-.257-.817-.782-.8-1.348V4.17h-2.99a3 3 0 0 0-2.99 2.99v10.445H9.224c-.001 1.587.629 3.108 1.751 4.23s2.644 1.752 4.23 1.751h21.774v4.464a7.46 7.46 0 0 0 4.085 6.654l10.866 5.517V4.17h-5.98v26.281zm85.666-20.301v11.666c0 6.191-3.748 9.6-9.855 9.6s-9.855-3.285-9.855-9.687V10.15h5.9v11.624c0 3.285 1.558 4.633 3.959 4.633 2.359 0 3.959-1.39 3.959-4.591V10.15zm9.729-.042v15.878h9.982v5.012h-15.921v-20.89zm13.519 4.886h-6.107v-4.886h18.11v4.886h-6.149v16h-5.854zm15.415 16.004v-20.89h5.9v20.89z"/><path d="M222.462 27.587h-9.35l-1.348 3.411h-6.275l9.35-20.89h5.981l9.35 20.89h-6.318zm-4.673-11.625-2.7 6.655h5.349z" fill-rule="evenodd"/><path d="M233.623 14.994h-6.107v-4.886h18.11v4.886h-6.149v16h-5.854zm31.925 16.004h-16.72v-20.89h16.3v4.97H254.64v2.99h9.9v4.8h-9.9v3.16h10.908z"/><path d="M273.887 24.932c.126 1.264 1.474 1.811 3.117 1.811s3.5-.884 3.5-2.7v-1.806a7.43 7.43 0 0 1-4.844 1.432c-4.422 0-7.707-2.359-7.707-6.781 0-5.138 4.507-7.2 9.1-7.2 4.506 0 9.224 2.106 9.224 7.244v7.034c0 5.265-4.591 7.286-9.224 7.286-4.675 0-8.845-1.558-8.845-6.4h5.686zm-.042-8c0 1.643 1.263 2.527 3.2 2.527 2.316 0 3.411-1.1 3.411-2.485 0-1.221-1.137-2.359-3.411-2.359-1.725-.001-3.196.799-3.196 2.315z" fill-rule="evenodd"/><path d="m192.053 25.397-5.812-6.865v12.466h-5.854v-20.89h6.191l5.475 7.076 5.475-7.076h6.149v20.89h-5.812V18.531z"/><path d="M305.264 14.096c0 4.629-3.087 8.537-8.537 8.537s-8.436-3.908-8.436-8.537 3.087-8.537 8.436-8.537c5.45 0 8.537 3.908 8.537 8.537zm-8.537 6.688c4.01 0 6.275-2.986 6.275-6.583s-2.266-6.688-6.275-6.688-6.275 2.982-6.275 6.688 2.261 6.583 6.275 6.583zm4.216-2.78v.413h-2.161l-2.262-2.881h-1.129v2.881h-1.954V9.674h4.115c3.807 0 4.321 4.835 1.133 5.555zm-5.552-6.477v2.363h2.06c.436.022.849-.198 1.074-.573s.225-.843 0-1.217-.638-.595-1.074-.573z" fill-rule="evenodd"/></svg>