<svg xmlns="http://www.w3.org/2000/svg" viewBox="0 0 595.06 172.42"><defs><style>.e5f35f0a-61e0-407e-9d3f-3d67b064da21{fill:#939598;}.f9f9febd-f6cb-4e01-bad2-83718e138ea4{fill:#0095da;}</style></defs><g id="a58da2df-e9c6-4eea-9071-e2138b539a0f" data-name="Layer 2"><g id="bb85bb13-ac88-4f90-950d-a8bd7b76c710" data-name="Layer 1"><rect class="e5f35f0a-61e0-407e-9d3f-3d67b064da21" x="1.33" y="137.26" width="4.59" height="34.58"/><path class="e5f35f0a-61e0-407e-9d3f-3d67b064da21" d="M29.54,137.26h4.69l15,22.41a40.16,40.16,0,0,1,4,6.81l.1-.09a61.63,61.63,0,0,1-.73-8.31l-.19-20.82h4.39v34.58H52.1L34.71,145.91a12.85,12.85,0,0,1-1.35-2.42l-.1.1.05.72c.15,1.5.24,3.05.24,3.92l.39,23.61h-4.4V137.26"/><path class="e5f35f0a-61e0-407e-9d3f-3d67b064da21" d="M79.93,137.26H91.81c4.88,0,6.18.24,8.74,1.36a11.24,11.24,0,0,1,3.77,2.84c2.8,3.29,4.15,7.44,4.15,12.85,0,7.49-2.7,13.28-7.39,15.79-2.51,1.31-4.68,1.79-8.69,1.79H79.93V137.26m11.93,30.53c3.43,0,5.36-.39,7-1.31,3.24-1.93,5-6.13,5-12.22,0-4.06-.73-6.85-2.37-9.22a8.48,8.48,0,0,0-3-2.61c-1.69-.87-2.89-1.06-6.71-1.06H84.47v26.42Z"/><path class="e5f35f0a-61e0-407e-9d3f-3d67b064da21" d="M157.5,137.26v20c0,4.63-.33,6.66-1.54,9.08-2,3.91-6.18,6.08-11.83,6.08-6.23,0-10.48-2.08-12.32-6.08-1.16-2.56-1.5-4.54-1.5-9.08v-20h4.59v20a18.63,18.63,0,0,0,.92,6.86c1.11,2.65,4,4.25,7.87,4.25,4.35,0,7.25-1.5,8.36-4.25a19.74,19.74,0,0,0,.87-6.86v-20h4.58"/><path class="e5f35f0a-61e0-407e-9d3f-3d67b064da21" d="M183.31,160.35a7.7,7.7,0,0,0,.91,3.52c1.5,2.76,5,4.45,9.28,4.45,5.16,0,8.54-2.32,8.54-5.9a4.58,4.58,0,0,0-2.6-4.2c-1.65-.87-2.37-1.06-7.83-2.41-4.54-1.06-6.23-1.74-8.11-3.14a7.87,7.87,0,0,1-3.19-6.47c0-5.7,4.88-9.52,12.12-9.52,7.88,0,12.75,3.87,13,10.34l-4.4.34c-.48-4.54-3.14-6.62-8.4-6.62-4.93,0-7.92,1.93-7.92,5.17,0,2.9,1.69,4.05,8.21,5.5,5.41,1.21,7.05,1.79,9.17,3a8.68,8.68,0,0,1,4.4,7.68c0,6-5.31,10.33-12.8,10.33-9.13,0-14.54-4.3-14.73-11.69l4.35-.38"/><polyline class="e5f35f0a-61e0-407e-9d3f-3d67b064da21" points="236.88 141.37 225.53 141.37 225.53 137.26 252.91 137.26 252.91 141.37 241.47 141.37 241.47 171.84 236.88 171.84 236.88 141.37"/><path class="e5f35f0a-61e0-407e-9d3f-3d67b064da21" d="M273.26,137.26h15.3c3.68,0,5.08.2,7,.92a8.88,8.88,0,0,1,5.41,8.5c0,5.31-3.38,8.55-9.76,9.37v.1a8.36,8.36,0,0,1,3,1.93,22.46,22.46,0,0,1,3.52,4.34l6,9.42H298l-4.59-7.19a45.62,45.62,0,0,0-3.52-5.08,9.07,9.07,0,0,0-2.56-2.26c-1.21-.73-1.69-.83-4.15-.83h-5.32v15.36h-4.58V137.26m14.44,15.26c2.84,0,4-.19,5.5-.87a5.5,5.5,0,0,0,.34-9.61,9.38,9.38,0,0,0-4.78-1H277.84v11.44Z"/><rect class="e5f35f0a-61e0-407e-9d3f-3d67b064da21" x="324.17" y="137.26" width="4.59" height="34.58"/><polyline class="e5f35f0a-61e0-407e-9d3f-3d67b064da21" points="352.43 137.26 377.45 137.26 377.45 141.37 357.02 141.37 357.02 151.94 376.15 151.94 376.15 156 357.02 156 357.02 167.78 378.27 167.78 378.27 171.84 352.43 171.84 352.43 137.26"/><path class="e5f35f0a-61e0-407e-9d3f-3d67b064da21" d="M402.82,160.35a7.7,7.7,0,0,0,.91,3.52c1.5,2.76,5,4.45,9.28,4.45,5.16,0,8.54-2.32,8.54-5.9a4.58,4.58,0,0,0-2.6-4.2c-1.65-.87-2.37-1.06-7.83-2.41-4.54-1.06-6.23-1.74-8.11-3.14a7.87,7.87,0,0,1-3.19-6.47c0-5.7,4.88-9.52,12.12-9.52,7.88,0,12.75,3.87,13,10.34l-4.4.34c-.48-4.54-3.14-6.62-8.4-6.62-4.93,0-7.92,1.93-7.92,5.17,0,2.9,1.69,4.05,8.21,5.5,5.41,1.21,7.05,1.79,9.17,3a8.7,8.7,0,0,1,4.4,7.68c0,6-5.31,10.33-12.8,10.33-9.13,0-14.54-4.3-14.73-11.69l4.35-.38"/><polyline class="e5f35f0a-61e0-407e-9d3f-3d67b064da21" points="476.44 137.26 481.03 137.26 481.03 167.78 498.07 167.78 498.07 171.84 476.44 171.84 476.44 137.26"/><polyline class="e5f35f0a-61e0-407e-9d3f-3d67b064da21" points="527.5 141.37 516.15 141.37 516.15 137.26 543.53 137.26 543.53 141.37 532.09 141.37 532.09 171.84 527.5 171.84 527.5 141.37"/><path class="e5f35f0a-61e0-407e-9d3f-3d67b064da21" d="M563.83,137.26h11.88c4.88,0,6.18.24,8.74,1.36a11.34,11.34,0,0,1,3.77,2.84c2.8,3.29,4.15,7.44,4.15,12.85,0,7.49-2.71,13.28-7.39,15.79-2.51,1.31-4.68,1.79-8.69,1.79H563.83V137.26m11.93,30.53c3.43,0,5.36-.39,7-1.31,3.24-1.93,5-6.13,5-12.22,0-4.06-.73-6.85-2.37-9.22a8.48,8.48,0,0,0-3-2.61c-1.69-.87-2.89-1.06-6.71-1.06h-7.29v26.42Z"/><path class="f9f9febd-f6cb-4e01-bad2-83718e138ea4" d="M86.15,61.64V3.94H57.7v70s.59,17.64-15.08,17.64c-15.29,0-15-18-15-18V3.94H0V75.43s-.54,43.35,43,43.35C87,118.78,86.15,74,86.15,74V61.64"/><rect class="f9f9febd-f6cb-4e01-bad2-83718e138ea4" x="102.48" y="3.94" width="25.89" height="113.15"/><rect class="f9f9febd-f6cb-4e01-bad2-83718e138ea4" x="203.25" y="36.87" width="25.89" height="80.22"/><path class="f9f9febd-f6cb-4e01-bad2-83718e138ea4" d="M189.74,60V36.87H169.47V17.45H144.14V85.57c0,32.65,31.24,31.8,31.24,31.8h13.79V93.73h-12.1c-7.6,0-7.6-7.88-7.6-7.88V60h20.27"/><path class="f9f9febd-f6cb-4e01-bad2-83718e138ea4" d="M273.9,61.92V35.75a43.68,43.68,0,0,1,10.69-1.69C292.75,34.06,326,38,326,75.43c0,42-38.56,42.79-38.56,42.79S244.9,121,244.9,78.53V3.94H270V76s.28,17.17,15.19,17.17,14.36-16.89,14.36-16.89.56-16.89-15.48-16.89a26.18,26.18,0,0,0-10.13,2.53"/><path class="f9f9febd-f6cb-4e01-bad2-83718e138ea4" d="M566.17,61.92V35.75a43.4,43.4,0,0,0-10.66-1.69c-8.14,0-41.24,3.94-41.24,41.37,0,42,38.43,42.79,38.43,42.79s42.36,2.81,42.36-39.69V3.94h-25V76S569.81,93.17,555,93.17s-14.31-16.89-14.31-16.89-.56-16.89,15.43-16.89a26.08,26.08,0,0,1,10.1,2.53"/><path class="f9f9febd-f6cb-4e01-bad2-83718e138ea4" d="M374.57,87.26l39-26.65S402.34,34.9,375.32,34.9s-40.72,24.21-40.72,42c0,19.18,14.64,41.66,41.47,41.66,31.52,0,43.21-31.48,43.21-31.48L399.9,78.06S392.58,94.39,377,94.39s-18.95-13.89-18.95-19.7,4.5-19.33,18.38-19.33c7.37,0,8.64,2.62,8.64,2.62L364.62,72.62l9.95,14.64"/><path class="f9f9febd-f6cb-4e01-bad2-83718e138ea4" d="M453.76,117.37V71.78s.84-12.39,11.82-12.39,11.54,12.29,11.54,12.29v45.69h25.05v-47S502,34.9,464.45,34.9c-35.74,0-35.74,36.59-35.74,36.59v45.88h25.05"/><path class="f9f9febd-f6cb-4e01-bad2-83718e138ea4" d="M201.28,15.2a15.2,15.2,0,1,1,15.2,15.2,15.2,15.2,0,0,1-15.2-15.2"/></g></g></svg>