<?xml version="1.0" encoding="UTF-8"?>
<svg xmlns="http://www.w3.org/2000/svg" width="1200" height="1200" viewBox="0 0 1200 1200" role="img" aria-labelledby="title desc">
  <title id="title">Recovery Board Set BACK Wolfpack concept</title>
  <desc id="desc">Stackable traction boards in black with blue traction teeth and purple lock tabs.</desc>
  <defs>
    <radialGradient id="stage" cx="50%" cy="42%" r="58%">
      <stop offset="0%" stop-color="#1e2638"/>
      <stop offset="48%" stop-color="#080b12"/>
      <stop offset="100%" stop-color="#030407"/>
    </radialGradient>
    <linearGradient id="fabric" x1="0%" y1="0%" x2="100%" y2="100%">
      <stop offset="0%" stop-color="#111724"/>
      <stop offset="45%" stop-color="#05070c"/>
      <stop offset="100%" stop-color="#151b29"/>
    </linearGradient>
    <linearGradient id="slash" x1="0%" y1="0%" x2="100%" y2="0%">
      <stop offset="0%" stop-color="#169bff"/>
      <stop offset="52%" stop-color="#202bff"/>
      <stop offset="100%" stop-color="#5d33f6"/>
    </linearGradient>
    <filter id="glow" x="-30%" y="-30%" width="160%" height="160%">
      <feGaussianBlur stdDeviation="14" result="blur"/>
      <feMerge>
        <feMergeNode in="blur"/>
        <feMergeNode in="SourceGraphic"/>
      </feMerge>
    </filter>
    <filter id="softGlow" x="-60%" y="-60%" width="220%" height="220%">
      <feDropShadow dx="0" dy="0" stdDeviation="10" flood-color="#169bff" flood-opacity=".42"/>
      <feDropShadow dx="0" dy="8" stdDeviation="10" flood-color="#000000" flood-opacity=".46"/>
    </filter>
    <style>
      .mark{font-family:Arial Black,Impact,sans-serif;font-size:58px;letter-spacing:3px;fill:#eef5ff;paint-order:stroke;stroke:#020306;stroke-width:8px}
      .smallmark{font-family:Arial Black,Impact,sans-serif;font-size:35px;letter-spacing:5px;fill:#eef5ff;paint-order:stroke;stroke:#020306;stroke-width:5px}
      .meta{font-family:Consolas,Monaco,monospace;font-size:24px;letter-spacing:6px;fill:#aeb9cf}
      .name{font-family:Arial Black,Impact,sans-serif;font-size:34px;letter-spacing:1px;fill:#f3f6fb}
      .tiny{font-family:Arial Black,Impact,sans-serif;font-size:22px;letter-spacing:2px;fill:#edf5ff}
      .tinyBlue{font-family:Consolas,Monaco,monospace;font-size:18px;letter-spacing:4px;fill:#169bff}
      .micro{font-family:Consolas,Monaco,monospace;font-size:15px;letter-spacing:4px;font-weight:700}
    </style>
  </defs>
  <rect width="1200" height="1200" fill="url(#stage)"/>
  <circle cx="600" cy="610" r="410" fill="#169bff" opacity=".09" filter="url(#glow)"/>
  <circle cx="805" cy="360" r="210" fill="#5d33f6" opacity=".13" filter="url(#glow)"/>
  <path d="M132 942 C320 876 452 850 600 850 C748 850 880 876 1068 942" fill="none" stroke="url(#slash)" stroke-width="8" opacity=".52"/>
  
    <g opacity=".96">
      <path d="M-60 290 H1260 M-60 745 H1260" stroke="url(#slash)" stroke-width="32" opacity=".14"/><path d="M120 160 L1080 1030" stroke="url(#slash)" stroke-width="8" opacity=".28"/>
      <g transform="translate(1020 235) scale(0.62)" opacity="0.34" filter="url(#softGlow)"><rect x="-86" y="-42" width="172" height="84" rx="20" fill="#05070c" stroke="#169bff" stroke-width="8"/><circle cx="-42" cy="0" r="18" fill="#5d33f6"/><circle cx="0" cy="0" r="18" fill="#169bff"/><circle cx="42" cy="0" r="18" fill="#5d33f6"/><path d="M96 -26 L156 -52 M96 0 H166 M96 26 L156 52" stroke="#169bff" stroke-width="8" stroke-linecap="round"/></g>
      <g transform="translate(184 830) scale(0.5)" opacity="0.26" filter="url(#softGlow)"><rect x="-86" y="-42" width="172" height="84" rx="20" fill="#05070c" stroke="#169bff" stroke-width="8"/><circle cx="-42" cy="0" r="18" fill="#5d33f6"/><circle cx="0" cy="0" r="18" fill="#169bff"/><circle cx="42" cy="0" r="18" fill="#5d33f6"/><path d="M96 -26 L156 -52 M96 0 H166 M96 26 L156 52" stroke="#169bff" stroke-width="8" stroke-linecap="round"/></g>
      <path d="M90 491 H1110" stroke="url(#slash)" stroke-width="6" opacity=".34"/>
      <text x="118" y="1012" class="micro" fill="#169bff">RECOVERY</text><text x="336" y="1050" class="micro" fill="#5d33f6">RECOVERY BOARD</text><text x="554" y="1012" class="micro" fill="#169bff">PACK-13</text><text x="772" y="1050" class="micro" fill="#5d33f6">NIGHT</text><text x="990" y="1012" class="micro" fill="#169bff">BACK</text>
    </g>
  
      <g transform="">
        <path d="M270 300 L805 210 L930 780 L395 890Z" fill="#080b12" stroke="#242b38" stroke-width="9"/>
        <path d="M340 342 L875 252" stroke="#169bff" stroke-width="20"/>
        <path d="M360 405 l42 -8 l18 82 l-42 8Z" fill="#169bff" opacity=".92"/><path d="M418 395 l42 -8 l18 82 l-42 8Z" fill="#5d33f6" opacity=".92"/><path d="M476 385 l42 -8 l18 82 l-42 8Z" fill="#169bff" opacity=".92"/><path d="M534 375 l42 -8 l18 82 l-42 8Z" fill="#5d33f6" opacity=".92"/><path d="M592 365 l42 -8 l18 82 l-42 8Z" fill="#169bff" opacity=".92"/><path d="M650 355 l42 -8 l18 82 l-42 8Z" fill="#5d33f6" opacity=".92"/><path d="M708 345 l42 -8 l18 82 l-42 8Z" fill="#169bff" opacity=".92"/><path d="M766 335 l42 -8 l18 82 l-42 8Z" fill="#5d33f6" opacity=".92"/>
        <path d="M505 260 L960 380 L842 875 L388 760Z" fill="#05070c" stroke="#242b38" stroke-width="9" opacity=".92"/>
        <path d="M560 390 l38 10 l-18 76 l-38 -10Z" fill="#5d33f6" opacity=".9"/><path d="M608 400 l38 10 l-18 76 l-38 -10Z" fill="#169bff" opacity=".9"/><path d="M656 410 l38 10 l-18 76 l-38 -10Z" fill="#5d33f6" opacity=".9"/><path d="M704 420 l38 10 l-18 76 l-38 -10Z" fill="#169bff" opacity=".9"/><path d="M752 430 l38 10 l-18 76 l-38 -10Z" fill="#5d33f6" opacity=".9"/><path d="M800 440 l38 10 l-18 76 l-38 -10Z" fill="#169bff" opacity=".9"/><path d="M848 450 l38 10 l-18 76 l-38 -10Z" fill="#5d33f6" opacity=".9"/>
        <text x="600" y="630" text-anchor="middle" class="mark">WOLFPACK</text>
      </g>
  
    <g transform="translate(731.1 300) rotate(-0.36)">
      <rect x="-146" y="-48" width="292" height="96" rx="10" fill="#030407" stroke="url(#slash)" stroke-width="4" opacity=".82"/>
      <g transform="translate(-106 0) scale(0.26)" opacity="1" filter="url(#softGlow)"><rect x="-86" y="-42" width="172" height="84" rx="20" fill="#05070c" stroke="#169bff" stroke-width="8"/><circle cx="-42" cy="0" r="18" fill="#5d33f6"/><circle cx="0" cy="0" r="18" fill="#169bff"/><circle cx="42" cy="0" r="18" fill="#5d33f6"/><path d="M96 -26 L156 -52 M96 0 H166 M96 26 L156 52" stroke="#169bff" stroke-width="8" stroke-linecap="round"/></g>
      <text x="-28" y="-8" class="tiny" fill="#eef5ff">BACK PRINT</text>
      <text x="-28" y="28" class="tinyBlue">PACK ISSUE 13</text>
    </g>
    <g transform="translate(600 926)">
      <rect x="-330" y="-48" width="660" height="72" rx="8" fill="#05070b" stroke="#263247" stroke-width="3" opacity=".88"/>
      <text x="0" y="-4" text-anchor="middle" class="tiny">PAIR OF RECOVERY BOARDS WITH...</text>
      <text x="0" y="28" text-anchor="middle" class="tinyBlue">WOLFPACK 4X4 / LIGHT / ISSUE 13</text>
    </g>
  <g>
    <rect x="82" y="82" width="244" height="62" rx="8" fill="#05070b" stroke="#169bff" stroke-width="3" opacity=".95"/>
    <text x="204" y="122" text-anchor="middle" class="meta">BACK</text>
    <text x="600" y="1072" text-anchor="middle" class="name">RECOVERY BOARD SET</text>
    <text x="600" y="1114" text-anchor="middle" class="meta">RECOVERY - WOLFPACK 4X4</text>
  </g>
</svg>
