<?xml version="1.0" encoding="UTF-8"?>
<svg xmlns="http://www.w3.org/2000/svg" width="1200" height="1200" viewBox="0 0 1200 1200" role="img" aria-labelledby="title desc">
  <title id="title">Shade Bucket Hat BACK Wolfpack concept</title>
  <desc id="desc">Wide-brim bucket hat for track days, shows and campsite shade.</desc>
  <defs>
    <radialGradient id="stage" cx="50%" cy="42%" r="58%">
      <stop offset="0%" stop-color="#1e2638"/>
      <stop offset="48%" stop-color="#080b12"/>
      <stop offset="100%" stop-color="#030407"/>
    </radialGradient>
    <linearGradient id="fabric" x1="0%" y1="0%" x2="100%" y2="100%">
      <stop offset="0%" stop-color="#111724"/>
      <stop offset="45%" stop-color="#05070c"/>
      <stop offset="100%" stop-color="#151b29"/>
    </linearGradient>
    <linearGradient id="slash" x1="0%" y1="0%" x2="100%" y2="0%">
      <stop offset="0%" stop-color="#00b8ff"/>
      <stop offset="52%" stop-color="#202bff"/>
      <stop offset="100%" stop-color="#6f35ff"/>
    </linearGradient>
    <filter id="glow" x="-30%" y="-30%" width="160%" height="160%">
      <feGaussianBlur stdDeviation="14" result="blur"/>
      <feMerge>
        <feMergeNode in="blur"/>
        <feMergeNode in="SourceGraphic"/>
      </feMerge>
    </filter>
    <filter id="softGlow" x="-60%" y="-60%" width="220%" height="220%">
      <feDropShadow dx="0" dy="0" stdDeviation="10" flood-color="#00b8ff" flood-opacity=".42"/>
      <feDropShadow dx="0" dy="8" stdDeviation="10" flood-color="#000000" flood-opacity=".46"/>
    </filter>
    <style>
      .mark{font-family:Arial Black,Impact,sans-serif;font-size:58px;letter-spacing:3px;fill:#eef5ff;paint-order:stroke;stroke:#020306;stroke-width:8px}
      .smallmark{font-family:Arial Black,Impact,sans-serif;font-size:35px;letter-spacing:5px;fill:#eef5ff;paint-order:stroke;stroke:#020306;stroke-width:5px}
      .meta{font-family:Consolas,Monaco,monospace;font-size:24px;letter-spacing:6px;fill:#aeb9cf}
      .name{font-family:Arial Black,Impact,sans-serif;font-size:34px;letter-spacing:1px;fill:#f3f6fb}
      .tiny{font-family:Arial Black,Impact,sans-serif;font-size:22px;letter-spacing:2px;fill:#edf5ff}
      .tinyBlue{font-family:Consolas,Monaco,monospace;font-size:18px;letter-spacing:4px;fill:#00b8ff}
      .micro{font-family:Consolas,Monaco,monospace;font-size:15px;letter-spacing:4px;font-weight:700}
    </style>
  </defs>
  <rect width="1200" height="1200" fill="url(#stage)"/>
  <circle cx="600" cy="610" r="410" fill="#00b8ff" opacity=".09" filter="url(#glow)"/>
  <circle cx="805" cy="360" r="210" fill="#6f35ff" opacity=".13" filter="url(#glow)"/>
  <path d="M132 942 C320 876 452 850 600 850 C748 850 880 876 1068 942" fill="none" stroke="url(#slash)" stroke-width="8" opacity=".52"/>
  
    <g opacity=".96">
      <path d="M50 120 L170 360 M-10 840 L110 1080" stroke="url(#slash)" stroke-width="18" opacity=".12"/><path d="M168 120 L288 360 M108 840 L228 1080" stroke="url(#slash)" stroke-width="18" opacity=".12"/><path d="M286 120 L406 360 M226 840 L346 1080" stroke="url(#slash)" stroke-width="18" opacity=".12"/><path d="M404 120 L524 360 M344 840 L464 1080" stroke="url(#slash)" stroke-width="18" opacity=".12"/><path d="M522 120 L642 360 M462 840 L582 1080" stroke="url(#slash)" stroke-width="18" opacity=".12"/><path d="M640 120 L760 360 M580 840 L700 1080" stroke="url(#slash)" stroke-width="18" opacity=".12"/><path d="M758 120 L878 360 M698 840 L818 1080" stroke="url(#slash)" stroke-width="18" opacity=".12"/><path d="M876 120 L996 360 M816 840 L936 1080" stroke="url(#slash)" stroke-width="18" opacity=".12"/><path d="M994 120 L1114 360 M934 840 L1054 1080" stroke="url(#slash)" stroke-width="18" opacity=".12"/><path d="M1112 120 L1232 360 M1052 840 L1172 1080" stroke="url(#slash)" stroke-width="18" opacity=".12"/><path d="M1230 120 L1350 360 M1170 840 L1290 1080" stroke="url(#slash)" stroke-width="18" opacity=".12"/>
      <g transform="translate(1020 235) scale(0.62)" opacity="0.34" filter="url(#softGlow)"><path d="M-96 20 C-58 -38 -12 -38 26 20 C48 54 76 54 98 18" fill="none" stroke="#00b8ff" stroke-width="15" stroke-linecap="round"/><path d="M-86 54 C-48 8 -18 8 18 54 C42 82 72 82 96 52" fill="none" stroke="#6f35ff" stroke-width="11" stroke-linecap="round"/></g>
      <g transform="translate(184 830) scale(0.5)" opacity="0.26" filter="url(#softGlow)"><path d="M-96 20 C-58 -38 -12 -38 26 20 C48 54 76 54 98 18" fill="none" stroke="#00b8ff" stroke-width="15" stroke-linecap="round"/><path d="M-86 54 C-48 8 -18 8 18 54 C42 82 72 82 96 52" fill="none" stroke="#6f35ff" stroke-width="11" stroke-linecap="round"/></g>
      <path d="M90 510 H1110" stroke="url(#slash)" stroke-width="6" opacity=".34"/>
      <text x="118" y="1012" class="micro" fill="#00b8ff">HEADWEAR</text><text x="336" y="1050" class="micro" fill="#6f35ff">HAT</text><text x="554" y="1012" class="micro" fill="#00b8ff">PACK-15</text><text x="772" y="1050" class="micro" fill="#6f35ff">COAST</text><text x="990" y="1012" class="micro" fill="#00b8ff">BACK</text>
    </g>
  
      <g transform="">
        <path d="M305 570 Q405 285 600 285 Q795 285 895 570 Q725 650 600 640 Q475 650 305 570Z" fill="url(#fabric)" stroke="#252d3c" stroke-width="9" />
        <path d="M630 620 Q830 610 985 690 Q820 750 610 705Z" fill="#05070c" stroke="#6f35ff" stroke-width="8" />
        <path d="M480 540 Q600 475 720 540" fill="none" stroke="url(#slash)" stroke-width="18" />
        <text x="600" y="555" text-anchor="middle" class="mark">W</text>
      </g>
  
    <g transform="translate(724 300) rotate(-3.06)">
      <rect x="-146" y="-48" width="292" height="96" rx="10" fill="#030407" stroke="url(#slash)" stroke-width="4" opacity=".82"/>
      <g transform="translate(-106 0) scale(0.26)" opacity="1" filter="url(#softGlow)"><path d="M-96 20 C-58 -38 -12 -38 26 20 C48 54 76 54 98 18" fill="none" stroke="#00b8ff" stroke-width="15" stroke-linecap="round"/><path d="M-86 54 C-48 8 -18 8 18 54 C42 82 72 82 96 52" fill="none" stroke="#6f35ff" stroke-width="11" stroke-linecap="round"/></g>
      <text x="-28" y="-8" class="tiny" fill="#eef5ff">BACK PRINT</text>
      <text x="-28" y="28" class="tinyBlue">PACK ISSUE 15</text>
    </g>
    <g transform="translate(600 926)">
      <rect x="-330" y="-48" width="660" height="72" rx="8" fill="#05070b" stroke="#263247" stroke-width="3" opacity=".88"/>
      <text x="0" y="-4" text-anchor="middle" class="tiny">BLACK BUCKET HAT WITH BLUE U...</text>
      <text x="0" y="28" text-anchor="middle" class="tinyBlue">WOLFPACK 4X4 / ROAM / ISSUE 15</text>
    </g>
  <g>
    <rect x="82" y="82" width="244" height="62" rx="8" fill="#05070b" stroke="#00b8ff" stroke-width="3" opacity=".95"/>
    <text x="204" y="122" text-anchor="middle" class="meta">BACK</text>
    <text x="600" y="1072" text-anchor="middle" class="name">SHADE BUCKET HAT</text>
    <text x="600" y="1114" text-anchor="middle" class="meta">HEADWEAR - WOLFPACK 4X4</text>
  </g>
</svg>
