<?xml version="1.0" encoding="UTF-8"?>
<svg xmlns="http://www.w3.org/2000/svg" width="1200" height="1200" viewBox="0 0 1200 1200" role="img" aria-labelledby="title desc">
  <title id="title">Softshell Trail Jacket DETAIL Wolfpack concept</title>
  <desc id="desc">Water-resistant softshell with technical paneling and subtle workshop branding.</desc>
  <defs>
    <radialGradient id="stage" cx="50%" cy="42%" r="58%">
      <stop offset="0%" stop-color="#1e2638"/>
      <stop offset="48%" stop-color="#080b12"/>
      <stop offset="100%" stop-color="#030407"/>
    </radialGradient>
    <linearGradient id="fabric" x1="0%" y1="0%" x2="100%" y2="100%">
      <stop offset="0%" stop-color="#111724"/>
      <stop offset="45%" stop-color="#05070c"/>
      <stop offset="100%" stop-color="#151b29"/>
    </linearGradient>
    <linearGradient id="slash" x1="0%" y1="0%" x2="100%" y2="0%">
      <stop offset="0%" stop-color="#008cff"/>
      <stop offset="52%" stop-color="#202bff"/>
      <stop offset="100%" stop-color="#7c2cff"/>
    </linearGradient>
    <filter id="glow" x="-30%" y="-30%" width="160%" height="160%">
      <feGaussianBlur stdDeviation="14" result="blur"/>
      <feMerge>
        <feMergeNode in="blur"/>
        <feMergeNode in="SourceGraphic"/>
      </feMerge>
    </filter>
    <filter id="softGlow" x="-60%" y="-60%" width="220%" height="220%">
      <feDropShadow dx="0" dy="0" stdDeviation="10" flood-color="#008cff" flood-opacity=".42"/>
      <feDropShadow dx="0" dy="8" stdDeviation="10" flood-color="#000000" flood-opacity=".46"/>
    </filter>
    <style>
      .mark{font-family:Arial Black,Impact,sans-serif;font-size:58px;letter-spacing:3px;fill:#eef5ff;paint-order:stroke;stroke:#020306;stroke-width:8px}
      .smallmark{font-family:Arial Black,Impact,sans-serif;font-size:35px;letter-spacing:5px;fill:#eef5ff;paint-order:stroke;stroke:#020306;stroke-width:5px}
      .meta{font-family:Consolas,Monaco,monospace;font-size:24px;letter-spacing:6px;fill:#aeb9cf}
      .name{font-family:Arial Black,Impact,sans-serif;font-size:34px;letter-spacing:1px;fill:#f3f6fb}
      .tiny{font-family:Arial Black,Impact,sans-serif;font-size:22px;letter-spacing:2px;fill:#edf5ff}
      .tinyBlue{font-family:Consolas,Monaco,monospace;font-size:18px;letter-spacing:4px;fill:#008cff}
      .micro{font-family:Consolas,Monaco,monospace;font-size:15px;letter-spacing:4px;font-weight:700}
    </style>
  </defs>
  <rect width="1200" height="1200" fill="url(#stage)"/>
  <circle cx="600" cy="610" r="410" fill="#008cff" opacity=".09" filter="url(#glow)"/>
  <circle cx="805" cy="360" r="210" fill="#7c2cff" opacity=".13" filter="url(#glow)"/>
  <path d="M132 942 C320 876 452 850 600 850 C748 850 880 876 1068 942" fill="none" stroke="url(#slash)" stroke-width="8" opacity=".52"/>
  
    <g opacity=".96">
      <path d="M-60 290 H1260 M-60 745 H1260" stroke="url(#slash)" stroke-width="32" opacity=".14"/><path d="M120 160 L1080 1030" stroke="url(#slash)" stroke-width="8" opacity=".28"/>
      <g transform="translate(1020 235) scale(0.62)" opacity="0.34" filter="url(#softGlow)"><path d="M-96 20 C-58 -38 -12 -38 26 20 C48 54 76 54 98 18" fill="none" stroke="#008cff" stroke-width="15" stroke-linecap="round"/><path d="M-86 54 C-48 8 -18 8 18 54 C42 82 72 82 96 52" fill="none" stroke="#7c2cff" stroke-width="11" stroke-linecap="round"/></g>
      <g transform="translate(184 830) scale(0.5)" opacity="0.26" filter="url(#softGlow)"><path d="M-96 20 C-58 -38 -12 -38 26 20 C48 54 76 54 98 18" fill="none" stroke="#008cff" stroke-width="15" stroke-linecap="round"/><path d="M-86 54 C-48 8 -18 8 18 54 C42 82 72 82 96 52" fill="none" stroke="#7c2cff" stroke-width="11" stroke-linecap="round"/></g>
      <path d="M90 442 H1110" stroke="url(#slash)" stroke-width="6" opacity=".34"/>
      <text x="118" y="1012" class="micro" fill="#008cff">APPAREL</text><text x="336" y="1050" class="micro" fill="#7c2cff">JACKET</text><text x="554" y="1012" class="micro" fill="#008cff">PACK-20</text><text x="772" y="1050" class="micro" fill="#7c2cff">COAST</text><text x="990" y="1012" class="micro" fill="#008cff">DETAIL</text>
    </g>
  
      <g transform="">
        <path d="M440 255 Q600 120 760 255 L820 860 Q600 942 380 860 Z" fill="#06070b" stroke="#1f2634" stroke-width="9" />
        <path d="M420 300 L245 640 L330 700 L438 495" fill="#07090e" stroke="#008cff" stroke-width="7" />
        <path d="M780 300 L955 640 L870 700 L762 495" fill="#07090e" stroke="#7c2cff" stroke-width="7" />
        <path d="M495 270 Q600 355 705 270 L690 420 Q600 485 510 420Z" fill="#090d15" stroke="#293345" stroke-width="7" />
        <path d="M600 345 V880" stroke="#008cff" stroke-width="9" />
        
        <path d="M410 555 Q600 645 790 555" fill="none" stroke="url(#slash)" stroke-width="22" opacity=".78" />
        <text x="600" y="548" text-anchor="middle" class="mark">WOLFPACK</text>
      </g>
  
    <g transform="translate(719.2 260) rotate(2.34)">
      <rect x="-146" y="-48" width="292" height="96" rx="10" fill="#030407" stroke="url(#slash)" stroke-width="4" opacity=".82"/>
      <g transform="translate(-106 0) scale(0.26)" opacity="1" filter="url(#softGlow)"><path d="M-96 20 C-58 -38 -12 -38 26 20 C48 54 76 54 98 18" fill="none" stroke="#008cff" stroke-width="15" stroke-linecap="round"/><path d="M-86 54 C-48 8 -18 8 18 54 C42 82 72 82 96 52" fill="none" stroke="#7c2cff" stroke-width="11" stroke-linecap="round"/></g>
      <text x="-28" y="-8" class="tiny" fill="#eef5ff">DETAIL VIEW</text>
      <text x="-28" y="28" class="tinyBlue">MATERIAL CALL 20</text>
    </g>
    <g transform="translate(600 926)">
      <rect x="-330" y="-48" width="660" height="72" rx="8" fill="#05070b" stroke="#263247" stroke-width="3" opacity=".88"/>
      <text x="0" y="-4" text-anchor="middle" class="tiny">BLACK SOFTSHELL JACKET WITH ...</text>
      <text x="0" y="28" text-anchor="middle" class="tinyBlue">WOLFPACK 4X4 / ROAM / ISSUE 20</text>
    </g>
  <g>
    <rect x="82" y="82" width="244" height="62" rx="8" fill="#05070b" stroke="#008cff" stroke-width="3" opacity=".95"/>
    <text x="204" y="122" text-anchor="middle" class="meta">DETAIL</text>
    <text x="600" y="1072" text-anchor="middle" class="name">SOFTSHELL TRAIL JACKET</text>
    <text x="600" y="1114" text-anchor="middle" class="meta">APPAREL - WOLFPACK 4X4</text>
  </g>
</svg>
