<?xml version="1.0" encoding="UTF-8"?>
<svg xmlns="http://www.w3.org/2000/svg" width="1200" height="1200" viewBox="0 0 1200 1200" role="img" aria-labelledby="title desc">
  <title id="title">Suspension Lift Kit DETAIL Wolfpack concept</title>
  <desc id="desc">Lift kit visual package with coils, shocks and matched fitment cards.</desc>
  <defs>
    <radialGradient id="stage" cx="50%" cy="42%" r="58%">
      <stop offset="0%" stop-color="#1e2638"/>
      <stop offset="48%" stop-color="#080b12"/>
      <stop offset="100%" stop-color="#030407"/>
    </radialGradient>
    <linearGradient id="fabric" x1="0%" y1="0%" x2="100%" y2="100%">
      <stop offset="0%" stop-color="#111724"/>
      <stop offset="45%" stop-color="#05070c"/>
      <stop offset="100%" stop-color="#151b29"/>
    </linearGradient>
    <linearGradient id="slash" x1="0%" y1="0%" x2="100%" y2="0%">
      <stop offset="0%" stop-color="#0a91ff"/>
      <stop offset="52%" stop-color="#202bff"/>
      <stop offset="100%" stop-color="#8f34ff"/>
    </linearGradient>
    <filter id="glow" x="-30%" y="-30%" width="160%" height="160%">
      <feGaussianBlur stdDeviation="14" result="blur"/>
      <feMerge>
        <feMergeNode in="blur"/>
        <feMergeNode in="SourceGraphic"/>
      </feMerge>
    </filter>
    <filter id="softGlow" x="-60%" y="-60%" width="220%" height="220%">
      <feDropShadow dx="0" dy="0" stdDeviation="10" flood-color="#0a91ff" flood-opacity=".42"/>
      <feDropShadow dx="0" dy="8" stdDeviation="10" flood-color="#000000" flood-opacity=".46"/>
    </filter>
    <style>
      .mark{font-family:Arial Black,Impact,sans-serif;font-size:58px;letter-spacing:3px;fill:#eef5ff;paint-order:stroke;stroke:#020306;stroke-width:8px}
      .smallmark{font-family:Arial Black,Impact,sans-serif;font-size:35px;letter-spacing:5px;fill:#eef5ff;paint-order:stroke;stroke:#020306;stroke-width:5px}
      .meta{font-family:Consolas,Monaco,monospace;font-size:24px;letter-spacing:6px;fill:#aeb9cf}
      .name{font-family:Arial Black,Impact,sans-serif;font-size:34px;letter-spacing:1px;fill:#f3f6fb}
      .tiny{font-family:Arial Black,Impact,sans-serif;font-size:22px;letter-spacing:2px;fill:#edf5ff}
      .tinyBlue{font-family:Consolas,Monaco,monospace;font-size:18px;letter-spacing:4px;fill:#0a91ff}
      .micro{font-family:Consolas,Monaco,monospace;font-size:15px;letter-spacing:4px;font-weight:700}
    </style>
  </defs>
  <rect width="1200" height="1200" fill="url(#stage)"/>
  <circle cx="600" cy="610" r="410" fill="#0a91ff" opacity=".09" filter="url(#glow)"/>
  <circle cx="805" cy="360" r="210" fill="#8f34ff" opacity=".13" filter="url(#glow)"/>
  <path d="M132 942 C320 876 452 850 600 850 C748 850 880 876 1068 942" fill="none" stroke="url(#slash)" stroke-width="8" opacity=".52"/>
  
    <g opacity=".96">
      <path d="M90 210 C260 150 360 280 520 210 S790 155 1110 230" fill="none" stroke="url(#slash)" stroke-width="4" opacity=".18"/><path d="M90 305 C260 245 360 375 520 305 S790 250 1110 325" fill="none" stroke="url(#slash)" stroke-width="4" opacity=".18"/><path d="M90 400 C260 340 360 470 520 400 S790 345 1110 420" fill="none" stroke="url(#slash)" stroke-width="4" opacity=".18"/><path d="M90 495 C260 435 360 565 520 495 S790 440 1110 515" fill="none" stroke="url(#slash)" stroke-width="4" opacity=".18"/><path d="M90 590 C260 530 360 660 520 590 S790 535 1110 610" fill="none" stroke="url(#slash)" stroke-width="4" opacity=".18"/><path d="M90 685 C260 625 360 755 520 685 S790 630 1110 705" fill="none" stroke="url(#slash)" stroke-width="4" opacity=".18"/><path d="M90 780 C260 720 360 850 520 780 S790 725 1110 800" fill="none" stroke="url(#slash)" stroke-width="4" opacity=".18"/>
      <g transform="translate(1020 235) scale(0.62)" opacity="0.34" filter="url(#softGlow)"><circle cx="0" cy="0" r="84" fill="#06080d" stroke="#0a91ff" stroke-width="8"/><path d="M0 -70 L25 20 L0 70 L-25 20Z" fill="#8f34ff" stroke="#eef5ff" stroke-width="5"/><path d="M-70 0 H70 M0 -70 V70" stroke="#0a91ff" stroke-width="5" opacity=".7"/></g>
      <g transform="translate(184 830) scale(0.5)" opacity="0.26" filter="url(#softGlow)"><circle cx="0" cy="0" r="84" fill="#06080d" stroke="#0a91ff" stroke-width="8"/><path d="M0 -70 L25 20 L0 70 L-25 20Z" fill="#8f34ff" stroke="#eef5ff" stroke-width="5"/><path d="M-70 0 H70 M0 -70 V70" stroke="#0a91ff" stroke-width="5" opacity=".7"/></g>
      <path d="M90 516 H1110" stroke="url(#slash)" stroke-width="6" opacity=".34"/>
      <text x="118" y="1012" class="micro" fill="#0a91ff">SUSPENSION</text><text x="336" y="1050" class="micro" fill="#8f34ff">SUSPENSION</text><text x="554" y="1012" class="micro" fill="#0a91ff">PACK-59</text><text x="772" y="1050" class="micro" fill="#8f34ff">TOURING</text><text x="990" y="1012" class="micro" fill="#0a91ff">DETAIL</text>
    </g>
  
      <g transform="">
        <path d="M390 245 L495 245 L455 900 L350 900Z" fill="#07090e" stroke="#242b38" stroke-width="9"/>
        <path d="M705 245 L810 245 L850 900 L745 900Z" fill="#07090e" stroke="#242b38" stroke-width="9"/>
        <path d="M360 330 C420 300 455 360 500 330" fill="none" stroke="#0a91ff" stroke-width="16" stroke-linecap="round"/><path d="M360 385 C420 355 455 415 500 385" fill="none" stroke="#8f34ff" stroke-width="16" stroke-linecap="round"/><path d="M360 440 C420 410 455 470 500 440" fill="none" stroke="#0a91ff" stroke-width="16" stroke-linecap="round"/><path d="M360 495 C420 465 455 525 500 495" fill="none" stroke="#8f34ff" stroke-width="16" stroke-linecap="round"/><path d="M360 550 C420 520 455 580 500 550" fill="none" stroke="#0a91ff" stroke-width="16" stroke-linecap="round"/><path d="M360 605 C420 575 455 635 500 605" fill="none" stroke="#8f34ff" stroke-width="16" stroke-linecap="round"/><path d="M360 660 C420 630 455 690 500 660" fill="none" stroke="#0a91ff" stroke-width="16" stroke-linecap="round"/><path d="M360 715 C420 685 455 745 500 715" fill="none" stroke="#8f34ff" stroke-width="16" stroke-linecap="round"/><path d="M360 770 C420 740 455 800 500 770" fill="none" stroke="#0a91ff" stroke-width="16" stroke-linecap="round"/>
        <path d="M700 330 C760 300 795 360 840 330" fill="none" stroke="#8f34ff" stroke-width="16" stroke-linecap="round"/><path d="M700 385 C760 355 795 415 840 385" fill="none" stroke="#0a91ff" stroke-width="16" stroke-linecap="round"/><path d="M700 440 C760 410 795 470 840 440" fill="none" stroke="#8f34ff" stroke-width="16" stroke-linecap="round"/><path d="M700 495 C760 465 795 525 840 495" fill="none" stroke="#0a91ff" stroke-width="16" stroke-linecap="round"/><path d="M700 550 C760 520 795 580 840 550" fill="none" stroke="#8f34ff" stroke-width="16" stroke-linecap="round"/><path d="M700 605 C760 575 795 635 840 605" fill="none" stroke="#0a91ff" stroke-width="16" stroke-linecap="round"/><path d="M700 660 C760 630 795 690 840 660" fill="none" stroke="#8f34ff" stroke-width="16" stroke-linecap="round"/><path d="M700 715 C760 685 795 745 840 715" fill="none" stroke="#0a91ff" stroke-width="16" stroke-linecap="round"/><path d="M700 770 C760 740 795 800 840 770" fill="none" stroke="#8f34ff" stroke-width="16" stroke-linecap="round"/>
        <rect x="315" y="875" width="590" height="56" rx="24" fill="#111827" stroke="url(#slash)" stroke-width="8"/>
        <text x="600" y="805" text-anchor="middle" class="smallmark">LIFT KIT</text>
      </g>
  
    <g transform="translate(730.6 260) rotate(-1.6199999999999999)">
      <rect x="-146" y="-48" width="292" height="96" rx="10" fill="#030407" stroke="url(#slash)" stroke-width="4" opacity=".82"/>
      <g transform="translate(-106 0) scale(0.26)" opacity="1" filter="url(#softGlow)"><circle cx="0" cy="0" r="84" fill="#06080d" stroke="#0a91ff" stroke-width="8"/><path d="M0 -70 L25 20 L0 70 L-25 20Z" fill="#8f34ff" stroke="#eef5ff" stroke-width="5"/><path d="M-70 0 H70 M0 -70 V70" stroke="#0a91ff" stroke-width="5" opacity=".7"/></g>
      <text x="-28" y="-8" class="tiny" fill="#eef5ff">DETAIL VIEW</text>
      <text x="-28" y="28" class="tinyBlue">MATERIAL CALL 59</text>
    </g>
    <g transform="translate(600 926)">
      <rect x="-330" y="-48" width="660" height="72" rx="8" fill="#05070b" stroke="#263247" stroke-width="3" opacity=".88"/>
      <text x="0" y="-4" text-anchor="middle" class="tiny">PAIR OF BLACK SHOCKS WITH BL...</text>
      <text x="0" y="28" text-anchor="middle" class="tinyBlue">WOLFPACK 4X4 / RANGE / ISSUE 59</text>
    </g>
  <g>
    <rect x="82" y="82" width="244" height="62" rx="8" fill="#05070b" stroke="#0a91ff" stroke-width="3" opacity=".95"/>
    <text x="204" y="122" text-anchor="middle" class="meta">DETAIL</text>
    <text x="600" y="1072" text-anchor="middle" class="name">SUSPENSION LIFT KIT</text>
    <text x="600" y="1114" text-anchor="middle" class="meta">SUSPENSION - WOLFPACK 4X4</text>
  </g>
</svg>
