<?xml version="1.0" encoding="UTF-8"?>
<svg xmlns="http://www.w3.org/2000/svg" width="1200" height="1200" viewBox="0 0 1200 1200" role="img" aria-labelledby="title desc">
  <title id="title">Trail Lead Dry Tee BACK Wolfpack concept</title>
  <desc id="desc">Moisture-wicking trail tee for events, fitment days and summer touring.</desc>
  <defs>
    <radialGradient id="stage" cx="50%" cy="42%" r="58%">
      <stop offset="0%" stop-color="#1e2638"/>
      <stop offset="48%" stop-color="#080b12"/>
      <stop offset="100%" stop-color="#030407"/>
    </radialGradient>
    <linearGradient id="fabric" x1="0%" y1="0%" x2="100%" y2="100%">
      <stop offset="0%" stop-color="#111724"/>
      <stop offset="45%" stop-color="#05070c"/>
      <stop offset="100%" stop-color="#151b29"/>
    </linearGradient>
    <linearGradient id="slash" x1="0%" y1="0%" x2="100%" y2="0%">
      <stop offset="0%" stop-color="#008cff"/>
      <stop offset="52%" stop-color="#202bff"/>
      <stop offset="100%" stop-color="#7c2cff"/>
    </linearGradient>
    <filter id="glow" x="-30%" y="-30%" width="160%" height="160%">
      <feGaussianBlur stdDeviation="14" result="blur"/>
      <feMerge>
        <feMergeNode in="blur"/>
        <feMergeNode in="SourceGraphic"/>
      </feMerge>
    </filter>
    <filter id="softGlow" x="-60%" y="-60%" width="220%" height="220%">
      <feDropShadow dx="0" dy="0" stdDeviation="10" flood-color="#008cff" flood-opacity=".42"/>
      <feDropShadow dx="0" dy="8" stdDeviation="10" flood-color="#000000" flood-opacity=".46"/>
    </filter>
    <style>
      .mark{font-family:Arial Black,Impact,sans-serif;font-size:58px;letter-spacing:3px;fill:#eef5ff;paint-order:stroke;stroke:#020306;stroke-width:8px}
      .smallmark{font-family:Arial Black,Impact,sans-serif;font-size:35px;letter-spacing:5px;fill:#eef5ff;paint-order:stroke;stroke:#020306;stroke-width:5px}
      .meta{font-family:Consolas,Monaco,monospace;font-size:24px;letter-spacing:6px;fill:#aeb9cf}
      .name{font-family:Arial Black,Impact,sans-serif;font-size:34px;letter-spacing:1px;fill:#f3f6fb}
      .tiny{font-family:Arial Black,Impact,sans-serif;font-size:22px;letter-spacing:2px;fill:#edf5ff}
      .tinyBlue{font-family:Consolas,Monaco,monospace;font-size:18px;letter-spacing:4px;fill:#008cff}
      .micro{font-family:Consolas,Monaco,monospace;font-size:15px;letter-spacing:4px;font-weight:700}
    </style>
  </defs>
  <rect width="1200" height="1200" fill="url(#stage)"/>
  <circle cx="600" cy="610" r="410" fill="#008cff" opacity=".09" filter="url(#glow)"/>
  <circle cx="805" cy="360" r="210" fill="#7c2cff" opacity=".13" filter="url(#glow)"/>
  <path d="M132 942 C320 876 452 850 600 850 C748 850 880 876 1068 942" fill="none" stroke="url(#slash)" stroke-width="8" opacity=".52"/>
  
    <g opacity=".96">
      <path d="M140 142 L176 162 V202 L140 222 L104 202 V162Z" fill="none" stroke="url(#slash)" stroke-width="3" opacity=".18"/><path d="M278 142 L314 162 V202 L278 222 L242 202 V162Z" fill="none" stroke="url(#slash)" stroke-width="3" opacity=".18"/><path d="M416 142 L452 162 V202 L416 222 L380 202 V162Z" fill="none" stroke="url(#slash)" stroke-width="3" opacity=".18"/><path d="M554 142 L590 162 V202 L554 222 L518 202 V162Z" fill="none" stroke="url(#slash)" stroke-width="3" opacity=".18"/><path d="M692 142 L728 162 V202 L692 222 L656 202 V162Z" fill="none" stroke="url(#slash)" stroke-width="3" opacity=".18"/><path d="M830 142 L866 162 V202 L830 222 L794 202 V162Z" fill="none" stroke="url(#slash)" stroke-width="3" opacity=".18"/><path d="M968 142 L1004 162 V202 L968 222 L932 202 V162Z" fill="none" stroke="url(#slash)" stroke-width="3" opacity=".18"/><path d="M1106 142 L1142 162 V202 L1106 222 L1070 202 V162Z" fill="none" stroke="url(#slash)" stroke-width="3" opacity=".18"/><path d="M208 234 L244 254 V294 L208 314 L172 294 V254Z" fill="none" stroke="url(#slash)" stroke-width="3" opacity=".18"/><path d="M346 234 L382 254 V294 L346 314 L310 294 V254Z" fill="none" stroke="url(#slash)" stroke-width="3" opacity=".18"/><path d="M484 234 L520 254 V294 L484 314 L448 294 V254Z" fill="none" stroke="url(#slash)" stroke-width="3" opacity=".18"/><path d="M622 234 L658 254 V294 L622 314 L586 294 V254Z" fill="none" stroke="url(#slash)" stroke-width="3" opacity=".18"/><path d="M760 234 L796 254 V294 L760 314 L724 294 V254Z" fill="none" stroke="url(#slash)" stroke-width="3" opacity=".18"/><path d="M898 234 L934 254 V294 L898 314 L862 294 V254Z" fill="none" stroke="url(#slash)" stroke-width="3" opacity=".18"/><path d="M1036 234 L1072 254 V294 L1036 314 L1000 294 V254Z" fill="none" stroke="url(#slash)" stroke-width="3" opacity=".18"/><path d="M1174 234 L1210 254 V294 L1174 314 L1138 294 V254Z" fill="none" stroke="url(#slash)" stroke-width="3" opacity=".18"/><path d="M140 326 L176 346 V386 L140 406 L104 386 V346Z" fill="none" stroke="url(#slash)" stroke-width="3" opacity=".18"/><path d="M278 326 L314 346 V386 L278 406 L242 386 V346Z" fill="none" stroke="url(#slash)" stroke-width="3" opacity=".18"/><path d="M416 326 L452 346 V386 L416 406 L380 386 V346Z" fill="none" stroke="url(#slash)" stroke-width="3" opacity=".18"/><path d="M554 326 L590 346 V386 L554 406 L518 386 V346Z" fill="none" stroke="url(#slash)" stroke-width="3" opacity=".18"/><path d="M692 326 L728 346 V386 L692 406 L656 386 V346Z" fill="none" stroke="url(#slash)" stroke-width="3" opacity=".18"/><path d="M830 326 L866 346 V386 L830 406 L794 386 V346Z" fill="none" stroke="url(#slash)" stroke-width="3" opacity=".18"/><path d="M968 326 L1004 346 V386 L968 406 L932 386 V346Z" fill="none" stroke="url(#slash)" stroke-width="3" opacity=".18"/><path d="M1106 326 L1142 346 V386 L1106 406 L1070 386 V346Z" fill="none" stroke="url(#slash)" stroke-width="3" opacity=".18"/><path d="M208 418 L244 438 V478 L208 498 L172 478 V438Z" fill="none" stroke="url(#slash)" stroke-width="3" opacity=".18"/><path d="M346 418 L382 438 V478 L346 498 L310 478 V438Z" fill="none" stroke="url(#slash)" stroke-width="3" opacity=".18"/><path d="M484 418 L520 438 V478 L484 498 L448 478 V438Z" fill="none" stroke="url(#slash)" stroke-width="3" opacity=".18"/><path d="M622 418 L658 438 V478 L622 498 L586 478 V438Z" fill="none" stroke="url(#slash)" stroke-width="3" opacity=".18"/><path d="M760 418 L796 438 V478 L760 498 L724 478 V438Z" fill="none" stroke="url(#slash)" stroke-width="3" opacity=".18"/><path d="M898 418 L934 438 V478 L898 498 L862 478 V438Z" fill="none" stroke="url(#slash)" stroke-width="3" opacity=".18"/><path d="M1036 418 L1072 438 V478 L1036 498 L1000 478 V438Z" fill="none" stroke="url(#slash)" stroke-width="3" opacity=".18"/><path d="M1174 418 L1210 438 V478 L1174 498 L1138 478 V438Z" fill="none" stroke="url(#slash)" stroke-width="3" opacity=".18"/><path d="M140 510 L176 530 V570 L140 590 L104 570 V530Z" fill="none" stroke="url(#slash)" stroke-width="3" opacity=".18"/><path d="M278 510 L314 530 V570 L278 590 L242 570 V530Z" fill="none" stroke="url(#slash)" stroke-width="3" opacity=".18"/><path d="M416 510 L452 530 V570 L416 590 L380 570 V530Z" fill="none" stroke="url(#slash)" stroke-width="3" opacity=".18"/><path d="M554 510 L590 530 V570 L554 590 L518 570 V530Z" fill="none" stroke="url(#slash)" stroke-width="3" opacity=".18"/><path d="M692 510 L728 530 V570 L692 590 L656 570 V530Z" fill="none" stroke="url(#slash)" stroke-width="3" opacity=".18"/><path d="M830 510 L866 530 V570 L830 590 L794 570 V530Z" fill="none" stroke="url(#slash)" stroke-width="3" opacity=".18"/><path d="M968 510 L1004 530 V570 L968 590 L932 570 V530Z" fill="none" stroke="url(#slash)" stroke-width="3" opacity=".18"/><path d="M1106 510 L1142 530 V570 L1106 590 L1070 570 V530Z" fill="none" stroke="url(#slash)" stroke-width="3" opacity=".18"/><path d="M208 602 L244 622 V662 L208 682 L172 662 V622Z" fill="none" stroke="url(#slash)" stroke-width="3" opacity=".18"/><path d="M346 602 L382 622 V662 L346 682 L310 662 V622Z" fill="none" stroke="url(#slash)" stroke-width="3" opacity=".18"/><path d="M484 602 L520 622 V662 L484 682 L448 662 V622Z" fill="none" stroke="url(#slash)" stroke-width="3" opacity=".18"/><path d="M622 602 L658 622 V662 L622 682 L586 662 V622Z" fill="none" stroke="url(#slash)" stroke-width="3" opacity=".18"/><path d="M760 602 L796 622 V662 L760 682 L724 662 V622Z" fill="none" stroke="url(#slash)" stroke-width="3" opacity=".18"/><path d="M898 602 L934 622 V662 L898 682 L862 662 V622Z" fill="none" stroke="url(#slash)" stroke-width="3" opacity=".18"/><path d="M1036 602 L1072 622 V662 L1036 682 L1000 662 V622Z" fill="none" stroke="url(#slash)" stroke-width="3" opacity=".18"/><path d="M1174 602 L1210 622 V662 L1174 682 L1138 662 V622Z" fill="none" stroke="url(#slash)" stroke-width="3" opacity=".18"/><path d="M140 694 L176 714 V754 L140 774 L104 754 V714Z" fill="none" stroke="url(#slash)" stroke-width="3" opacity=".18"/><path d="M278 694 L314 714 V754 L278 774 L242 754 V714Z" fill="none" stroke="url(#slash)" stroke-width="3" opacity=".18"/><path d="M416 694 L452 714 V754 L416 774 L380 754 V714Z" fill="none" stroke="url(#slash)" stroke-width="3" opacity=".18"/><path d="M554 694 L590 714 V754 L554 774 L518 754 V714Z" fill="none" stroke="url(#slash)" stroke-width="3" opacity=".18"/><path d="M692 694 L728 714 V754 L692 774 L656 754 V714Z" fill="none" stroke="url(#slash)" stroke-width="3" opacity=".18"/><path d="M830 694 L866 714 V754 L830 774 L794 754 V714Z" fill="none" stroke="url(#slash)" stroke-width="3" opacity=".18"/><path d="M968 694 L1004 714 V754 L968 774 L932 754 V714Z" fill="none" stroke="url(#slash)" stroke-width="3" opacity=".18"/><path d="M1106 694 L1142 714 V754 L1106 774 L1070 754 V714Z" fill="none" stroke="url(#slash)" stroke-width="3" opacity=".18"/><path d="M208 786 L244 806 V846 L208 866 L172 846 V806Z" fill="none" stroke="url(#slash)" stroke-width="3" opacity=".18"/><path d="M346 786 L382 806 V846 L346 866 L310 846 V806Z" fill="none" stroke="url(#slash)" stroke-width="3" opacity=".18"/><path d="M484 786 L520 806 V846 L484 866 L448 846 V806Z" fill="none" stroke="url(#slash)" stroke-width="3" opacity=".18"/><path d="M622 786 L658 806 V846 L622 866 L586 846 V806Z" fill="none" stroke="url(#slash)" stroke-width="3" opacity=".18"/><path d="M760 786 L796 806 V846 L760 866 L724 846 V806Z" fill="none" stroke="url(#slash)" stroke-width="3" opacity=".18"/><path d="M898 786 L934 806 V846 L898 866 L862 846 V806Z" fill="none" stroke="url(#slash)" stroke-width="3" opacity=".18"/><path d="M1036 786 L1072 806 V846 L1036 866 L1000 846 V806Z" fill="none" stroke="url(#slash)" stroke-width="3" opacity=".18"/><path d="M1174 786 L1210 806 V846 L1174 866 L1138 846 V806Z" fill="none" stroke="url(#slash)" stroke-width="3" opacity=".18"/>
      <g transform="translate(1020 235) scale(0.62)" opacity="0.34" filter="url(#softGlow)"><path d="M-64 -66 C34 -104 34 -36 -42 -48 C-118 -60 -104 8 -18 -8 C68 -24 72 46 -28 32 C-112 20 -112 84 -10 62 C52 48 80 70 90 92" fill="none" stroke="#008cff" stroke-width="13" stroke-linecap="round"/><path d="M36 -72 L74 72" stroke="#7c2cff" stroke-width="10" stroke-linecap="round"/></g>
      <g transform="translate(184 830) scale(0.5)" opacity="0.26" filter="url(#softGlow)"><path d="M-64 -66 C34 -104 34 -36 -42 -48 C-118 -60 -104 8 -18 -8 C68 -24 72 46 -28 32 C-112 20 -112 84 -10 62 C52 48 80 70 90 92" fill="none" stroke="#008cff" stroke-width="13" stroke-linecap="round"/><path d="M36 -72 L74 72" stroke="#7c2cff" stroke-width="10" stroke-linecap="round"/></g>
      <path d="M90 438 H1110" stroke="url(#slash)" stroke-width="6" opacity=".34"/>
      <text x="118" y="1012" class="micro" fill="#008cff">APPAREL</text><text x="336" y="1050" class="micro" fill="#7c2cff">T-SHIRT</text><text x="554" y="1012" class="micro" fill="#008cff">PACK-67</text><text x="772" y="1050" class="micro" fill="#7c2cff">PAYLOAD</text><text x="990" y="1012" class="micro" fill="#008cff">BACK</text>
    </g>
  
      <g transform="" opacity="0.92">
        <path d="M278 330 L150 475 L240 545 L342 430" fill="#07090e" stroke="#008cff" stroke-width="7" />
        <path d="M922 330 L1050 475 L960 545 L858 430" fill="#07090e" stroke="#7c2cff" stroke-width="7" />
        <path d="M330 305 L465 255 Q600 320 735 255 L870 305 L830 870 Q600 930 370 870 Z" fill="url(#fabric)" stroke="#202636" stroke-width="8" />
        <path d="M468 270 Q600 335 732 270 Q700 380 600 392 Q500 380 468 270Z" fill="#050609" stroke="#2a3344" stroke-width="6" />
        <path d="M372 505 Q600 610 828 505" fill="none" stroke="url(#slash)" stroke-width="24" opacity=".82" />
        <text x="600" y="565" text-anchor="middle" class="mark">WOLFPACK 4X4</text>
      </g>
  
    <g transform="translate(722.8 300) rotate(-0.18)">
      <rect x="-146" y="-48" width="292" height="96" rx="10" fill="#030407" stroke="url(#slash)" stroke-width="4" opacity=".82"/>
      <g transform="translate(-106 0) scale(0.26)" opacity="1" filter="url(#softGlow)"><path d="M-64 -66 C34 -104 34 -36 -42 -48 C-118 -60 -104 8 -18 -8 C68 -24 72 46 -28 32 C-112 20 -112 84 -10 62 C52 48 80 70 90 92" fill="none" stroke="#008cff" stroke-width="13" stroke-linecap="round"/><path d="M36 -72 L74 72" stroke="#7c2cff" stroke-width="10" stroke-linecap="round"/></g>
      <text x="-28" y="-8" class="tiny" fill="#eef5ff">BACK PRINT</text>
      <text x="-28" y="28" class="tinyBlue">PACK ISSUE 67</text>
    </g>
    <g transform="translate(600 926)">
      <rect x="-330" y="-48" width="660" height="72" rx="8" fill="#05070b" stroke="#263247" stroke-width="3" opacity=".88"/>
      <text x="0" y="-4" text-anchor="middle" class="tiny">TECHNICAL DRY-FIT TEE WITH B...</text>
      <text x="0" y="28" text-anchor="middle" class="tinyBlue">WOLFPACK 4X4 / CARRY / ISSUE 67</text>
    </g>
  <g>
    <rect x="82" y="82" width="244" height="62" rx="8" fill="#05070b" stroke="#008cff" stroke-width="3" opacity=".95"/>
    <text x="204" y="122" text-anchor="middle" class="meta">BACK</text>
    <text x="600" y="1072" text-anchor="middle" class="name">TRAIL LEAD DRY TEE</text>
    <text x="600" y="1114" text-anchor="middle" class="meta">APPAREL - WOLFPACK 4X4</text>
  </g>
</svg>
