<?xml version="1.0" encoding="UTF-8"?>
<svg xmlns="http://www.w3.org/2000/svg" width="1280" height="560" viewBox="0 0 1280 560">
  <defs>
    <linearGradient id="wolfpackBlue" x1="0" x2="1" y1="0" y2="1">
      <stop offset="0" stop-color="#20d7ff"/>
      <stop offset=".48" stop-color="#008cff"/>
      <stop offset="1" stop-color="#2358ff"/>
    </linearGradient>
    <linearGradient id="wolfpackPurple" x1="0" x2="1" y1="0" y2="1">
      <stop offset="0" stop-color="#b44cff"/>
      <stop offset=".5" stop-color="#7d31ff"/>
      <stop offset="1" stop-color="#3556ff"/>
    </linearGradient>
    <linearGradient id="slash" x1="0" x2="1" y1="0" y2="0">
      <stop offset="0" stop-color="#008cff"/>
      <stop offset=".5" stop-color="#7d31ff"/>
      <stop offset="1" stop-color="#20d7ff"/>
    </linearGradient>
    <radialGradient id="bayGlow" cx="50%" cy="52%" r="70%">
      <stop offset="0" stop-color="#152647"/>
      <stop offset=".36" stop-color="#090d1b"/>
      <stop offset=".78" stop-color="#03050a"/>
      <stop offset="1" stop-color="#010207"/>
    </radialGradient>
    <linearGradient id="floorGlow" x1="0" x2="1" y1="0" y2="0">
      <stop offset="0" stop-color="#071b35"/>
      <stop offset=".5" stop-color="#080910"/>
      <stop offset="1" stop-color="#251049"/>
    </linearGradient>
    <filter id="glow" x="-30%" y="-30%" width="160%" height="160%">
      <feGaussianBlur stdDeviation="4" result="blur"/>
      <feMerge>
        <feMergeNode in="blur"/>
        <feMergeNode in="SourceGraphic"/>
      </feMerge>
    </filter>
    <filter id="shadow" x="-20%" y="-20%" width="140%" height="140%">
      <feDropShadow dx="0" dy="18" stdDeviation="15" flood-color="#000000" flood-opacity=".58"/>
    </filter>
    <style>
      .brandText { font-family: Arial, Helvetica, sans-serif; font-size: 18px; font-weight: 900; letter-spacing: 2px; fill: #eef6ff; }
      .microText { font-family: Arial, Helvetica, sans-serif; font-size: 15px; font-weight: 900; letter-spacing: 3px; fill: #c9d6e7; }
      .titleText { font-family: Impact, Arial Black, Arial, sans-serif; font-size: 42px; letter-spacing: 1px; fill: #eef6ff; paint-order: stroke; stroke: rgba(0,0,0,.4); stroke-width: 4px; }
      .watermarkText { font-family: Impact, Arial Black, Arial, sans-serif; font-size: 154px; letter-spacing: 4px; fill: rgba(255,255,255,.026); }
      .subjectText { font-family: Arial Black, Arial, sans-serif; font-size: 30px; letter-spacing: 2px; fill: #eef6ff; }
    </style>
  </defs>
  
    <rect width="1280" height="560" fill="#03050a"/>
    <rect width="1280" height="560" fill="url(#bayGlow)" opacity=".94"/>
    <path d="M0 383 H1280 V560 H0Z" fill="url(#floorGlow)" opacity=".85"/>
    <path d="M80 390 H1200" stroke="rgba(255,255,255,.06)" stroke-width="2"/><path d="M58 408 H1222" stroke="rgba(255,255,255,.06)" stroke-width="2"/><path d="M36 426 H1244" stroke="rgba(255,255,255,.06)" stroke-width="2"/><path d="M14 444 H1266" stroke="rgba(255,255,255,.06)" stroke-width="2"/><path d="M-8 462 H1288" stroke="rgba(255,255,255,.06)" stroke-width="2"/><path d="M-30 480 H1310" stroke="rgba(255,255,255,.06)" stroke-width="2"/><path d="M-52 498 H1332" stroke="rgba(255,255,255,.06)" stroke-width="2"/><path d="M-74 516 H1354" stroke="rgba(255,255,255,.06)" stroke-width="2"/><path d="M-96 534 H1376" stroke="rgba(255,255,255,.06)" stroke-width="2"/>
    <path d="M102 128 L-18 529" stroke="rgba(0,140,255,.08)" stroke-width="2"/><path d="M214 128 L118 529" stroke="rgba(0,140,255,.08)" stroke-width="2"/><path d="M326 128 L254 529" stroke="rgba(0,140,255,.08)" stroke-width="2"/><path d="M438 128 L390 529" stroke="rgba(0,140,255,.08)" stroke-width="2"/><path d="M550 128 L526 529" stroke="rgba(0,140,255,.08)" stroke-width="2"/><path d="M662 128 L662 529" stroke="rgba(0,140,255,.08)" stroke-width="2"/><path d="M774 128 L798 529" stroke="rgba(0,140,255,.08)" stroke-width="2"/><path d="M886 128 L934 529" stroke="rgba(0,140,255,.08)" stroke-width="2"/><path d="M998 128 L1070 529" stroke="rgba(0,140,255,.08)" stroke-width="2"/><path d="M1110 128 L1206 529" stroke="rgba(0,140,255,.08)" stroke-width="2"/><path d="M1222 128 L1342 529" stroke="rgba(0,140,255,.08)" stroke-width="2"/>
    <path d="M72 135 H1208 M72 167 H1208 M72 199 H1208" stroke="rgba(255,255,255,.035)" stroke-width="2"/>
    <path d="M74 119 C259 63 421 94 566 121 C722 151 910 114 1198 73" fill="none" stroke="url(#slash)" stroke-width="6" opacity=".26"/>
    <text x="640" y="315" text-anchor="middle" class="watermarkText">WOLFPACK</text>
  
  <g transform="translate(0 0)">
    
    
    <g>
      <ellipse cx="640" cy="421" rx="500" ry="36" fill="#020306" opacity=".62"/>
      
      <path d="M182 286 L247 218 H490 L565 286 H1036 L1102 336 V371 H149 V333Z" fill="#090d15" stroke="#cbd7e7" stroke-width="6"/>
       <path d="M284 230 H462 L524 286 H240Z" fill="#111827" stroke="#52617a" stroke-width="5"/>
       <path d="M584 250 H884 L1012 292 H566Z" fill="#0d1220" stroke="#52617a" stroke-width="5"/>
      <path d="M612 198 H932 L1028 286 H578 L602 228Z" fill="#0b0f18" stroke="url(#wolfpackBlue)" stroke-width="6"/>
       <path d="M650 222 H836 L878 270 H628Z" fill="#111827" stroke="#465979" stroke-width="4"/>
      <path d="M610 176 H930" stroke="#dce8f7" stroke-width="7" stroke-linecap="round"/><path d="M650 158 H895" stroke="url(#wolfpackPurple)" stroke-width="6" stroke-linecap="round" filter="url(#glow)"/>
      <path d="M190 319 C362 270 529 303 686 285 C823 270 970 286 1086 333" fill="none" stroke="url(#slash)" stroke-width="8" opacity=".86"/>
      <path d="M250 362 H1025" stroke="#273348" stroke-width="8"/>
      <line x1="296" y1="308" x2="475" y2="289" stroke="url(#wolfpackBlue)" stroke-width="5" stroke-linecap="round" opacity="0.9" filter="url(#glow)"/>
      <line x1="585" y1="316" x2="965" y2="316" stroke="url(#wolfpackPurple)" stroke-width="5" stroke-linecap="round" opacity="0.8" filter="url(#glow)"/>
      
    <g>
      <rect x="315" y="308" width="14" height="22" rx="3" fill="#0a0d14" stroke="#283247" stroke-width="2" transform="rotate(0 322 374)"/><rect x="315" y="308" width="14" height="22" rx="3" fill="#0a0d14" stroke="#283247" stroke-width="2" transform="rotate(22.5 322 374)"/><rect x="315" y="308" width="14" height="22" rx="3" fill="#0a0d14" stroke="#283247" stroke-width="2" transform="rotate(45 322 374)"/><rect x="315" y="308" width="14" height="22" rx="3" fill="#0a0d14" stroke="#283247" stroke-width="2" transform="rotate(67.5 322 374)"/><rect x="315" y="308" width="14" height="22" rx="3" fill="#0a0d14" stroke="#283247" stroke-width="2" transform="rotate(90 322 374)"/><rect x="315" y="308" width="14" height="22" rx="3" fill="#0a0d14" stroke="#283247" stroke-width="2" transform="rotate(112.5 322 374)"/><rect x="315" y="308" width="14" height="22" rx="3" fill="#0a0d14" stroke="#283247" stroke-width="2" transform="rotate(135 322 374)"/><rect x="315" y="308" width="14" height="22" rx="3" fill="#0a0d14" stroke="#283247" stroke-width="2" transform="rotate(157.5 322 374)"/><rect x="315" y="308" width="14" height="22" rx="3" fill="#0a0d14" stroke="#283247" stroke-width="2" transform="rotate(180 322 374)"/><rect x="315" y="308" width="14" height="22" rx="3" fill="#0a0d14" stroke="#283247" stroke-width="2" transform="rotate(202.5 322 374)"/><rect x="315" y="308" width="14" height="22" rx="3" fill="#0a0d14" stroke="#283247" stroke-width="2" transform="rotate(225 322 374)"/><rect x="315" y="308" width="14" height="22" rx="3" fill="#0a0d14" stroke="#283247" stroke-width="2" transform="rotate(247.5 322 374)"/><rect x="315" y="308" width="14" height="22" rx="3" fill="#0a0d14" stroke="#283247" stroke-width="2" transform="rotate(270 322 374)"/><rect x="315" y="308" width="14" height="22" rx="3" fill="#0a0d14" stroke="#283247" stroke-width="2" transform="rotate(292.5 322 374)"/><rect x="315" y="308" width="14" height="22" rx="3" fill="#0a0d14" stroke="#283247" stroke-width="2" transform="rotate(315 322 374)"/><rect x="315" y="308" width="14" height="22" rx="3" fill="#0a0d14" stroke="#283247" stroke-width="2" transform="rotate(337.5 322 374)"/>
      <circle cx="322" cy="374" r="58" fill="#05070b" stroke="#6e7483" stroke-width="8"/>
      <circle cx="322" cy="374" r="40" fill="#0d111b" stroke="url(#wolfpackBlue)" stroke-width="5"/>
      <circle cx="322" cy="374" r="12" fill="#1d2330" stroke="#7d31ff" stroke-width="4"/>
      <circle cx="348" cy="374" r="4" fill="#008cff"/><circle cx="340.3847763108502" cy="392.3847763108502" r="4" fill="#7d31ff"/><circle cx="322" cy="400" r="4" fill="#008cff"/><circle cx="303.6152236891498" cy="392.3847763108502" r="4" fill="#7d31ff"/><circle cx="296" cy="374" r="4" fill="#008cff"/><circle cx="303.6152236891498" cy="355.6152236891498" r="4" fill="#7d31ff"/><circle cx="322" cy="348" r="4" fill="#008cff"/><circle cx="340.3847763108502" cy="355.6152236891498" r="4" fill="#7d31ff"/>
    </g>
      
    <g>
      <rect x="919" y="308" width="14" height="22" rx="3" fill="#0a0d14" stroke="#283247" stroke-width="2" transform="rotate(0 926 374)"/><rect x="919" y="308" width="14" height="22" rx="3" fill="#0a0d14" stroke="#283247" stroke-width="2" transform="rotate(22.5 926 374)"/><rect x="919" y="308" width="14" height="22" rx="3" fill="#0a0d14" stroke="#283247" stroke-width="2" transform="rotate(45 926 374)"/><rect x="919" y="308" width="14" height="22" rx="3" fill="#0a0d14" stroke="#283247" stroke-width="2" transform="rotate(67.5 926 374)"/><rect x="919" y="308" width="14" height="22" rx="3" fill="#0a0d14" stroke="#283247" stroke-width="2" transform="rotate(90 926 374)"/><rect x="919" y="308" width="14" height="22" rx="3" fill="#0a0d14" stroke="#283247" stroke-width="2" transform="rotate(112.5 926 374)"/><rect x="919" y="308" width="14" height="22" rx="3" fill="#0a0d14" stroke="#283247" stroke-width="2" transform="rotate(135 926 374)"/><rect x="919" y="308" width="14" height="22" rx="3" fill="#0a0d14" stroke="#283247" stroke-width="2" transform="rotate(157.5 926 374)"/><rect x="919" y="308" width="14" height="22" rx="3" fill="#0a0d14" stroke="#283247" stroke-width="2" transform="rotate(180 926 374)"/><rect x="919" y="308" width="14" height="22" rx="3" fill="#0a0d14" stroke="#283247" stroke-width="2" transform="rotate(202.5 926 374)"/><rect x="919" y="308" width="14" height="22" rx="3" fill="#0a0d14" stroke="#283247" stroke-width="2" transform="rotate(225 926 374)"/><rect x="919" y="308" width="14" height="22" rx="3" fill="#0a0d14" stroke="#283247" stroke-width="2" transform="rotate(247.5 926 374)"/><rect x="919" y="308" width="14" height="22" rx="3" fill="#0a0d14" stroke="#283247" stroke-width="2" transform="rotate(270 926 374)"/><rect x="919" y="308" width="14" height="22" rx="3" fill="#0a0d14" stroke="#283247" stroke-width="2" transform="rotate(292.5 926 374)"/><rect x="919" y="308" width="14" height="22" rx="3" fill="#0a0d14" stroke="#283247" stroke-width="2" transform="rotate(315 926 374)"/><rect x="919" y="308" width="14" height="22" rx="3" fill="#0a0d14" stroke="#283247" stroke-width="2" transform="rotate(337.5 926 374)"/>
      <circle cx="926" cy="374" r="58" fill="#05070b" stroke="#6e7483" stroke-width="8"/>
      <circle cx="926" cy="374" r="40" fill="#0d111b" stroke="url(#wolfpackBlue)" stroke-width="5"/>
      <circle cx="926" cy="374" r="12" fill="#1d2330" stroke="#7d31ff" stroke-width="4"/>
      <circle cx="952" cy="374" r="4" fill="#008cff"/><circle cx="944.3847763108503" cy="392.3847763108502" r="4" fill="#7d31ff"/><circle cx="926" cy="400" r="4" fill="#008cff"/><circle cx="907.6152236891497" cy="392.3847763108502" r="4" fill="#7d31ff"/><circle cx="900" cy="374" r="4" fill="#008cff"/><circle cx="907.6152236891497" cy="355.6152236891498" r="4" fill="#7d31ff"/><circle cx="926" cy="348" r="4" fill="#008cff"/><circle cx="944.3847763108503" cy="355.6152236891498" r="4" fill="#7d31ff"/>
    </g>
      
    <g transform="translate(701 324) scale(0.38)" filter="url(#glow)">
      <path d="M0 -52 L37 -20 L54 32 L18 57 L0 37 L-18 57 L-54 32 L-37 -20Z" fill="#080b13" stroke="url(#wolfpackBlue)" stroke-width="7"/>
      <path d="M-25 -4 L-8 10 L-20 21 M25 -4 L8 10 L20 21" fill="none" stroke="#7d31ff" stroke-width="6" stroke-linecap="round"/>
      <path d="M-14 31 L0 43 L14 31" fill="none" stroke="#eef6ff" stroke-width="5" stroke-linecap="round"/>
    </g>
    </g>
    <g filter="url(#shadow)">
      <rect x="516" y="389" width="352" height="58" rx="12" fill="#070a10" stroke="#dce8f7" stroke-width="5"/>
      <path d="M548 417 H835 M650 389 V447 M758 389 V447" stroke="url(#wolfpackBlue)" stroke-width="5"/>
      <path d="M879 194 H1118 L1160 238 H907Z" fill="#0a0f18" stroke="url(#wolfpackPurple)" stroke-width="5"/>
      <path d="M909 226 H1150" stroke="#008cff" stroke-width="6" stroke-linecap="round"/>
    </g>
  </g>
  
    <rect x="32" y="32" width="1216" height="496" rx="26" fill="none" stroke="rgba(255,255,255,.14)" stroke-width="2"/>
    <rect x="54" y="52" width="202" height="48" rx="14" fill="#05070d" stroke="url(#wolfpackBlue)" stroke-width="3" filter="url(#glow)"/>
    
    <g transform="translate(81 76) scale(0.2)" filter="url(#glow)">
      <path d="M0 -52 L37 -20 L54 32 L18 57 L0 37 L-18 57 L-54 32 L-37 -20Z" fill="#080b13" stroke="url(#wolfpackBlue)" stroke-width="7"/>
      <path d="M-25 -4 L-8 10 L-20 21 M25 -4 L8 10 L20 21" fill="none" stroke="#7d31ff" stroke-width="6" stroke-linecap="round"/>
      <path d="M-14 31 L0 43 L14 31" fill="none" stroke="#eef6ff" stroke-width="5" stroke-linecap="round"/>
    </g>
    <text x="112" y="83" class="brandText">WOLFPACK 4X4</text>
    <text x="1028" y="87" class="microText" text-anchor="end">CANOPY / RACK / DRAWERS</text>
    <text x="1028" y="494" class="titleText" text-anchor="end">Canopies, racks and storage</text>
    <path d="M76 476 H364" stroke="url(#wolfpackBlue)" stroke-width="5" stroke-linecap="round" filter="url(#glow)"/>
    <path d="M916 111 H1200" stroke="url(#wolfpackPurple)" stroke-width="4" stroke-linecap="round" opacity=".72"/>
  
</svg>